<?xml version="1.0" encoding="UTF-8"?>
<svg width="18px" height="18px" viewBox="0 0 18 18" version="1.1" xmlns="http://www.w3.org/2000/svg" xmlns:xlink="http://www.w3.org/1999/xlink">
    <title>清除</title>
    <g id="界面" stroke="none" stroke-width="1" fill="none" fill-rule="evenodd">
        <g id="清除" fill="#FFFFFF" fill-rule="nonzero">
            <rect id="矩形" opacity="0" x="0" y="0" width="18" height="18"></rect>
            <path d="M13.1078919,6.72124331 L16.6191613,3.21498369 C17.1266349,2.70902184 17.1266349,1.88753396 16.621027,1.37970509 C16.1154191,0.873743238 15.2963717,0.873743238 14.7888981,1.37783807 L11.2738974,4.88783173 C11.2272546,4.89343278 11.1936718,4.89716682 11.147029,4.90276787 C9.79625375,4.11862035 8.23092167,4.12235439 7.02753765,5.27243742 C6.99208913,5.30604374 6.99022342,5.36765533 7.02567194,5.40312867 L12.5929555,10.9743101 C12.628404,11.0097834 12.6899725,11.0079164 12.7235553,10.9724431 C13.870968,9.76634951 13.8746994,8.2017885 13.0929663,6.85006754 C13.0966977,6.80152508 13.1022948,6.76978577 13.1078919,6.72124331 Z" id="路径"></path>
            <path d="M4,4 C4,4.55228475 4.44771525,5 5,5 C5.55228475,5 6,4.55228475 6,4 C6,3.44771525 5.55228475,3 5,3 C4.44771525,3 4,3.44771525 4,4 Z" id="路径"></path>
            <path d="M12,15 C12,15.5522847 12.4477153,16 13,16 C13.5522847,16 14,15.5522847 14,15 C14,14.4477153 13.5522847,14 13,14 C12.4477153,14 12,14.4477153 12,15 L12,15 Z" id="路径"></path>
            <path d="M14,14.5 C14,14.7761424 14.2238576,15 14.5,15 C14.7761424,15 15,14.7761424 15,14.5 C15,14.2238576 14.7761424,14 14.5,14 C14.2238576,14 14,14.2238576 14,14.5 Z" id="路径"></path>
            <path d="M6.47731079,6.03732362 L11.9624302,11.5161343 C12.0029924,11.5566635 12.0122111,11.6174573 11.9827113,11.6671977 C11.6858695,12.1406524 10.1905983,14.6497782 9.79050728,17.9658035 C9.7868198,17.993437 9.75732,18.0081749 9.73335141,17.9952793 L7.87117643,16.8733574 C7.85458279,16.862304 7.84720784,16.8420394 7.85642653,16.823617 C8.0315816,16.457012 9.70753908,12.9493941 9.53607149,13.1207221 C9.3553852,13.3012612 8.19567425,14.5318751 7.32727383,15.7901225 L6.82762094,16.4772766 C6.82762094,16.4772766 4.86772786,15.1600776 4.26298193,14.3402825 C4.25376324,14.3273868 4.2519195,14.3163334 4.26298193,14.30528 C4.66122925,13.8226141 6.73359032,11.1311069 6.73359032,11.1311069 L3.21020775,13.2423097 C3.19361411,13.2515209 3.17517674,13.2496786 3.16227058,13.2349407 C2.99080298,13.0451904 1.81449838,11.7464138 1.47525066,11.1366336 C1.46787571,11.123738 1.46787571,11.1126846 1.48078188,11.1016311 C1.81634212,10.8308224 3.71354812,9.22439237 3.71354812,9.22439237 L1.04197233,10.1694596 C1.02353495,10.1749863 1.00325384,10.1676173 0.994035148,10.1510372 L0.00579179043,8.29774753 C-0.00711437283,8.27564069 0.00210431521,8.24800715 0.0279166417,8.24248044 C0.498069732,8.14852639 4.42154336,7.33425795 6.32612431,6.02074349 C6.37406149,5.98758324 6.43674857,5.99495218 6.47731079,6.03732362 Z" id="路径"></path>
        </g>
    </g>
</svg>