<?xml version="1.0" encoding="UTF-8"?>
<svg width="414px" height="199px" viewBox="0 0 414 199" version="1.1" xmlns="http://www.w3.org/2000/svg" xmlns:xlink="http://www.w3.org/1999/xlink">
    <title>电商插画备份</title>
    <defs>
        <rect id="path-1" x="0" y="0" width="414" height="199"></rect>
    </defs>
    <g id="界面" stroke="none" stroke-width="1" fill="none" fill-rule="evenodd">
        <g id="电商插画备份">
            <mask id="mask-2" fill="white">
                <use xlink:href="#path-1"></use>
            </mask>
            <use id="蒙版" fill="#DF141D" xlink:href="#path-1"></use>
            <g id="电商插画" style="mix-blend-mode: soft-light;" mask="url(#mask-2)">
                <g transform="translate(0.000000, -24.000000)">
                    <rect id="矩形" stroke="none" fill="#EFEDE4" fill-rule="nonzero" x="0" y="0.0276" width="414" height="231.84"></rect>
                    <path d="M149.6196,97.8282 C148.9641,95.3097 147.3012,93.8262 144.2721,93.8676 M147.453,94.599 C146.604487,95.4638959 146.057608,96.5794334 145.8936,97.7799" id="形状" stroke="#070838" stroke-width="1.1" fill="none" stroke-linecap="round" stroke-linejoin="round"></path>
                    <path d="M197.8989,165.876 L213.9,159.7695 M236.2698,123.5652 L238.1535,123.4134 C238.364404,123.395098 238.521314,123.210498 238.5054,122.9994 L238.2087,119.2458 C238.123903,118.18455 237.486977,117.246198 236.532,116.7756 M207.552,225.7956 L195.4425,150.1302 M217.7571,174.6528 C216.6255,170.4093 214.5141,162.7986 213.4998,158.8518 C208.794,140.4978 207.4209,120.6465 183.0708,120.742749 L175.4808,120.819 M109.4271,225.63 L111.8835,213.21 M161.1495,145.8177 C141.9123,173.4177 127.65,132.273 143.796,120.75 M164.1165,200.6865 C167.575243,201.439951 170.768341,203.107987 173.3625,205.5165 C183.2226,214.935 170.154,218.0469 167.0697,214.4865 M117.7209,171.6513 L91.5009,161.1219 M153.9252,188.6598 L172.8864,189.3498 C176.1501,189.4671 178.9101,193.5588 176.0052,196.4085 M162.7158,210.9744 C163.997373,211.546404 165.146296,212.37814 166.0899,213.417 C171.4581,220.1859 167.2698,224.9607 161.3565,224.6088 L149.9784,223.9188 C148.4811,223.8291 147.7083,218.8611 149.6403,217.8192 M154.8843,218.6334 C149.4678,216.7911 145.5279,219.7443 138.0897,214.0311 C109.5444,210.7122 75.0306,220.5309 85.5531,182.9811 L91.5837,161.4876 M122.2335,152.9937 L115.506,183.0639 C127.0497,184.644 143.106,185.8239 153.9321,188.6736 C172.4448,193.6071 190.6815,202.86 192.51,206.31 C194.1591,209.4426 192.51,213.9 188.1561,213.3687 C187.8249,213.3273 174.8529,206.6757 174.4872,206.5722 M161.3358,145.8522 C180.573,173.4522 196.3326,132.7422 179.6277,120.7983 M163.53,188.5632 L161.2254,145.5072 M205.2819,207.3243 C208.2558,217.1085 223.8567,222.2145 232.3299,207.8211 L269.445,144.7551 C270.078469,143.682314 270.543866,142.51882 270.825,141.3051 C271.328434,141.084823 271.794116,140.786786 272.205,140.4219 L280.6989,132.9492 C285.8532,128.4159 278.9394,120.4119 273.7161,125.0073 L267.7752,130.2375 L275.586,123.1581 C283.5417,116.1546 275.931,107.5434 268.6032,115.2162 C263.2902,120.7776 258.9432,124.9866 259.7022,123.9447 C260.2128,123.2547 262.9728,120.2739 269.1897,113.8707 C273.2952,109.641 266.6781,102.6306 262.338,107.1018 L246.33,123.6342 M258.957,138.8142 C258.4464,131.7348 252.1536,128.9058 247.8549,129.0093 L244.6602,118.197 C242.9904,112.5528 235.2003,112.677 236.049,120.957 L237.6222,136.2681 C230.4807,149.1504 219.6408,171.0855 212.451,185.6997 M145.7418,120.8397 L123.7791,120.9777 C98.1525,121.0743 96.3033,142.6506 91.5009,161.9292 M172.6242,82.1445 L178.9308,105.9426 C179.6691,108.7026 177.4749,110.6553 174.4665,111.6627 L176.0052,125.7387 L176.2191,127.6707 C177.3093,137.6481 170.3886,143.1474 162.7917,144.0306 C153.7734,145.0794 143.796,139.6353 145.0794,127.4706 L147.5496,103.9623 C136.1577,98.5527 140.898,85.8981 149.4264,90.7764 M167.7597,171.5823 C167.417723,171.650015 167.117699,171.853228 166.927935,172.145672 C166.738171,172.438116 166.674818,172.794902 166.7523,173.1348 C166.869106,173.856829 167.528962,174.362315 168.2565,174.2871 C168.598477,174.219385 168.898501,174.016172 169.088265,173.723728 C169.278029,173.431284 169.341382,173.074498 169.2639,172.7346 C169.147094,172.012571 168.487238,171.507085 167.7597,171.5823 L167.7597,171.5823 Z M167.4906,158.4102 C167.148623,158.477915 166.848599,158.681128 166.658835,158.973572 C166.469071,159.266016 166.405718,159.622802 166.4832,159.9627 C166.600006,160.684729 167.259862,161.190215 167.9874,161.115 C168.329377,161.047285 168.629401,160.844072 168.819165,160.551628 C169.008929,160.259184 169.072282,159.902398 168.9948,159.5625 C168.88452,158.834909 168.222716,158.321859 167.4906,158.3964 L167.4906,158.4102 Z" id="形状" stroke="#0A0910" stroke-width="1.42" fill="none" stroke-linecap="round" stroke-linejoin="round"></path>
                    <path d="M99.084,180.9318 C92.4255,177.4266 89.9967,181.0767 87.5748,183.9126 C84.5457,187.4592 81.0543,187.4799 77.5629,183.9126 C75.2307,181.5252 71.2425,176.8263 65.8329,183.2916 C60.8994,189.2118 55.9107,177.6819 48.714,182.988 L48.4794,183.5262" id="路径" stroke="#FFA100" stroke-width="2.13" fill="none" stroke-linecap="round" stroke-linejoin="round"></path>
                    <path d="M316.2753,197.4918 C309.6168,193.9866 307.188,197.6367 304.7661,200.4726 C301.737,204.0192 298.2456,204.0399 294.7542,200.4726 C292.422,198.0852 288.4338,193.3863 283.0242,199.8516 C278.0907,205.7718 273.102,194.2419 265.9053,199.548 L265.6707,200.0862" id="路径" stroke="#242F92" stroke-width="2.13" fill="none" stroke-linecap="round" stroke-linejoin="round"></path>
                    <path d="M140.691,36.2388 C134.0325,32.7336 131.6037,36.3837 129.1818,39.2196 C126.1527,42.7662 122.6613,42.7869 119.1699,39.2196 C116.8377,36.8322 112.8495,32.1333 107.4399,38.5986 C102.5064,44.5188 97.5177,32.9889 90.321,38.295 L90.0864,38.8332" id="路径" stroke="#F00000" stroke-width="2.13" fill="none" stroke-linecap="round" stroke-linejoin="round"></path>
                    <path d="M323.3409,178.8756 C325.360605,178.8756 326.9979,177.238305 326.9979,175.2186 C326.9979,173.198895 325.360605,171.5616 323.3409,171.5616 C321.321195,171.5616 319.6839,173.198895 319.6839,175.2186 C319.687697,177.23673 321.32277,178.871803 323.3409,178.8756 L323.3409,178.8756 Z" id="路径" stroke="#355DA8" stroke-width="1.42" fill="none"></path>
                    <circle id="椭圆形" stroke="#355DA8" stroke-width="1.42" fill="none" cx="329.13" cy="193.2345" r="2.0079"></circle>
                    <circle id="椭圆形" stroke="#355DA8" stroke-width="1.42" fill="none" cx="231.84" cy="26.8065" r="2.0079"></circle>
                    <path d="M70.4697,173.19 C74.7568104,173.19 78.2322,169.71461 78.2322,165.4275 C78.2322,161.14039 74.7568104,157.665 70.4697,157.665 C66.1825896,157.665 62.7072,161.14039 62.7072,165.4275 C62.7147957,169.71146 66.1857398,173.182404 70.4697,173.19 L70.4697,173.19 Z" id="路径" stroke="#355DA8" stroke-width="1.42" fill="none"></path>
                    <path d="M70.5456,128.7816 C72.5653053,128.7816 74.2026,127.144305 74.2026,125.1246 C74.2026,123.104895 72.5653053,121.4676 70.5456,121.4676 C68.5258947,121.4676 66.8886,123.104895 66.8886,125.1246 C66.8923971,127.14273 68.5274696,128.777803 70.5456,128.7816 L70.5456,128.7816 Z" id="路径" stroke="#355DA8" stroke-width="1.42" fill="none"></path>
                    <circle id="椭圆形" stroke="#0A0910" stroke-width="1.42" fill="none" cx="51.9087" cy="160.1145" r="2.0079"></circle>
                    <circle id="椭圆形" stroke="#0A0910" stroke-width="1.42" fill="none" cx="97.497" cy="116.4651" r="1.3593"></circle>
                    <polygon id="路径" stroke="none" fill="#0A0910" fill-rule="evenodd" points="174.7494 111.2142 170.706 111.8628 175.0323 114.9747"></polygon>
                    <path d="M181.3527,87.8715 C181.1526,75.4515 177.2127,72.4638 170.3127,69.483 C164.3718,66.9093 161.8809,70.4352 153.4974,70.173 C145.1139,69.9108 139.38,69.3795 138.2001,79.3983 C137.5101,85.2288 136.758,90.5694 133.4115,93.4329 C120.7569,104.2728 128.6919,108.5715 127.3188,115.1334 L136.482,115.6509 L135.8955,106.4463 L138.0759,115.713 L140.1459,115.8234 L140.3667,110.4483 L141.45,115.9683 L150.3303,116.3892 C146.0661,111.2625 151.8483,110.3586 146.8803,103.3206 C137.7861,99.8361 139.7112,85.4841 149.5851,90.6936 C152.7729,89.1825 153.6837,86.3121 154.1391,79.0326 C158.7759,81.6132 165.1791,84.6009 172.9416,82.0134 L178.3995,104.8179 C179.2068,108.192 177.5577,110.7174 173.9283,111.7731 L174.2664,114.7746 L183.4848,114.0501 L184.0575,107.5434 L185.127,113.8707 L189.957,113.4981 C193.89,100.2846 179.9727,99.291 181.3527,87.8715 Z" id="路径" stroke="none" fill="#0A0910" fill-rule="evenodd"></path>
                    <path d="M157.4925,66.723 C151.0893,67.2336 140.2908,77.4594 141.3948,90.1071 C142.3608,101.1471 155.94,106.1151 161.5635,106.8465 L161.6463,105.4665 C156.6231,103.7484 147.1563,101.3748 146.2593,90.2037 C145.4106,79.9572 156.6093,67.3716 166.7454,68.9103 C170.3403,69.345 164.5167,65.4396 157.4925,66.723 Z" id="路径" stroke="none" fill="#273695" fill-rule="evenodd"></path>
                    <path d="M143.8788,89.01 C140.1873,89.3067 137.5308,92.7705 137.9448,96.7449 C138.3588,100.7193 141.6846,103.7001 145.3761,103.4034 C149.0676,103.1067 151.7241,99.6429 151.3101,95.6616 C150.8961,91.6803 147.5772,88.7064 143.8788,89.01 Z" id="路径" stroke="none" fill="#355DA8" fill-rule="evenodd"></path>
                    <path d="M163.0056,105.2112 L161.253,104.7489 C160.493146,104.551709 159.716573,105.00471 159.5142,105.7632 L159.5142,105.7632 C159.317009,106.523054 159.77001,107.299627 160.5285,107.502 L162.2811,107.9643 C163.040954,108.161491 163.817527,107.70849 164.0199,106.95 L164.0199,106.95 C164.217091,106.190146 163.76409,105.413573 163.0056,105.2112 Z" id="路径" stroke="none" fill="#070838" fill-rule="evenodd"></path>
                    <path d="M256.920586,48.6795 L256.920586,82.2204 C256.920586,84.042 259.1916,84.8079 260.889,83.7177 L270.7353,77.4042 L344.0478,77.4594 C346.8078,77.4594 352.8729,69.9039 352.9488,67.7373 L352.9488,42.2625 C352.9488,40.4409 351.2169,38.9570851 349.1055,38.9570851 C321.3468,38.9570851 293.5812,39.2886 265.8225,38.9570851 C261.51,38.9022 256.8456,46.1196 256.920586,48.6795 Z" id="路径" stroke="none" fill="#0A090F" fill-rule="evenodd"></path>
                    <path d="M349.1055,38.9505 L265.8225,38.9505 C263.7042,38.9505 261.9792,40.4409 261.9792,42.2556 L261.9792,75.7965 C261.9792,77.6181 264.2493,78.384 265.9467,77.2938 L275.793,70.9803 L349.1055,71.0355 C351.2238,71.0355 352.9488,69.5451 352.9488,67.7304 L352.9488,42.2625 C352.9488,40.4409 351.21,38.9505 349.1055,38.9505 Z" id="路径" stroke="#0A090F" stroke-width="1.42" fill="#FFA100" fill-rule="evenodd"></path>
                    <path d="M342.3228,46.989 L272.6328,46.989 C271.884153,47.007722 271.2873,47.6201193 271.2873,48.369 L271.2873,48.369 C271.321956,49.0781947 271.889105,49.6453442 272.5983,49.68 L342.2883,49.68 C343.023743,49.6618327 343.615633,49.0699426 343.6338,48.3345 L343.6338,48.3345 C343.616623,47.6118692 343.044741,47.0249376 342.3228,46.989 Z" id="路径" stroke="none" fill="#FFFFFF" fill-rule="evenodd"></path>
                    <path d="M342.3228,54.9585 L272.6328,54.9585 C271.897357,54.9766673 271.305467,55.5685574 271.2873,56.304 L271.2873,56.304 C271.2873,57.0528807 271.884153,57.665278 272.6328,57.684 L342.3228,57.684 C343.071447,57.665278 343.6683,57.0528807 343.6683,56.304 L343.6683,56.304 C343.650133,55.5685574 343.058243,54.9766673 342.3228,54.9585 L342.3228,54.9585 Z" id="路径" stroke="none" fill="#FFFFFF" fill-rule="evenodd"></path>
                    <path d="M306.4497,62.928 L272.5983,62.928 C271.849653,62.946722 271.2528,63.5591193 271.2528,64.308 L271.2528,64.308 C271.270967,65.0434426 271.862857,65.6353327 272.5983,65.6535 L306.4428,65.6535 C307.178243,65.6353327 307.770133,65.0434426 307.7883,64.308 L307.7883,64.308 C307.7883,63.5617263 307.195638,62.9503881 306.4497,62.928 L306.4497,62.928 Z" id="路径" stroke="none" fill="#FFFFFF" fill-rule="evenodd"></path>
                    <path d="M297.5073,91.5423 L297.5073,119.7426 L297.5073,119.7426 L297.5073,119.9082 L297.5073,119.991 L297.5073,120.0738 L297.5073,120.1566 L297.5073,120.2394 L297.5073,120.3222 L297.5073,120.3222 L297.5073,120.3981 L297.5073,120.474 L297.5073,120.5499 L297.5073,120.5499 L297.5073,120.6258 L297.5073,120.7017 L297.5073,120.7776 L297.5073,120.7776 L297.5073,120.8535 L297.5073,120.9294 L297.5073,120.9984 L297.5073,120.9984 L297.5073,121.0674 L297.5073,121.0674 L297.5763,121.2054 L297.6177,121.2744 L297.6177,121.2744 L297.6591,121.3434 L297.6591,121.3434 L297.7005,121.4055 L297.7005,121.4055 L297.7419,121.4676 L297.7833,121.5297 L297.7833,121.5297 L297.8247,121.5918 L297.873,121.6539 L297.9213,121.716 L297.9696,121.7712 L298.0179,121.8264 L298.0179,121.8264 L298.0662,121.8816 L298.0662,121.8816 L298.1214,121.9368 L298.1766,121.992 L298.1766,121.992 L298.2318,122.0403 L298.287,122.0886 L298.287,122.0886 L298.3422,122.1369 L298.3974,122.1852 L298.3974,122.1852 L298.4595,122.2335 L298.4595,122.2335 L298.5216,122.2749 L298.5837,122.3163 L298.5837,122.3163 L298.6458,122.3577 L298.7079,122.3991 L298.77,122.4336 L298.77,122.4336 L298.8321,122.4681 L298.8942,122.4681 L298.9632,122.4681 L298.9632,122.4681 L299.0322,122.4681 L299.0322,122.4681 L299.1012,122.4681 L299.1012,122.4681 L299.1702,122.4681 L299.1702,122.4681 L299.2392,122.4681 L299.3082,122.4681 L299.3772,122.4681 L299.3772,122.4681 L299.4462,122.4681 L299.5152,122.4681 L299.5152,122.4681 L299.5911,122.4681 L299.5911,122.4681 L299.667,122.4681 L299.7429,122.4681 L300.1224,122.4681 L356.9163,122.4129 L364.9134,129.03 C365.350612,129.458665 365.976847,129.633654 366.572942,129.493726 C367.169036,129.353798 367.651996,128.918434 367.8528,128.34 L368.3703,128.2641 L363.7749,134.9916 C362.7123,136.551 362.0154,137.5791 360.7044,136.4889 L353.0799,130.1754 L296.286,130.2306 C294.555286,130.130398 293.226763,128.657337 293.3052,126.9255 L293.3052,101.4714 C293.2983,100.8297 296.9622,93.7434 297.5073,91.5423 Z" id="路径" stroke="none" fill="#0A090F" fill-rule="evenodd"></path>
                    <path d="M300.4881,90.7143 L365.01,90.7143 C366.740714,90.8145019 368.069237,92.2875629 367.9908,94.0194 L367.9908,127.5603 C368.065936,128.31847 367.661296,129.04331 366.976495,129.377247 C366.291693,129.711184 365.471409,129.583666 364.9203,129.0576 L357.2958,122.7441 L300.5019,122.7993 C298.771186,122.699098 297.442663,121.226037 297.5211,119.4942 L297.5211,94.0194 C297.44244,92.292624 298.762874,90.8217216 300.4881,90.7143 L300.4881,90.7143 Z" id="路径" stroke="#000000" stroke-width="1.42" fill="none"></path>
                    <path d="M306.0426,98.7528 L359.4486,98.7528 C360.197247,98.771522 360.7941,99.3839193 360.7941,100.1328 L360.7941,100.1328 C360.775933,100.868243 360.184043,101.460133 359.4486,101.4783 L306.0426,101.4783 C305.307157,101.460133 304.715267,100.868243 304.6971,100.1328 L304.6971,100.1328 C304.6971,99.3839193 305.293953,98.771522 306.0426,98.7528 Z" id="路径" stroke="none" fill="#355DA8" fill-rule="evenodd"></path>
                    <path d="M306.0426,106.7223 L359.4486,106.7223 C360.184043,106.740467 360.775933,107.332357 360.7941,108.0678 L360.7941,108.0678 C360.7941,108.816681 360.197247,109.429078 359.4486,109.4478 L306.0426,109.4478 C305.293953,109.429078 304.6971,108.816681 304.6971,108.0678 L304.6971,108.0678 C304.715267,107.332357 305.307157,106.740467 306.0426,106.7223 Z" id="路径" stroke="none" fill="#FC151E" fill-rule="evenodd"></path>
                    <path d="M333.8358,114.6918 L359.4486,114.6918 C360.197247,114.710522 360.7941,115.322919 360.7941,116.0718 L360.7941,116.0718 C360.775933,116.807243 360.184043,117.399133 359.4486,117.4173 L333.8358,117.4173 C333.100357,117.399133 332.508467,116.807243 332.4903,116.0718 L332.4903,116.0718 C332.4903,115.322919 333.087153,114.710522 333.8358,114.6918 L333.8358,114.6918 Z" id="路径" stroke="none" fill="#FFA100" fill-rule="evenodd"></path>
                    <path d="M308.0781,148.0809 L310.8381,145.4934 C310.619004,145.902977 310.505189,146.360607 310.5069,146.8251 L310.5069,157.5201 C310.510693,159.08094 311.77506,160.345307 313.3359,160.3491 L347.9394,160.3491 C348.354597,160.349479 348.764687,160.257562 349.14,160.08 L349.14,160.08 L346.7043,162.5709 C345.6141,163.6818 344.4756,165.117 342.9162,165.117 L308.3403,165.117 C306.77946,165.113207 305.515093,163.84884 305.511275,162.288 L305.511275,151.593 C305.5044,150.0267 306.9465,149.1504 308.0781,148.0809 Z" id="路径" stroke="none" fill="#0A090F" fill-rule="evenodd"></path>
                    <rect id="矩形" stroke="none" fill="#FFFFFF" fill-rule="nonzero" x="310.4724" y="143.9892" width="40.2615" height="16.353" rx="4.1"></rect>
                    <circle id="椭圆形" stroke="none" fill="#FC151E" fill-rule="nonzero" cx="322.092" cy="151.7931" r="3.105"></circle>
                    <circle id="椭圆形" stroke="none" fill="#FC151E" fill-rule="nonzero" cx="331.2" cy="151.7931" r="3.105"></circle>
                    <circle id="椭圆形" stroke="none" fill="#FC151E" fill-rule="nonzero" cx="340.2045" cy="151.7931" r="3.105"></circle>
                    <rect id="矩形" stroke="none" fill="#0A0910" fill-rule="nonzero" x="57.6357" y="64.4391" width="46.782" height="30.222" rx="1.65"></rect>
                    <path d="M61.2927,64.4391 L63.5628,64.4391 L62.6244,65.3775 C62.469038,65.5334023 62.2579974,65.6210329 62.0379,65.6210329 C61.8178026,65.6210329 61.606762,65.5334023 61.4514,65.3775 L61.4514,65.3775 C61.203704,65.1309875 61.1374423,64.7555043 61.2858,64.4391 L61.2927,64.4391 Z M88.9686,77.418 L103.2861,91.77 C103.442002,91.925362 103.529633,92.1364026 103.529633,92.3565 C103.529633,92.5765974 103.442002,92.787638 103.2861,92.943 L103.2861,92.943 C103.130738,93.0989023 102.919697,93.1865329 102.6996,93.1865329 C102.479503,93.1865329 102.268462,93.0989023 102.1131,92.943 L87.8025,78.591 L88.9755,77.418 L88.9686,77.418 Z M74.2854,78.5565 L59.9403,92.9085 C59.784938,93.0644023 59.5738974,93.1520329 59.3538,93.1520329 C59.1337026,93.1520329 58.922662,93.0644023 58.7673,92.9085 L58.7673,92.9085 C58.6113977,92.753138 58.5237671,92.5420974 58.5237671,92.322 C58.5237671,92.1019026 58.6113977,91.890862 58.7673,91.7355 L73.14,77.3904 L74.313,78.5634 L74.2854,78.5565 Z M65.895,64.4391 L63.825,66.5091 C63.6690977,66.664462 63.5814671,66.8755026 63.5814671,67.0956 C63.5814671,67.3156974 63.6690977,67.526738 63.825,67.6821 L63.825,67.6821 C63.980362,67.8380023 64.1914026,67.9256329 64.4115,67.9256329 C64.6315974,67.9256329 64.842638,67.8380023 64.998,67.6821 L68.2686,64.4115 L65.895,64.4391 Z M70.5663,64.4391 L72.9054,64.4391 L67.3095,70.035 C67.154138,70.1909023 66.9430974,70.2785329 66.723,70.2785329 C66.5029026,70.2785329 66.291862,70.1909023 66.1365,70.035 L66.1365,70.035 C65.9805977,69.879638 65.8929671,69.6685974 65.8929671,69.4485 C65.8929671,69.2284026 65.9805977,69.017362 66.1365,68.862 L70.5594,64.4391 L70.5663,64.4391 Z M75.2376,64.4391 L77.5767,64.4391 L69.6486,72.3672 C69.493238,72.5231023 69.2821974,72.6107329 69.0621,72.6107329 C68.8420026,72.6107329 68.630962,72.5231023 68.4756,72.3672 L68.4756,72.3672 C68.3196977,72.211838 68.2320671,72.0007974 68.2320671,71.7807 C68.2320671,71.5606026 68.3196977,71.349562 68.4756,71.1942 L75.21,64.4391 L75.2376,64.4391 Z M79.9089,64.4391 L70.8285,73.5195 C70.6725977,73.674862 70.5849671,73.8859026 70.5849671,74.106 C70.5849671,74.3260974 70.6725977,74.537138 70.8285,74.6925 L70.8285,74.6925 C70.983862,74.8484023 71.1949026,74.9360329 71.415,74.9360329 C71.6350974,74.9360329 71.846138,74.8484023 72.0015,74.6925 L82.248,64.4391 L79.9089,64.4391 Z M84.5802,64.4391 L73.14,75.8517 C72.9840977,76.007062 72.8964671,76.2181026 72.8964671,76.4382 C72.8964671,76.6582974 72.9840977,76.869338 73.14,77.0247 L73.14,77.0247 C73.295362,77.1806023 73.5064026,77.2682329 73.7265,77.2682329 C73.9465974,77.2682329 74.157638,77.1806023 74.313,77.0247 L86.94,64.4391 L84.5802,64.4391 Z M89.2515,64.4391 L75.5067,78.177 C75.3507977,78.332362 75.2631671,78.5434026 75.2631671,78.7635 C75.2631671,78.9835974 75.3507977,79.194638 75.5067,79.35 L75.5067,79.35 C75.662062,79.5059023 75.8731026,79.5935329 76.0932,79.5935329 C76.3132974,79.5935329 76.524338,79.5059023 76.6797,79.35 L91.5906,64.4391 L89.2515,64.4391 Z M93.9228,64.4391 L77.8527,80.5092 C77.6967977,80.664562 77.6091671,80.8756026 77.6091671,81.0957 C77.6091671,81.3157974 77.6967977,81.526838 77.8527,81.6822 L77.8527,81.6822 C78.008062,81.8381023 78.2191026,81.9257329 78.4392,81.9257329 C78.6592974,81.9257329 78.870338,81.8381023 79.0257,81.6822 L96.2757,64.4322 L93.9228,64.4391 Z M98.5941,64.4391 L80.1987,82.8345 C80.0427977,82.989862 79.9551671,83.2009026 79.9551671,83.421 C79.9551671,83.6410974 80.0427977,83.852138 80.1987,84.0075 L80.1987,84.0075 C80.354062,84.1634023 80.5651026,84.2510329 80.7852,84.2510329 C81.0052974,84.2510329 81.216338,84.1634023 81.3717,84.0075 L100.9401,64.4391 L98.5941,64.4391 Z" id="形状" stroke="none" fill="#E5E5E5" fill-rule="evenodd"></path>
                    <path d="M99.2979,77.28 C104.632971,77.28 108.9579,72.9550707 108.9579,67.62 C108.9579,62.2849293 104.632971,57.96 99.2979,57.96 C93.9628293,57.96 89.6379,62.2849293 89.6379,67.62 C89.6568246,72.9472122 93.9706878,77.2610754 99.2979,77.28 Z" id="路径" stroke="none" fill="#FC151E" fill-rule="evenodd"></path>
                    <text id="5" stroke="none" fill="#FFFFFF" fill-rule="nonzero" font-family="Helvetica" font-size="18" font-weight="normal">
                        <tspan x="96.5517" y="77.7333">5</tspan>
                    </text>
                    <rect id="矩形" stroke="none" fill="#FF0000" fill-rule="nonzero" x="180.1383" y="219.8547" width="96.876" height="5.3544" rx="2.36"></rect>
                    <path d="M204.8817,158.7 L209.0217,158.7 C207.058451,158.75482 205.416369,160.20799 205.1232,162.15 L198.0714,216.9705 C197.932044,217.843436 198.187332,218.733197 198.768311,219.399456 C199.349289,220.065716 200.19602,220.439739 201.0798,220.4205 L196.9398,220.4205 C196.05602,220.439739 195.209289,220.065716 194.628311,219.399456 C194.047332,218.733197 193.792044,217.843436 193.9314,216.9705 L200.9832,162.15 C201.276369,160.20799 202.918451,158.75482 204.8817,158.7 Z" id="路径" stroke="none" fill="#FF0000" fill-rule="evenodd"></path>
                    <path d="M208.656,158.7 L287.868,158.7 C288.75178,158.680761 289.598511,159.054784 290.179489,159.721044 C290.760468,160.387303 291.015756,161.277064 290.8764,162.15 L283.8246,216.9705 C283.531431,218.91251 281.889349,220.36568 279.9261,220.4205 L200.7141,220.4205 C199.83032,220.439739 198.983589,220.065716 198.402611,219.399456 C197.821632,218.733197 197.566344,217.843436 197.7057,216.9705 L204.7575,162.15 C205.050669,160.20799 206.692751,158.75482 208.656,158.7 Z" id="路径" stroke="none" fill="#FC151E" fill-rule="evenodd"></path>
                    <path d="M244.26,197.4366 C247.4415,197.4366 250.309729,195.520111 251.527236,192.580788 C252.744744,189.641465 252.071762,186.258158 249.822102,184.008498 C247.572442,181.758838 244.189135,181.085856 241.249812,182.303364 C238.310489,183.520871 236.394,186.3891 236.394,189.5706 C236.401596,193.911722 239.918878,197.429004 244.26,197.4366 Z" id="路径" stroke="none" fill="#E5E5E5" fill-rule="evenodd"></path>
                    <polyline id="路径" stroke="#0A0910" stroke-width="1.42" fill="none" stroke-linecap="round" stroke-linejoin="round" points="166.2693 93.3846 167.7528 97.773 165.5517 97.4832"></polyline>
                    <path d="M169.7745,103.5966 C168.128121,104.693981 165.963285,104.610504 164.4063,103.3896" id="路径" stroke="#0A0910" stroke-width="1.42" fill="none" stroke-linecap="round" stroke-linejoin="round"></path>
                    <ellipse id="椭圆形" stroke="none" fill="#0A0910" fill-rule="nonzero" transform="translate(171.932912, 94.651066) rotate(-12.370000) translate(-171.932912, -94.651066) " cx="171.932912" cy="94.6510662" rx="1" ry="1.6974"></ellipse>
                    <ellipse id="椭圆形" stroke="none" fill="#0A0910" fill-rule="nonzero" transform="translate(159.902475, 95.328075) rotate(-12.370000) translate(-159.902475, -95.328075) " cx="159.902475" cy="95.3280746" rx="1" ry="1.6974"></ellipse>
                    <path d="M163.254,90.1071 C161.3979,88.8444 158.9346,89.0652 156.354,90.4107" id="路径" stroke="#0A0910" stroke-width="3.41" fill="none" stroke-linecap="round" stroke-linejoin="round"></path>
                    <path d="M175.5567,89.4792 C173.7006,88.2165 171.2373,88.4373 168.6567,89.7828" id="路径" stroke="#0A0910" stroke-width="3.41" fill="none" stroke-linecap="round" stroke-linejoin="round"></path>
                    <path d="M204.93,79.8192 C204.9714,86.8227 208.7388,88.0992 212.2647,88.1751 C205.9305,89.4516 205.3647,90.4866 204.7575,97.5315 C204.6195,92.3634 203.9295,88.6788 196.857,87.5265 C198.2163,87.5472 205.3026,89.3826 204.93,79.8192 Z" id="路径" stroke="none" fill="#FC151E" fill-rule="evenodd"></path>
                    <path d="M227.6586,94.4472 C227.6586,99.5739 230.4186,100.4847 233.0268,100.5675 C228.39,101.499 227.9691,102.258 227.5068,107.4123 C227.4033,103.6311 226.8996,100.9332 221.7246,100.0914 C222.7527,100.1121 227.9415,101.43 227.6586,94.4472 Z" id="路径" stroke="none" fill="#FFAB15" fill-rule="evenodd"></path>
                    <path d="M223.7118,48.7692 C223.7739,59.5125 229.5561,61.4238 234.9726,61.5963 C225.2505,63.5559 224.3673,65.1429 223.4565,75.9483 C223.2426,68.0202 222.1938,62.3691 211.3263,60.5958 C213.4377,60.6372 224.319,63.48 223.7118,48.7692 Z" id="路径" stroke="none" fill="#355DA8" fill-rule="evenodd"></path>
                </g>
            </g>
        </g>
    </g>
</svg>