<?xml version="1.0" encoding="UTF-8"?>
<svg width="89px" height="89px" viewBox="0 0 89 89" version="1.1" xmlns="http://www.w3.org/2000/svg" xmlns:xlink="http://www.w3.org/1999/xlink">
    <title>成功</title>
    <g id="TabBar" stroke="none" stroke-width="1" fill="none" fill-rule="evenodd">
        <g id="成功" fill="#006FF9" fill-rule="nonzero">
            <rect id="矩形" opacity="0" x="0" y="0" width="89" height="89"></rect>
            <path d="M43.9999108,83 C22.4605711,83 5,65.538608 5,43.9996434 C5,22.4613029 22.4606602,5 43.9999108,5 C65.5392506,5 83,22.4613028 83,43.9996434 C83,65.538608 65.5392506,83 43.9999108,83 Z M67.8294407,30.2870651 L66.5760807,29.0337166 C65.8836126,28.3412548 64.7618287,28.3412548 64.0693607,29.0337166 L38.0723024,54.4912229 L28.5284917,44.5033006 C28.2150625,44.1899635 27.3996654,44.4980412 26.7071082,45.1905028 L25.4537482,46.4440297 C24.7612801,47.1364915 24.4549825,47.9518811 24.7682333,48.2643269 L37.5028526,61.589936 C37.8144098,61.9033623 38.6298069,61.5942149 39.3223641,60.9027337 L40.5740304,59.6492961 C40.7955525,59.4294698 40.9583288,59.2017989 41.0932923,58.9776047 L67.8295299,32.794743 C68.5220871,32.1030834 68.5220871,30.9795269 67.8294407,30.2870651 Z" id="形状"></path>
        </g>
    </g>
</svg>