<?xml version="1.0" encoding="UTF-8"?>
<svg width="12px" height="23px" viewBox="0 0 12 23" version="1.1" xmlns="http://www.w3.org/2000/svg" xmlns:xlink="http://www.w3.org/1999/xlink">
    <title>路径备份</title>
    <g id="界面" stroke="none" stroke-width="1" fill="none" fill-rule="evenodd">
        <path d="M17,15.7777667 C17,16.1086113 16.864324,16.3954066 16.5930073,16.6382584 C16.3216553,16.8810749 15.9989837,17.0016381 15.6249923,17 L-3.62500926,17 C-3.99716526,17 -4.31983692,16.87942 -4.59298895,16.6382583 C-4.86614101,16.3970615 -5.001817,16.1102662 -5,15.7777667 C-4.99814626,15.4453728 -4.86247027,15.1585071 -4.59298895,14.9173455 L5.03199418,6.36176001 C5.30334615,6.12056322 5.62598253,6 6,6 C6.37400053,6 6.6966369,6.12059842 6.96798888,6.36176001 L16.592972,14.9173455 C16.864324,15.1585071 17,15.4453729 17,15.7777667 Z" id="路径备份" fill="#EA1D29" fill-rule="nonzero" transform="translate(6.000000, 11.500000) rotate(90.000000) translate(-6.000000, -11.500000) "></path>
    </g>
</svg>