<?xml version="1.0" encoding="UTF-8"?>
<svg width="179px" height="128px" viewBox="0 0 179 128" version="1.1" xmlns="http://www.w3.org/2000/svg" xmlns:xlink="http://www.w3.org/1999/xlink">
    <title>undraw_Share_re_9kfx</title>
    <g id="界面" stroke="none" stroke-width="1" fill="none" fill-rule="evenodd">
        <g id="undraw_Share_re_9kfx" fill-rule="nonzero">
            <circle id="椭圆形" fill="#FF6584" cx="13.5" cy="10.5" r="7.5"></circle>
            <path d="M61.1956034,122.983923 C67.1495418,125.417184 73.4710273,126.860452 79.9032436,127.255093 C82.9168579,127.440289 85.9872891,127.449398 88.9852368,127.056583 C91.6122126,126.71237 94.280575,126.006125 96.470292,124.478212 C98.659028,122.924587 100.199854,120.638321 100.805149,118.046182 C101.474774,115.313993 101.192961,112.451517 100.236553,109.820003 C99.2494995,107.095694 97.6889597,104.608399 95.6575785,102.52172 C93.8365918,100.683101 91.2857512,99.0105747 88.5582025,99.3253853 C85.9363872,99.6279916 84.0296296,101.718847 83.3313376,104.137801 C82.4941392,107.037943 83.4573604,110.105821 84.7635626,112.716756 C86.9792122,117.145562 90.5350032,120.863032 94.7461377,123.506245 C98.9824657,126.181648 103.852693,127.721232 108.876287,127.973092 C113.909898,128.196659 119.32378,127.045286 123.289869,123.836926 C125.378665,122.162385 126.870211,119.873056 127.546785,117.303118 C128.251045,114.590791 128.066821,111.726356 127.457384,109.015117 C126.134333,103.129177 122.639637,98.0696811 120.616098,92.4356612 C120.114449,91.060885 119.728195,89.6477587 119.461239,88.2105548 C119.394665,87.8418499 118.825112,87.9980903 118.891448,88.3655167 C119.937832,94.1613167 123.249574,99.1515816 125.423384,104.549014 C127.403522,109.465564 128.582178,115.501511 125.648843,120.302008 C123.010093,124.620388 117.769718,126.725185 112.882417,127.262544 C108.103646,127.787962 103.211312,126.94329 98.8303592,125.011959 C94.4210039,123.068107 90.4694627,120.040036 87.6026807,116.192993 C86.0444979,114.102007 84.7021879,111.733592 84.0139747,109.217473 C83.3094803,106.641822 83.4747013,103.724284 85.3381953,101.644032 C86.16085,100.697209 87.3061114,100.079862 88.5581966,99.9083073 C89.859055,99.7477008 91.1617709,100.107211 92.3050526,100.706659 C94.7598407,101.993749 96.5865217,104.23078 97.996005,106.544244 C99.452187,108.934354 100.47816,111.643489 100.579975,114.451944 C100.674635,117.062981 99.9801466,119.740022 98.3890232,121.853613 C95.1040231,126.217278 88.9300744,126.746984 83.863142,126.780468 C77.6527731,126.818387 71.4768601,125.867861 65.5733515,123.965511 C64.1465057,123.505635 62.7396158,122.991076 61.3526819,122.421834 C61.0018361,122.278175 60.8488309,122.841938 61.1955975,122.983926 L61.1956034,122.983923 Z" id="路径" fill="#E6E6E6"></path>
            <path d="M44.8183257,104.396132 L43.2099497,101.864643 C42.819618,101.248762 42.9891642,100.425144 43.5889514,100.023537 L53.3860313,92.2152655 C53.9867034,91.8150508 54.7899829,91.9888898 55.1816731,92.6038633 L56.790051,95.1353545 C57.1803822,95.7512351 57.010835,96.5748527 56.4110473,96.9764587 L46.6139775,104.78473 C46.0133033,105.184951 45.2100163,105.011112 44.8183257,104.396132 L44.8183257,104.396132 Z" id="路径" fill="#2F2E41"></path>
            <path d="M43.6714542,99.4436624 L46.2469223,98.1460811 C46.8734298,97.8312796 47.6589368,98.042028 48.0028358,98.6171856 L54.841074,109.942339 C55.1835558,110.518211 54.9542767,111.240232 54.3285458,111.556337 L51.7530777,112.853919 C51.1265696,113.16872 50.341062,112.957972 49.9971622,112.382814 L43.158926,101.057661 C42.8164442,100.481788 43.0457233,99.7597675 43.6714542,99.4436624 L43.6714542,99.4436624 Z" id="路径" fill="#2F2E41"></path>
            <path d="M24.5320481,77 C23.8289918,76.9989573 23.2471048,76.472257 23.2011359,75.7953126 L23.002906,72.8748054 C22.954683,72.1644637 23.5123643,71.5508946 24.2485277,71.5043542 L47.9611933,70.0059008 C48.978082,69.9416448 49.9532522,70.4057443 50.5193667,71.2233773 C51.0854812,72.0410103 51.1565338,73.087959 50.7057595,73.9698479 C50.2549853,74.8517368 49.3508676,75.434586 48.3339788,75.4988418 L24.6213625,76.9971981 C24.5915055,76.9990343 24.561734,77 24.5320481,77 Z" id="路径" fill="#F50004"></path>
            <path d="M30.4139526,77 C29.7392313,76.9989382 29.1856961,76.4973781 29.1597185,75.8635343 L29.000877,71.868522 C28.9884387,71.5556664 29.1087175,71.250981 29.3352502,71.0215014 C29.5617828,70.7920219 29.8760102,70.6565488 30.2087971,70.6448883 L48.5386012,70.0008371 C49.2315979,69.9765218 49.8143634,70.4849242 49.8402796,71.1364165 L49.999123,75.1314288 C50.0115613,75.4442844 49.8912825,75.7489699 49.6647498,75.9784494 C49.4382172,76.2079289 49.1239898,76.3434021 48.7912029,76.3550625 L30.4614065,76.9991138 C30.4455506,76.9997276 30.4296579,77 30.4139526,77 Z" id="路径" fill="#CCCCCC"></path>
            <path d="M61,124 L61,114.383358 C61,105.988768 57.3835006,97.9382289 50.9305875,92.6690392 C46.1074193,88.7306463 39.1214435,85.7855961 29.11363,86.4437024 L32.9261275,71 L0,93.8145587 L32.2329784,116.629134 L28.9403417,102.062898 C28.9403417,102.062898 49.0426048,98.2019847 61,124 Z" id="路径" fill="#3F3D56"></path>
            <path d="M37.8541947,108.754333 L35.5225002,107.035142 C34.9561108,106.616541 34.8307459,105.812018 35.2422612,105.236721 L49.3723168,85.5298459 C49.7851139,84.9554937 50.5784836,84.8283664 51.1458049,85.2456671 L53.4775013,86.9648583 C54.0438888,87.38346 54.1692534,88.1879817 53.7577403,88.7632795 L39.6276827,108.470154 C39.2148857,109.044506 38.421516,109.171634 37.8541947,108.754333 L37.8541947,108.754333 Z" id="路径" fill="#2F2E41"></path>
            <path d="M35.3020127,104.712946 L37.1706887,102.458461 C37.6255845,101.910904 38.4267022,101.844407 38.961497,102.309816 L49.5530839,111.449977 C50.0868521,111.916626 50.1516746,112.738441 49.6979874,113.287054 L47.8293114,115.541539 C47.3744156,116.089096 46.5732978,116.155593 46.0385031,115.690184 L35.4469142,106.550023 C34.9131476,106.083373 34.848326,105.261559 35.3020127,104.712946 Z" id="路径" fill="#2F2E41"></path>
            <circle id="椭圆形" fill="#F50004" cx="47.5" cy="54.5" r="10.5"></circle>
            <path d="M43.8643723,59.9994358 C43.5295466,60.0071422 43.1971033,59.9358283 42.8893979,59.7902895 C42.4688821,59.570565 42.1579777,59.157582 42.0398992,58.6618768 C41.9498166,58.310446 42.0141594,57.9328561 42.2138143,57.641271 C42.4721474,57.2763556 42.9181869,57.1027592 43.4430082,57.1471726 L42.1440218,53.1436708 L42.5092759,53 L44.0363887,57.706533 L43.692063,57.6205184 C43.2929075,57.5211585 42.7751863,57.5429488 42.5197838,57.9037944 C42.394429,58.0926166 42.3562248,58.3349984 42.4164661,58.5592798 C42.5061779,58.9277111 42.7370463,59.2349407 43.0489612,59.4009767 C43.5887938,59.6693422 44.2207206,59.5738407 44.9308688,59.4321514 L45,59.852323 C44.6262086,59.9386081 44.2461462,59.9878426 43.8643723,59.9994358 L43.8643723,59.9994358 Z" id="路径" fill="#2F2E41"></path>
            <polygon id="矩形" fill="#2F2E41" transform="translate(39.014992, 54.026612) rotate(-11.864160) translate(-39.014992, -54.026612) " points="37.9508958 53.8290981 40.0791938 53.8285251 40.0790874 54.2241256 37.9507894 54.2246987"></polygon>
            <polygon id="矩形" fill="#2F2E41" transform="translate(45.588885, 52.643498) rotate(-11.864160) translate(-45.588885, -52.643498) " points="44.524789 52.4459845 46.653087 52.4454114 46.6529806 52.8410119 44.5246826 52.841585"></polygon>
            <path d="M56.2669903,98 L38.7330097,98 C37.7763378,97.9989518 37.0010686,97.2384496 37,96.3 L40.670749,68.6871104 C40.6768363,67.7531223 41.4507695,66.9993191 42.4029126,67 L48.6254369,67 C53.8004431,67.0057318 57.9941574,71.1195657 58,76.1960003 L58,96.3 C57.9989314,97.2384496 57.2236622,97.9989518 56.2669903,98 Z" id="路径" fill="#CCCCCC"></path>
            <path d="M29.5314882,86 C29.0144684,86.0002534 28.5454112,85.7176076 28.3332908,85.2779866 L27.1148573,82.7454725 C26.9725302,82.4496856 26.9620655,82.1132951 27.0857657,81.8103138 C27.2094659,81.5073325 27.4571963,81.2625833 27.7744512,81.1299162 L49.0541015,72.2292973 C50.4647291,71.639275 52.1212632,72.2271846 52.754074,73.5424301 C53.3868849,74.8576757 52.7563399,76.4022005 51.3457124,76.9922228 L30.0661064,85.8929338 C29.8980213,85.9634579 29.715808,86 29.5314882,86 Z" id="路径" fill="#F50004"></path>
            <path d="M35.3669604,86 C34.8540732,86.0002675 34.3887694,85.6991289 34.1783606,85.2307534 L32.1137541,80.622129 C31.820677,79.9658614 32.1133887,79.1958782 32.7680889,78.9008897 L50.1024888,71.1141249 C50.4171962,70.9727209 50.7751134,70.962309 51.0974878,71.0851803 C51.4198621,71.2080516 51.6802809,71.4541389 51.8214439,71.7692955 L53.8860564,76.3778236 C54.0272504,76.6929592 54.0376326,77.0513553 53.9149186,77.3741567 C53.7922046,77.696958 53.5464482,77.9577178 53.2317216,78.099063 L35.8973257,85.885928 C35.7305629,85.9610213 35.5498089,86 35.3669604,86 L35.3669604,86 Z" id="路径" fill="#CCCCCC"></path>
            <path d="M45.4469904,49.4537253 C43.7905439,48.8582517 42.4289893,50.4271094 40.9280787,50.7862647 C39.4921304,51.1298849 37.945148,50.3214894 37.1781628,49.1432625 C36.2833475,47.768665 36.5050346,45.9840334 37.319027,44.6270581 C38.210547,43.1408368 39.7981752,42.2288908 41.4808751,41.8305528 C43.409467,41.3740084 45.4189117,41.5985409 47.3223094,42.0622182 C49.1479339,42.4794225 50.9179629,43.1013795 52.5970853,43.9156817 C54.1150494,44.6824281 55.55394,45.7313818 56.4411273,47.1842102 C57.2473979,48.5045298 57.6462504,50.1478669 57.2473161,51.6606381 C57.0276295,52.4415454 56.6054391,53.1540227 56.0214732,53.7293383 C55.4205783,54.3500945 54.7321281,54.8882046 54.1718092,55.5466659 C53.3245995,56.5422665 52.7552543,58.1739425 53.590571,59.3516379 C53.7716672,59.6094072 54.0149231,59.8197717 54.2989213,59.96421 C54.6400904,60.1376164 54.9430393,59.6337811 54.6009646,59.4599172 C54.0001694,59.1545491 53.7821029,58.5347779 53.7982607,57.9029153 C53.8305564,57.1857697 54.111471,56.5005913 54.5949802,55.9596377 C55.1818716,55.2713578 55.9073771,54.7141441 56.5270609,54.0561968 C57.1265441,53.4429955 57.5653421,52.6975177 57.8061069,51.8832141 C58.246473,50.3081988 57.9021063,48.5927729 57.1226497,47.1738086 C56.2791603,45.6382796 54.8653063,44.4788409 53.3266362,43.6361881 C51.6521289,42.7191435 49.7910926,42.1045488 47.9433676,41.6164959 C45.9607448,41.0928153 43.8788692,40.7979111 41.8386569,41.160337 C40.0701191,41.4745006 38.3416746,42.3077349 37.2294629,43.7175436 C36.1912839,45.0335083 35.6953489,46.8271592 36.197358,48.4465063 C36.6826122,49.9393918 37.9563255,51.0600291 39.5279807,51.3768519 C40.3128129,51.517725 41.1231582,51.414562 41.8446971,51.0819165 C42.6220512,50.7419504 43.3281434,50.2134632 44.1548984,49.9874629 C44.525799,49.8767838 44.9235599,49.8871168 45.2879018,50.0168961 C45.6498148,50.1469986 45.8059311,49.5827668 45.4469904,49.4537272 L45.4469904,49.4537253 Z" id="路径" fill="#2F2E41"></path>
            <path d="M118,89 L118,79.3833556 C118,70.9887737 121.616498,62.9382149 128.069409,57.6690401 C132.892567,53.7306483 139.878545,50.7855934 149.886351,51.443708 L146.073854,36 L179,58.81457 L146.767023,81.629142 L150.059639,67.0629134 C150.059639,67.0629134 129.957379,63.2019889 118,89 Z" id="路径" fill="#3F3D56"></path>
            <path d="M135.061957,41.4609392 C134.163475,40.843888 133.790262,39.8270142 134.11635,38.884492 C134.442439,37.9419698 135.403609,37.2594166 136.551663,37.155111 L160.199005,35.0063867 C160.932842,34.9404574 161.590927,35.3924285 161.670131,36.0167518 L161.567901,36.0260679 L161.670131,36.0167518 L161.992434,38.5853279 C162.030092,38.8853359 161.926151,39.1857858 161.703479,39.4205741 C161.480807,39.6553624 161.157647,39.805254 160.805099,39.8372705 L137.157757,41.985986 C137.055275,41.9953213 136.95228,42 136.849213,42 C136.198384,42.0003507 135.567259,41.809995 135.061957,41.4609392 Z" id="路径" fill="#F50004"></path>
            <path d="M143,61.5950644 L143,58.4049356 C143.000836,57.629375 143.599433,57.0008779 144.338096,57 L169.661904,57 C170.400567,57.0008779 170.999164,57.629375 171,58.4049356 L171,61.5950644 C170.999165,62.3706255 170.400568,62.9991233 169.661904,63 L144.338096,63 C143.599432,62.9991233 143.000835,62.3706255 143,61.5950644 L143,61.5950644 Z" id="路径" fill="#F50004"></path>
            <path d="M132.586612,60.8618024 C132.288286,60.7088541 132.062048,60.4399655 131.95831,60.1150523 L131.063331,57.3370887 C130.846538,56.6615043 131.204237,55.9335567 131.862934,55.7098282 L154.453866,48.0653092 C155.113122,47.8422246 155.824014,48.209097 156.04169,48.8847429 L155.949855,48.9158095 L156.04169,48.8847429 L156.936668,51.6626094 C157.153463,52.3381933 156.795764,53.0661414 156.137067,53.2898699 L133.546135,60.934381 C133.229661,61.0424032 132.884182,61.016269 132.586612,60.8617964 L132.586612,60.8618024 Z" id="路径" fill="#F50004"></path>
            <path d="M160.870004,62.6712099 L150.427101,53.3807698 C149.896855,52.9078915 149.854564,52.1007697 150.33256,51.5764602 L152.301331,49.4219621 C152.780246,48.8980589 153.598879,48.8562997 154.129996,49.3286804 L164.572899,58.6191204 C165.103145,59.0919987 165.145436,59.8991205 164.66744,60.4234301 L162.698667,62.5778318 C162.469312,62.8302591 162.147115,62.9816265 161.803933,62.9981746 C161.781027,62.999422 161.758202,63 161.735459,63 C161.415561,63.0004729 161.106977,62.883241 160.870004,62.6712099 L160.870004,62.6712099 Z" id="路径" fill="#F50004"></path>
            <circle id="椭圆形" fill="#F50004" cx="135.5" cy="18.5" r="10.5"></circle>
            <path d="M123.090642,59.0361097 C121.636453,56.5878998 121.636453,53.5569154 123.090642,51.1087055 L133.911167,32.6409955 C134.143579,32.2443451 134.573085,32 135.037897,32 C135.502709,32 135.932215,32.2443451 136.164627,32.6409955 L152.825728,61.0768746 C153.058108,61.4735341 153.058089,61.9622208 152.825681,62.3588635 C152.593272,62.7555062 152.163778,63 151.698974,63 L130.057876,63 C127.179075,63.0167578 124.515177,61.5012313 123.090642,59.0361097 Z" id="路径" fill="#CCCCCC"></path>
            <path d="M144.012045,22 C144.727694,21.9811258 145.618329,21.957533 146.304488,21.4814725 C146.718032,21.1827689 146.971571,20.7258522 146.997253,20.2330055 C147.022433,19.8821837 146.873435,19.5403619 146.594532,19.3091054 C146.236205,19.0213802 145.712933,18.9540189 145.148858,19.1114317 L145.733174,15.0558168 L145.30424,15 L144.617296,19.7678954 L144.975463,19.6117861 C145.390763,19.4308813 145.960809,19.3389238 146.315065,19.6231312 C146.491364,19.7738029 146.583621,19.993927 146.564572,20.218453 C146.543313,20.5851493 146.355177,20.9249316 146.049122,21.1493826 C145.51512,21.5198275 144.805179,21.5676134 144,21.588996 L144.012045,22 Z" id="路径" fill="#2F2E41"></path>
            <rect id="矩形" fill="#2F2E41" x="140" y="16" width="3" height="1"></rect>
            <path d="M129.417863,7.0736498 C128.850319,4.69459914 127.318832,2.67764741 125.209067,1.53071167 C123.042682,0.388703823 120.490264,0.307469151 118.259024,1.30951581 C115.972126,2.31436763 114.270556,4.35258537 113.654471,6.8250582 C113.341523,8.05228409 113.298214,9.33548859 113.527673,10.5819761 C113.809358,11.9022196 114.355681,13.1479307 115.13193,14.239961 C115.914585,15.4024671 116.834635,16.4574833 117.679369,17.5712859 C118.527304,18.6873931 119.299469,19.861948 119.990408,21.0866511 C122.072053,24.7766459 123.39194,28.8662066 123.868111,33.1013936 C124.029259,34.3805316 124.059758,35.6734335 123.959111,36.9590694 C123.731608,39.4556636 122.788733,41.9009879 120.624532,43.2594481 C119.473925,43.9816799 118.146068,44.3546516 116.832398,44.6155451 C115.357992,44.9359704 113.84902,45.056923 112.343986,44.9753168 C109.799738,44.78985 107.253712,43.7007751 105.776113,41.4828951 C105.449051,40.988995 105.192996,40.4493792 105.015821,39.880645 C104.898136,39.5064053 105.471769,39.3461315 105.588894,39.7185871 C106.371515,42.2073418 108.746627,43.7414318 111.150401,44.2091933 C112.64736,44.4664348 114.175733,44.4649018 115.672199,44.2046578 C117.031616,43.9964568 118.432568,43.7082346 119.678483,43.0928995 C120.810536,42.5513626 121.749565,41.6608712 122.364569,40.545657 C122.920599,39.4690396 123.257231,38.2876193 123.353973,37.0733056 C123.618766,34.414623 123.187507,31.6621706 122.541761,29.0906008 C121.850745,26.3383291 120.790786,23.6977132 119.392202,21.2442813 C118.693618,20.0183994 117.911541,18.8446305 117.051802,17.7317263 C116.200502,16.6308981 115.292332,15.572332 114.524562,14.4061886 C113.766539,13.3061453 113.232574,12.0605943 112.954596,10.7440198 C112.717987,9.48079817 112.739948,8.18091826 113.019086,6.92686459 C113.563931,4.42229441 115.147865,2.28665966 117.355671,1.0798017 C119.496679,-0.0787013482 122.105259,-0.356080617 124.39549,0.497576312 C126.617925,1.33879906 128.426903,3.04571755 129.429297,5.24738538 C129.670336,5.78144463 129.858492,6.33897812 129.990936,6.911598 C130.078454,7.29315096 129.505562,7.45599322 129.417863,7.0736559 L129.417863,7.0736498 Z" id="路径" fill="#2F2E41"></path>
            <path d="M127.437749,7.7887511 C126.703584,5.51624099 124.514049,4.2058706 122.352768,4.74554476 C121.998625,4.83549447 121.847473,4.2433061 122.202382,4.15316186 C124.668326,3.496244 127.185054,5.0079191 127.983242,7.62544055 C128.101897,8.00009176 127.555648,8.16101053 127.437749,7.7887511 L127.437749,7.7887511 Z" id="路径" fill="#2F2E41"></path>
            <path d="M128.072024,9.40979036 C127.879074,8.91516346 128.087113,8.34236682 128.537093,8.12930797 L130.761478,7.07946133 C131.211934,6.8668761 131.734041,7.0955278 131.927637,7.5901692 C132.121232,8.0848106 131.913005,8.65813105 131.462549,8.87071628 L129.238205,9.92056292 C128.787726,10.133113 128.265625,9.90443895 128.072026,9.40979036 L128.072024,9.40979036 Z" id="路径" fill="#2F2E41"></path>
            <path d="M133.903489,64.9955895 L131.127277,64.7501227 C130.452451,64.6895313 129.949971,64.0455376 130.003976,63.3104664 L131.769855,39.6229962 C131.845199,38.6068714 132.412724,37.7117688 133.25854,37.2750385 C134.104355,36.8383082 135.099883,36.9263406 135.869923,37.5059577 C136.639963,38.0855749 137.067458,39.068665 136.99129,40.0847169 L135.225364,63.7720885 C135.173738,64.4648698 134.642976,64.998809 134.004759,65 C133.97117,65 133.937354,64.9984997 133.903489,64.9955895 Z" id="路径" fill="#F50004"></path>
            <path d="M2.8844833,20.5069744 C1.85686695,18.0857265 3.26548539,14.9269013 5.74426332,14.0939208 C8.22304125,13.2609403 11.2307371,14.9356852 11.8504976,17.4939903 C10.7517517,14.792663 11.4634078,11.6866114 13.6260947,9.74432503 C15.7887817,7.80203866 18.9319517,7.44611158 21.468371,8.85627936 C24.0047904,10.2664471 25.3825963,13.1358917 24.9060263,16.015605 C26.4002353,13.7954721 29.6063492,12.9569856 31.983128,14.1647493 C34.3599067,15.3725129 35.5974711,18.469063 34.7148974,21 L2,20.9410994" id="路径" fill="#F2F2F2"></path>
            <path d="M70.8844833,47.5069744 C69.8568669,45.0857265 71.2654854,41.9269013 73.7442633,41.0939208 C76.2230412,40.2609403 79.2307371,41.9356852 79.8504976,44.4939903 C78.7517517,41.792663 79.4634078,38.6866114 81.6260947,36.744325 C83.7887817,34.8020387 86.9319517,34.4461116 89.468371,35.8562794 C92.0047904,37.2664471 93.3825963,40.1358917 92.9060263,43.015605 C94.4002353,40.7954721 97.6063492,39.9569856 99.983128,41.1647493 C102.359907,42.3725129 103.597471,45.469063 102.714897,48 L70,47.9410994" id="路径" fill="#F2F2F2"></path>
        </g>
    </g>
</svg>