<?xml version="1.0" encoding="UTF-8"?>
<svg width="121px" height="121px" viewBox="0 0 121 121" version="1.1" xmlns="http://www.w3.org/2000/svg" xmlns:xlink="http://www.w3.org/1999/xlink">
    <title>编组 7备份 3</title>
    <g id="界面" stroke="none" stroke-width="1" fill="none" fill-rule="evenodd">
        <g id="编组-7备份-3">
            <circle id="椭圆形" fill="#FFFFFF" opacity="0.85" cx="60.5" cy="60.5" r="48.5"></circle>
            <g id="编组-3" opacity="0.50499907">
                <circle id="椭圆形" stroke="#DD131C" stroke-width="5" transform="translate(60.500000, 60.500000) rotate(30.000000) translate(-60.500000, -60.500000) " cx="60.5" cy="60.5" r="41.6790698"></circle>
                <circle id="椭圆形" stroke="#DD131C" stroke-width="5" transform="translate(60.500000, 60.500000) rotate(30.000000) translate(-60.500000, -60.500000) " cx="60.5" cy="60.5" r="33.8"></circle>
                <text id="已付款" transform="translate(64.416279, 64.000000) rotate(30.000000) translate(-64.416279, -64.000000) " font-family="AlibabaPuHuiTi-Medium, Alibaba PuHuiTi" font-size="10" font-weight="400" fill="#D20D00">
                    <tspan x="45" y="68">已付款</tspan>
                </text>
                <g id="星星" transform="translate(70.438688, 45.005879) rotate(30.000000) translate(-70.438688, -45.005879) translate(62.938688, 37.505879)" fill-rule="nonzero">
                    <rect id="矩形" fill="#000000" opacity="0" x="0" y="0" width="14.2772159" height="14.6713713"></rect>
                    <path d="M8.01122877,1.40597462 L9.20481359,3.82435439 C9.34666821,4.11106212 9.62034731,4.310324 9.93701268,4.35619724 L12.6035929,4.74325268 C13.4017043,4.85936932 13.7198025,5.83990978 13.1423539,6.40329049 L11.2122714,8.2855268 C10.9830114,8.50915884 10.8784115,8.83170504 10.9328608,9.14708354 L11.388515,11.8048643 C11.5246381,12.6004783 10.6907049,13.2068651 9.97713318,12.831278 L7.59139642,11.5769316 C7.30792917,11.427843 6.9692867,11.427843 6.68581946,11.5769316 L4.30008268,12.831278 C3.58651097,13.2068651 2.75257775,12.6004783 2.88870088,11.8048643 L3.3443551,9.14708354 C3.39880435,8.83170504 3.29420448,8.50915882 3.06494449,8.2855268 L1.13486196,6.40472403 C0.557413363,5.84134333 0.875511596,4.86080285 1.67362293,4.74468623 L4.34020319,4.35763078 C4.65686855,4.31175754 4.93054766,4.11249567 5.07240228,3.82578792 L6.26741998,1.40597462 C6.62420584,0.682037581 7.65444291,0.682037581 8.01122877,1.40597462 Z" id="路径" fill="#DD131C"></path>
                </g>
                <g id="星星" transform="translate(78.730680, 53.387928) rotate(30.000000) translate(-78.730680, -53.387928) translate(74.730680, 48.887928)" fill-rule="nonzero">
                    <rect id="矩形" fill="#000000" opacity="0" x="0" y="0" width="7.73349193" height="8.55829992"></rect>
                    <path d="M4.77255528,1.16350323 L5.42386946,2.53391843 C5.50127655,2.69638615 5.6506175,2.80930121 5.82341514,2.83529605 L7.27851202,3.05462747 C7.71402463,3.1204269 7.88760416,3.67606649 7.57250258,3.99531556 L6.51929705,5.06191613 C6.39419469,5.18864096 6.33711673,5.37141714 6.36682854,5.55013162 L6.61546949,7.05620738 C6.68974901,7.50705529 6.23468917,7.85067452 5.84530806,7.63784181 L4.54346158,6.92704554 C4.38877945,6.84256197 4.20398936,6.84256197 4.04930724,6.92704554 L2.74746075,7.63784181 C2.35807964,7.85067452 1.90301979,7.50705529 1.97729932,7.05620738 L2.22594026,5.55013162 C2.25565208,5.37141714 2.19857412,5.18864095 2.07347176,5.06191613 L1.02026623,3.9961279 C0.705164651,3.67687884 0.878744181,3.12123923 1.31425679,3.05543981 L2.76935367,2.83610839 C2.94215131,2.81011356 3.09149225,2.6971985 3.16889934,2.53473077 L3.82099542,1.16350323 C4.01568598,0.753272245 4.57786473,0.753272245 4.77255528,1.16350323 Z" id="路径" fill="#DD131C"></path>
                </g>
                <g id="星星" transform="translate(58.041122, 41.442806) rotate(30.000000) translate(-58.041122, -41.442806) translate(53.541122, 36.942806)" fill-rule="nonzero">
                    <rect id="矩形" fill="#000000" opacity="0" x="0" y="0" width="8.32837592" height="8.55829992"></rect>
                    <path d="M5.09981615,1.16350323 L5.80999912,2.53391843 C5.89440262,2.69638615 6.05724169,2.80930121 6.24565758,2.83529605 L7.83227283,3.05462747 C8.30714908,3.1204269 8.49641753,3.67606649 8.15283561,3.99531556 L7.00443651,5.06191613 C6.86802681,5.18864096 6.80578989,5.37141714 6.83818719,5.55013162 L7.10930145,7.05620738 C7.19029471,7.50705529 6.69410445,7.85067452 6.26952928,7.63784181 L4.85001591,6.92704554 C4.6813529,6.84256197 4.47986063,6.84256197 4.31119762,6.92704554 L2.89168423,7.63784181 C2.46710906,7.85067452 1.9709188,7.50705529 2.05191206,7.05620738 L2.32302632,5.55013162 C2.35542362,5.37141714 2.2931867,5.18864095 2.15677701,5.06191613 L1.0083779,3.9961279 C0.664795988,3.67687884 0.854064437,3.12123923 1.32894068,3.05543981 L2.91555593,2.83610839 C3.10397183,2.81011356 3.26681089,2.6971985 3.35121439,2.53473077 L4.06224992,1.16350323 C4.27453751,0.753272245 4.88752857,0.753272245 5.09981615,1.16350323 Z" id="路径" fill="#DD131C"></path>
                </g>
                <g id="对勾" transform="translate(52.653277, 74.690486) rotate(30.000000) translate(-52.653277, -74.690486) translate(42.153277, 64.190486)" fill="#DD131C" fill-rule="nonzero">
                    <rect id="矩形" opacity="0" x="0" y="0" width="20.8232558" height="20.8232558"></rect>
                    <path d="M7.29855116,12.3581422 L2.2385,8.41823462 L0,10.2072215 L8.73535581,19.0384053 C10.2346302,15.2122484 15.0031558,7.73573095 20.8232558,2.42047513 L20.2922628,1.18990033 C13.961993,5.04708015 9.37046512,9.9176745 7.29855116,12.3581422 Z" id="路径"></path>
                </g>
            </g>
        </g>
    </g>
</svg>