<?xml version="1.0" encoding="UTF-8"?>
<svg width="148px" height="168px" viewBox="0 0 148 168" version="1.1" xmlns="http://www.w3.org/2000/svg" xmlns:xlink="http://www.w3.org/1999/xlink">
    <title>编组 7备份</title>
    <g id="界面" stroke="none" stroke-width="1" fill="none" fill-rule="evenodd">
        <g id="编组-7备份">
            <g id="空" fill="#EEEEEE" fill-rule="nonzero">
                <rect id="矩形" opacity="0" x="0" y="0" width="148" height="148"></rect>
                <path d="M120.236068,53.4463418 L27.7784218,53.4463418 L9,87.0546434 L9,129 L139,129 L139,87.0546434 L120.236068,53.4463418 Z M90.5180562,87.4303166 C90.5180562,96.518718 83.1283995,103.887692 74,103.887692 C64.8716005,103.887692 57.4819438,96.518718 57.4819438,87.4303166 L16.7518948,87.4303166 L31.7920196,58.8213582 L116.193491,58.8213582 L131.233616,87.4303166 L90.5180562,87.4303166 Z M72.4930896,19 L78.1584931,19 L78.1584931,39.3152502 L72.4930896,39.3152502 L72.4930896,19 Z M34.0458649,29.0856692 L38.0517833,25.0909628 L52.4571222,39.4558387 L48.4510588,43.4506896 L34.0458649,29.0856692 Z M96.4510811,39.465086 L110.856275,25.1000657 L114.862338,29.0949166 L100.457144,43.4597925 L96.4510811,39.465086 Z" id="形状"></path>
            </g>
            <text id="这里什么也没有哦～" font-family="AlibabaPuHuiTi-Regular, Alibaba PuHuiTi" font-size="14" font-weight="normal" fill="#BDBDBD">
                <tspan x="14.008" y="163">这里什么也没有哦～</tspan>
            </text>
        </g>
    </g>
</svg>