<?xml version="1.0" encoding="UTF-8"?>
<svg width="6px" height="11px" viewBox="0 0 6 11" version="1.1" xmlns="http://www.w3.org/2000/svg" xmlns:xlink="http://www.w3.org/1999/xlink">
    <title>编组备份</title>
    <g id="界面" stroke="none" stroke-width="1" fill="none" fill-rule="evenodd">
        <g id="编组备份" fill="#000000" fill-rule="nonzero">
            <path d="M4.80884544,5.79565253 L0.204419086,1.19100348 C-0.0681396955,0.918491741 -0.0681396955,0.477095392 0.204419086,0.204438311 C0.476977868,-0.0682187688 0.918450412,-0.0680734292 1.19115456,0.204438311 L5.79558091,4.80894202 C6.0681397,5.08145376 6.0681397,5.52285011 5.79558091,5.79550719 C5.65922884,5.93183573 5.4811571,6 5.30221318,6 C5.12326925,6 4.94519751,5.93183573 4.80884544,5.79565253 Z" id="路径"></path>
            <path d="M0.697780483,11 C0.518838183,11 0.340768063,10.9318335 0.204417229,10.7956457 C-0.0681390764,10.5231249 -0.0681390764,10.0817139 0.204417229,9.80904769 L4.80880175,5.20439061 C5.08135805,4.9318698 5.52282659,4.9318698 5.79552826,5.20439061 C6.06822992,5.47691143 6.06808456,5.91832248 5.79552826,6.19098864 L1.19114374,10.7955004 C1.0547929,10.9318335 0.876722782,11 0.697780483,11 Z" id="路径"></path>
        </g>
    </g>
</svg>