<?xml version="1.0" encoding="UTF-8"?>
<svg width="22px" height="22px" viewBox="0 0 22 22" version="1.1" xmlns="http://www.w3.org/2000/svg" xmlns:xlink="http://www.w3.org/1999/xlink">
    <title>通知</title>
    <g id="界面" stroke="none" stroke-width="1" fill="none" fill-rule="evenodd">
        <g id="消息通知界面" transform="translate(-33.000000, -32.000000)">
            <rect id="矩形" fill="#EEEEEE" x="0" y="0" width="415" height="896"></rect>
            <rect id="矩形" fill="#FFFFFF" x="16" y="22" width="382" height="174" rx="7"></rect>
            <g id="通知" transform="translate(33.000000, 32.000000)" fill-rule="nonzero">
                <rect id="矩形" fill="#000000" opacity="0" x="0" y="0" width="22" height="22"></rect>
                <path d="M9.16744065,0.00269366549 L12.8325593,0.00269366549 C15.270959,-0.0510203305 17.9134537,0.696678617 19.5805886,2.41767532 C21.303581,4.08495803 22.0490653,6.72768704 21.9975045,9.16630284 L21.9975045,12.8317465 C22.0490653,15.2703623 21.3035811,17.9130914 19.5805886,19.580374 C17.9134537,21.3035193 15.270959,22.0490697 12.8325593,21.9975042 L9.16744065,21.9975042 C6.72904104,22.0490697 4.08654633,21.3035193 2.41941144,19.580374 C0.696418956,17.9152399 -0.04906534,15.2725109 0.00249553215,12.8338951 L0.00249553215,9.16845141 C-0.04906534,6.72768704 0.696418956,4.08495801 2.41941144,2.41767532 C4.08654633,0.696678617 6.72904104,-0.0510203305 9.16744065,0.00269366549 Z" id="路径" fill="#F6416C"></path>
                <path d="M2.25090036,2.5921803 C0.736294529,4.18436057 0.0320128048,6.65408635 0,9 C2.76110444,9 5,6.56720066 5,3.56964431 C5,2.63996742 4.78391356,1.76459409 4.4057623,1 C3.59343736,1.38881346 2.85314125,1.91664405 2.25090036,2.5921803 Z" id="路径" fill="#FFFFFF" opacity="0.5"></path>
                <path d="M13,7.42505134 C13,8.69404517 13.8579824,9.75359343 15,10 L15,9.31211499 C15,7.9466119 14.367287,6.73921971 13.3996082,6 C13.1469148,6.41273102 13,6.90143737 13,7.42505134 L13,7.42505134 Z" id="路径" fill="#FF2A8E" opacity="0.5"></path>
                <path d="M11.0580015,18 C11.8852671,18 12.5574204,17.3972405 12.5574204,16.6547409 L9.55858257,16.6547409 C9.55858257,17.3972405 10.2307359,18 11.0580015,18 Z M15.831324,14.9924595 L15.2191475,14.612867 C15.1116029,14.4835553 15.0516262,14.3187871 15.0516262,14.1477619 L15.0516262,10.2350393 C15.0516262,8.27867799 13.7238649,6.64142466 11.9411075,6.20969036 L11.9411075,6.00738006 C11.9411075,5.45050537 11.4943841,5 10.9421843,5 C10.3899845,5 9.94326106,5.45050537 9.94326106,6.00738006 L9.94326106,6.24306113 C8.22461677,6.72068025 6.96096854,8.32456281 6.96096854,10.2350393 L6.96096854,14.1185625 C6.96096854,14.287502 6.90305994,14.4501845 6.7975836,14.5794962 L6.16472541,14.9987165 C5.78211506,15.4679929 6.10888498,16.1812931 6.70451622,16.1812931 L15.2936014,16.1812931 C15.893369,16.1792074 16.2201389,15.4617359 15.831324,14.9924595 L15.831324,14.9924595 Z M12.1148333,11.1381357 L11.0311153,13.4302904 C10.9938884,13.5074603 10.8842757,13.4803465 10.8842757,13.3948339 L10.8822075,11.9765763 L9.95773822,11.9786619 C9.89982962,11.9786619 9.86260268,11.9160918 9.88742064,11.8618643 L10.9711386,9.5697096 C11.0083655,9.49253969 11.1179782,9.51965345 11.1179782,9.60516605 L11.1200464,11.0234237 L12.0445157,11.021338 C12.1024243,11.021338 12.1396512,11.0839082 12.1148333,11.1381357 L12.1148333,11.1381357 Z" id="形状" fill="#FFFFFF"></path>
                <path d="M15,10 L15,9.54816514 C15,8.11238532 14.3686548,6.8325688 13.3841094,6 C13.1390768,6.40825688 13,6.88761467 13,7.40366973 C12.9977968,8.67431193 13.8543071,9.73623854 15,10 Z" id="路径" fill="#F6416C" opacity="0.5"></path>
            </g>
        </g>
    </g>
</svg>