<?xml version="1.0" encoding="UTF-8"?>
<svg width="54px" height="54px" viewBox="0 0 54 54" version="1.1" xmlns="http://www.w3.org/2000/svg" xmlns:xlink="http://www.w3.org/1999/xlink">
    <title>编组备份</title>
    <defs>
        <linearGradient x1="0%" y1="19.6777329%" x2="60.5777131%" y2="100%" id="linearGradient-1">
            <stop stop-color="#FF6973" offset="0%"></stop>
            <stop stop-color="#DF161D" offset="100%"></stop>
        </linearGradient>
    </defs>
    <g id="界面" stroke="none" stroke-width="1" fill="none" fill-rule="evenodd">
        <g id="编组备份">
            <circle id="椭圆形" fill="url(#linearGradient-1)" cx="27" cy="27" r="27"></circle>
            <g id="购物车" transform="translate(15.000000, 14.000000)" fill="#FFFFFF" fill-rule="nonzero">
                <rect id="矩形" opacity="0" x="0" y="0" width="24" height="24"></rect>
                <path d="M20.8667507,19 L7.48708602,19 C6.94039264,19 6.47164588,18.6026217 6.37264159,18.0553393 L3.73552308,3.47663274 C3.70948555,3.40766725 3.66080152,3.36706523 3.62243291,3.34454342 C3.57941644,3.31919734 3.510481,3.29385125 3.42674827,3.31668687 C2.82226485,3.48158126 2.20084992,3.11638037 2.03888602,2.50104982 C1.87692212,1.88571927 2.2356852,1.25315338 2.84019233,1.08828313 C3.49030073,0.910932942 4.17054911,1.00266163 4.75565852,1.34657181 C5.34079164,1.69045785 5.75895729,2.24430604 5.93315741,2.90608027 C5.94095919,2.93567485 5.94757528,2.96560737 5.95302941,2.995733 L8.43069766,16.6929268 L20.8667981,16.6929268 C21.4926238,16.6929268 22,17.2093835 22,17.8464634 C22,18.4835433 21.4926001,19 20.866727,19 L20.8667507,19 Z" id="路径"></path>
                <path d="M9.40731346,15.4015387 C8.81215698,15.4015387 8.31089973,14.9421673 8.27064356,14.342884 C8.22866929,13.7178968 8.70405951,13.1774263 9.3324327,13.1356782 L19.089601,12.4875741 C19.1123421,12.4859602 19.1388295,12.4850345 19.1655556,12.4850345 C19.1655556,12.4850345 19.1655556,12.4850345 19.1655795,12.4850345 C19.3068698,12.4850345 19.4262304,12.3662934 19.4262304,12.2257882 C19.4262304,12.198589 19.4272087,12.1714373 19.4291893,12.1443094 L19.7182367,8.15135 C19.7054702,8.02173867 19.5918605,7.91640721 19.4587789,7.91640721 C19.4415263,7.91640721 19.4241782,7.91602747 19.4069494,7.91524425 L5.08849759,7.26714012 C4.45936079,7.23865933 3.97258812,6.70829955 4.00119935,6.08260031 C4.02983444,5.45687734 4.56266188,4.97310738 5.19215661,5.00116096 L19.4884878,5.64824452 C20.8760727,5.6641463 22,6.79179573 22,8.17567734 C22,8.2028765 21.9990216,8.23002818 21.997041,8.25715614 L21.706371,12.2724492 C21.6815539,13.6303421 20.5747838,14.7301041 19.2091048,14.7530074 L9.48436572,15.3989754 C9.45849869,15.400708 9.43279869,15.4015387 9.40724187,15.4015387 L9.40731346,15.4015387 Z M19.6926322,21.2177433 C19.6926322,22.2020632 18.8903724,23 17.9007198,23 C16.9110672,23 16.1088075,22.2020632 16.1088075,21.2177433 C16.1088075,20.2334235 16.9110672,19.4354867 17.9007198,19.4354867 C18.8903724,19.4354867 19.6926322,20.2334235 19.6926322,21.2177433 M10.9040219,21.2177433 C10.9040219,22.2020632 10.1017621,23 9.11210955,23 C8.12245697,23 7.3201972,22.2020632 7.3201972,21.2177433 C7.3201972,20.2334235 8.12245697,19.4354867 9.11210955,19.4354867 C10.1017621,19.4354867 10.9040219,20.2334235 10.9040219,21.2177433 Z" id="形状"></path>
            </g>
        </g>
    </g>
</svg>