<?xml version="1.0" encoding="UTF-8"?>
<svg width="54px" height="54px" viewBox="0 0 54 54" version="1.1" xmlns="http://www.w3.org/2000/svg" xmlns:xlink="http://www.w3.org/1999/xlink">
    <title>编组 2备份</title>
    <defs>
        <linearGradient x1="0%" y1="19.6777329%" x2="60.5777131%" y2="100%" id="linearGradient-1">
            <stop stop-color="#FF6973" offset="0%"></stop>
            <stop stop-color="#DF161D" offset="100%"></stop>
        </linearGradient>
    </defs>
    <g id="界面" stroke="none" stroke-width="1" fill="none" fill-rule="evenodd">
        <g id="编组-2备份">
            <circle id="椭圆形备份" fill="url(#linearGradient-1)" cx="27" cy="27" r="27"></circle>
            <g id="团队-" transform="translate(14.000000, 13.000000)" fill="#FFFFFF" fill-rule="nonzero">
                <rect id="矩形" opacity="0" x="0" y="0" width="27" height="27"></rect>
                <path d="M27,23.6253266 C26.9891681,24.0863658 26.9440389,24.5459062 26.8650002,25 L24.1650051,25 C24.2653307,24.549169 24.3106728,24.0874599 24.3000049,23.6253266 C24.3013193,20.651754 21.9808963,18.21584 19.0620144,18.1266332 C19.8372094,19.6078478 20.2450469,21.2595778 20.2500122,22.9379899 C20.2515268,23.6305492 20.1836759,24.3214602 20.0475126,25 L17.2395176,25 C17.4323382,24.3297208 17.5367535,23.6363045 17.5500171,22.9379899 C17.5500171,18.7623287 14.2257374,15.3772864 10.1250305,15.3772864 C6.02432366,15.3772864 2.70004393,18.7623287 2.70004393,22.9379899 C2.7133075,23.6363045 2.81772279,24.3297208 3.01054337,25 L0.202548448,25 C0.0663850891,24.3214602 -0.00146581228,23.6305492 2.40084427e-05,22.9379899 C0.00433504409,18.9277846 2.2888508,15.2829328 5.85903822,13.590211 C4.00481752,11.7277099 3.52285005,8.86886371 4.66089615,6.48329191 C5.79894225,4.0977201 8.30374949,2.71629029 10.8876959,3.0491407 C13.4716423,3.38199112 15.5597154,5.35505166 16.0785197,7.95405023 C18.3917114,6.47688518 21.4237847,6.9904245 23.1428532,9.15052959 C24.8619217,11.3106347 24.7270018,14.4375295 22.8285075,16.4357849 C25.395677,17.8855286 26.9916345,20.6361516 27,23.6253266 L27,23.6253266 Z M10.1250305,5.75457285 C8.26107285,5.75457285 6.75003661,7.29322842 6.75003661,9.19125627 C6.75003661,11.0892841 8.26107285,12.6279397 10.1250305,12.6279397 C11.9889882,12.6279397 13.5000244,11.0892841 13.5000244,9.19125627 C13.5000244,8.27979115 13.1444457,7.40565728 12.5115116,6.76115411 C11.8785774,6.11665095 11.0201345,5.75457285 10.1250305,5.75457285 L10.1250305,5.75457285 Z M18.9000146,9.87859295 C17.4088485,9.87859295 16.2000195,11.1095174 16.2000195,12.6279397 C16.2000195,14.146362 17.4088485,15.3772864 18.9000146,15.3772864 C20.3911808,15.3772864 21.6000098,14.146362 21.6000098,12.6279397 C21.6000098,11.1095174 20.3911808,9.87859295 18.9000146,9.87859295 L18.9000146,9.87859295 Z" id="形状"></path>
            </g>
        </g>
    </g>
</svg>