<?xml version="1.0" encoding="UTF-8"?>
<svg width="54px" height="54px" viewBox="0 0 54 54" version="1.1" xmlns="http://www.w3.org/2000/svg" xmlns:xlink="http://www.w3.org/1999/xlink">
    <title>编组 3备份</title>
    <defs>
        <linearGradient x1="0%" y1="19.6777329%" x2="60.5777131%" y2="100%" id="linearGradient-1">
            <stop stop-color="#FF6973" offset="0%"></stop>
            <stop stop-color="#DF161D" offset="100%"></stop>
        </linearGradient>
    </defs>
    <g id="界面" stroke="none" stroke-width="1" fill="none" fill-rule="evenodd">
        <g id="编组-3备份">
            <circle id="椭圆形备份-2" fill="url(#linearGradient-1)" cx="27" cy="27" r="27"></circle>
            <g id="圈子-色块icon" transform="translate(14.000000, 14.000000)" fill="#FFFFFF" fill-rule="nonzero">
                <rect id="矩形" opacity="0" x="0" y="0" width="26" height="25"></rect>
                <path d="M0.592764206,10.7721526 C0.641449553,10.7816085 0.690976035,10.7864893 0.740644211,10.7867262 C1.09178029,10.7864575 1.39429034,10.548785 1.46451794,10.2180018 C2.4046518,5.78074969 6.01161726,2.31306828 10.6267999,1.40952408 C11.0233812,1.3278491 11.2775115,0.954266427 11.1963924,0.572198285 C11.1152733,0.190130142 10.7291862,-0.0577990519 10.3310399,0.0165046527 C5.14151762,1.04516755 1.08629235,4.94411478 0.016398475,9.93364614 C-0.065142555,10.3181949 0.192850148,10.693527 0.592764206,10.7721526 Z M10.6267999,23.5911921 C9.12073872,23.2958862 7.69028903,22.7171248 6.41777759,21.8882173 C5.79229395,21.4816929 5.20860091,21.0186889 4.67464084,20.5055054 C3.04324426,18.9425392 1.92697756,16.9520659 1.46527337,14.7827152 C1.41461385,14.531782 1.22773674,14.3263164 0.975830191,14.2445874 C0.723923643,14.1628585 0.445773873,14.21745 0.247338038,14.3875663 C0.0489022042,14.5576826 -0.0392664,14.8171306 0.016418789,15.0670773 C1.08568686,20.056933 5.14120065,23.9561576 10.3310602,24.9842188 C10.7292065,25.0585225 11.1152936,24.8105933 11.1964127,24.4285252 C11.2775318,24.0464571 11.0234015,23.6728744 10.6268202,23.5911994 L10.6267999,23.5911921 Z M25.4085792,14.228566 C25.2164491,14.1908096 25.0165883,14.2279821 24.8529642,14.3319058 C24.6893402,14.4358295 24.5753563,14.5979914 24.5360878,14.7827176 C23.5960627,19.2197662 19.9894434,22.6873955 15.3745486,23.5911945 C15.1135575,23.6399018 14.8998564,23.8195771 14.8148515,24.0617758 C14.7298467,24.3039745 14.7866264,24.5714051 14.9635613,24.7621937 C15.1404962,24.9529824 15.4103434,25.0377532 15.6703086,24.9842139 C20.8596392,23.9552091 24.9147005,20.0564195 25.98495,15.0670725 C26.0664959,14.682522 25.8085035,14.3071853 25.4085868,14.2285587 L25.4085792,14.228566 Z M15.3744749,1.40952408 C19.9893698,2.31332308 23.595989,5.78095244 24.5360142,10.218001 C24.6062138,10.5486532 24.9085204,10.7862875 25.2595172,10.7867253 C25.3091873,10.7865224 25.3587172,10.7816413 25.4073972,10.7721518 C25.5996058,10.7344006 25.768332,10.6247563 25.876431,10.4673568 C25.9845299,10.3099573 26.0231397,10.1177063 25.9837604,9.93292754 C24.9135108,4.94358052 20.8584495,1.04479093 15.669119,0.0157860508 C15.4091538,-0.0377531731 15.1393065,0.047017638 14.9623717,0.237806262 C14.7854368,0.428594886 14.7286571,0.696025474 14.8136619,0.938224186 C14.8986667,1.1804229 15.1123679,1.36009824 15.3733589,1.40880548 L15.3744749,1.40952408 Z M21.1033777,12.5003715 C21.1031982,8.78343594 18.3722343,5.58419948 14.5805782,4.85916041 C10.788922,4.13412135 6.99258359,6.08520951 5.51321985,9.51923374 C4.0338561,12.953258 5.28348302,16.913812 8.49788921,18.9788125 C11.7122954,21.0438129 15.9962402,20.6381389 18.72987,18.009881 C20.2548224,16.552004 21.1095254,14.5679951 21.1033777,12.5003715 L21.1033777,12.5003715 Z M13.0006247,16.0513403 C10.9608719,16.0513403 9.30732559,14.4615174 9.30732559,12.5003715 C9.30732559,10.5392256 10.9608719,8.94940268 13.0006247,8.94940268 C15.0403775,8.94940268 16.6939239,10.5392256 16.6939239,12.5003715 C16.6918803,14.460703 15.0395305,16.0493755 13.0006247,16.0513403 L13.0006247,16.0513403 Z" id="形状"></path>
            </g>
        </g>
    </g>
</svg>