<?xml version="1.0" encoding="UTF-8"?>
<svg width="54px" height="54px" viewBox="0 0 54 54" version="1.1" xmlns="http://www.w3.org/2000/svg" xmlns:xlink="http://www.w3.org/1999/xlink">
    <title>编组 4备份</title>
    <defs>
        <linearGradient x1="0%" y1="19.6777329%" x2="60.5777131%" y2="100%" id="linearGradient-1">
            <stop stop-color="#FF6973" offset="0%"></stop>
            <stop stop-color="#DF161D" offset="100%"></stop>
        </linearGradient>
    </defs>
    <g id="界面" stroke="none" stroke-width="1" fill="none" fill-rule="evenodd">
        <g id="编组-4备份">
            <circle id="椭圆形备份-3" fill="url(#linearGradient-1)" cx="27" cy="27" r="27"></circle>
            <g id="指南" transform="translate(13.000000, 13.000000)" fill="#FFFFFF" fill-rule="nonzero">
                <rect id="矩形" opacity="0" x="0" y="0" width="28" height="27"></rect>
                <path d="M9.89642598,3.05319769 C10.4288127,2.85408034 11,3.23858832 11,3.7960903 L11,20.8548476 C11,21.1517635 10.8309418,21.4239529 10.5615831,21.5607366 L4.10159517,24.8416904 C3.89678227,24.945707 3.6694033,25 3.43864048,25 C2.64408459,25 2,24.3699805 2,23.5928242 L2,6.97515777 C2,6.39190487 2.36785801,5.86911874 2.92479758,5.66079703 L9.89642598,3.05319769 Z M8.55765559,13.0348694 C8.41074622,12.6197689 7.94761329,12.3997688 7.52325378,12.5434472 L5.08694562,13.368381 L5.06834743,13.3749251 C4.65603323,13.5253871 4.43978852,13.9711599 4.58452266,14.3801419 C4.73143202,14.7952424 5.19453776,15.015269 5.61892447,14.871564 L8.05523263,14.0466303 L8.07383082,14.0401128 C8.48614502,13.8896508 8.70238973,13.443878 8.55765559,13.0348694 L8.55765559,13.0348694 Z M8.55765559,9.28906899 C8.41074622,8.8739685 7.94761329,8.65394183 7.52325378,8.79764684 L5.08694562,9.62258058 L5.06834743,9.62909812 C4.65603323,9.77956007 4.43978852,10.2253329 4.58452266,10.6343415 C4.73143202,11.049442 5.19453776,11.269442 5.61892447,11.1257636 L8.05523263,10.3008299 L8.07383082,10.2942857 C8.48614502,10.1438238 8.70238973,9.69805098 8.55765559,9.28906899 L8.55765559,9.28906899 Z" id="形状"></path>
                <path d="M11.103574,3.05225676 L18.4772931,5.76141776 C18.7920816,5.87706278 19,6.16733506 19,6.49118009 L19,24.2176637 C19,24.8036944 18.3534139,25.181091 17.812136,24.9110554 L10.4384169,21.2322747 C10.1690584,21.0979012 10,20.8305474 10,20.538909 L10,3.78201909 C10,3.23437073 10.5711873,2.85666059 11.103574,3.05225676 Z M11.6263082,4.91718752 L11.6263082,20.0641585 L17.3737462,22.9316045 L17.3737462,7.02882132 L11.6263082,4.91718752 L11.6263082,4.91718752 Z" id="形状"></path>
                <path d="M24.5613595,3 C24.3857283,3 24.2115825,3.03128585 24.0475438,3.09231009 L17.5227069,5.51971373 C17.2078688,5.63689636 17,5.93078226 17,6.25861751 L17,24.2078395 C17,24.8012049 17.6465861,25.1833755 18.187864,24.9099356 L25.2243142,21.3552965 C25.7009566,21.1144522 26,20.6355347 26,20.1131692 L26,4.39964411 C26,3.62662975 25.3559154,3 24.5613595,3 Z" id="路径"></path>
            </g>
        </g>
    </g>
</svg>