<?xml version="1.0" encoding="UTF-8"?>
<svg width="54px" height="54px" viewBox="0 0 54 54" version="1.1" xmlns="http://www.w3.org/2000/svg" xmlns:xlink="http://www.w3.org/1999/xlink">
    <title>编组 5备份</title>
    <defs>
        <linearGradient x1="0%" y1="19.6777329%" x2="60.5777131%" y2="100%" id="linearGradient-1">
            <stop stop-color="#FF6973" offset="0%"></stop>
            <stop stop-color="#DF161D" offset="100%"></stop>
        </linearGradient>
    </defs>
    <g id="界面" stroke="none" stroke-width="1" fill="none" fill-rule="evenodd">
        <g id="编组-5备份">
            <circle id="椭圆形备份-4" fill="url(#linearGradient-1)" cx="27" cy="27" r="27"></circle>
            <g id="反馈" transform="translate(10.000000, 10.000000)" fill="#FFFFFF" fill-rule="nonzero">
                <rect id="矩形" opacity="0" x="0" y="0" width="34" height="34"></rect>
                <path d="M17.49655,26.6034286 L19.67005,24.2857143 L26.7,24.2857143 L26.7,8.28571426 L8.29999998,8.28571426 L8.29999998,24.2857143 L15.42425,24.2857143 L17.49655,26.6034286 L17.49655,26.6034286 Z M7.14999999,6 L27.85,6 C28.4851275,6 29,6.51167457 29,7.14285713 L29,25.4285714 C29,25.731676 28.8788396,26.0223662 28.6631728,26.2366935 C28.447506,26.4510208 28.154999,26.5714286 27.85,26.5714286 L20.6694,26.5714286 L17.4563,30 L14.3904,26.5714286 L7.14999999,26.5714286 C6.84500102,26.5714286 6.55249402,26.4510208 6.33682719,26.2366935 C6.12116035,26.0223662 6,25.731676 6,25.4285714 L6,7.14285713 C6,6.51167457 6.51487253,6 7.14999999,6 Z M23.8549,17.2388571 C22.7808,19.6914286 20.2922,21.3142857 17.5,21.3142857 C14.7101,21.3142857 12.2215,19.6948571 11.14625,17.2445714 L13.25535,16.3302857 C13.9649,17.9485714 15.62435,19.0285714 17.5,19.0285714 C19.3768,19.0285714 21.0374,17.9462857 21.7458,16.328 L23.8549,17.24 L23.8549,17.2388571 Z" id="形状"></path>
            </g>
        </g>
    </g>
</svg>