<?xml version="1.0" encoding="UTF-8"?>
<svg width="100px" height="55px" viewBox="0 0 100 55" version="1.1" xmlns="http://www.w3.org/2000/svg" xmlns:xlink="http://www.w3.org/1999/xlink">
    <title>zs_icon_lr备份</title>
    <defs>
        <rect id="path-1" x="0" y="0" width="100" height="55" rx="8"></rect>
        <linearGradient x1="-22.8322989%" y1="49.9998762%" x2="99.9996313%" y2="49.9998762%" id="linearGradient-3">
            <stop stop-color="#8199CF" offset="0%"></stop>
            <stop stop-color="#F9FAFE" offset="100%"></stop>
        </linearGradient>
        <linearGradient x1="10.7852033%" y1="38.4441334%" x2="100%" y2="46.5969611%" id="linearGradient-4">
            <stop stop-color="#D8E3FC" offset="0%"></stop>
            <stop stop-color="#D4E0FE" offset="48.1463044%"></stop>
            <stop stop-color="#C3D1F8" offset="100%"></stop>
        </linearGradient>
        <linearGradient x1="0.000385075995%" y1="49.9998762%" x2="99.9996313%" y2="49.9998762%" id="linearGradient-5">
            <stop stop-color="#F4F4FC" offset="0%"></stop>
            <stop stop-color="#F4F4FC" offset="100%"></stop>
        </linearGradient>
        <linearGradient x1="7.51807663%" y1="100%" x2="99.5935893%" y2="0%" id="linearGradient-6">
            <stop stop-color="#4983F9" offset="0%"></stop>
            <stop stop-color="#8EB3FF" offset="100%"></stop>
        </linearGradient>
    </defs>
    <g id="界面" stroke="none" stroke-width="1" fill="none" fill-rule="evenodd">
        <g id="zs_icon_lr备份">
            <mask id="mask-2" fill="white">
                <use xlink:href="#path-1"></use>
            </mask>
            <use id="蒙版" fill="#0091FF" xlink:href="#path-1"></use>
            <g id="zs_icon_lr" opacity="0.302292597" style="mix-blend-mode: soft-light;" mask="url(#mask-2)">
                <g transform="translate(35.000000, 0.000000)">
                    <rect id="矩形" fill="none" x="0" y="0" width="71" height="65"></rect>
                    <path d="M35.3866731,27 C33.3123808,27.009 31.2446423,27.431 29.6651654,28.265 L2.39461154,42.679 C-0.798203846,44.368 -0.798203846,47.114 2.39461154,48.801 L29.6662577,63.217 C32.8601654,64.904 38.0551808,64.904 41.2490885,63.217 L68.5196423,48.802 C71.71355,47.115 71.71355,44.368 68.5196423,42.68 L41.2479962,28.265 C39.6696115,27.431 37.6007808,27.009 35.5275808,27 L35.3866731,27 Z" id="Fill-17" fill="url(#linearGradient-3)" fill-rule="nonzero"></path>
                    <path d="M1.08821154,37.407 L0.000273076923,37.687 L0.000273076923,43.488 C0.000273076923,44.597 0.79875,45.704 2.39461154,46.549 L2.39461154,46.549 L29.6662577,60.964 C32.8601654,62.651 38.0551808,62.651 41.2490885,60.964 L41.2490885,60.964 L68.5207346,46.55 C70.0903808,45.72 70.8888577,44.633 70.9150731,43.543 L70.9150731,43.543 C70.9150731,43.494 70.9139808,43.445 70.9117962,43.396 L70.9117962,43.396 L70.9150731,43.398 L70.9150731,37.741 L69.2056115,36.871 C68.7228115,39.54 65.2907808,41.3 62.4212885,41.666 L62.4212885,41.666 L42.8799038,52.127 L34.3522577,54.946 L7.13085769,42.086 L7.76002692,41.754 C5.43341154,40.758 4.18053462,38.482 2.92110385,36.406 L2.92110385,36.406 L1.08821154,37.407 Z" id="Clip-14" fill="none"></path>
                    <path d="M1.08821154,37.407 L0.000273076923,37.687 L0.000273076923,43.488 C0.000273076923,44.597 0.79875,45.704 2.39461154,46.549 L29.6662577,60.964 C32.8601654,62.651 38.0551808,62.651 41.2490885,60.964 L68.5207346,46.55 C70.0903808,45.72 70.8888577,44.633 70.9150731,43.543 C70.9150731,43.494 70.9139808,43.445 70.9117962,43.396 L70.9150731,37.741 L69.2056115,36.871 C68.7228115,39.54 65.2907808,41.3 62.4212885,41.666 L42.8799038,52.127 L34.3522577,54.946 L7.13085769,42.086 L7.76002692,41.754 C5.43341154,40.758 4.18053462,38.482 2.92110385,36.406 L1.08821154,37.407 Z" id="Fill-13" fill="url(#linearGradient-4)" fill-rule="nonzero"></path>
                    <path d="M35.3866731,19 C33.3123808,19.009 31.2446423,19.431 29.6651654,20.265 L29.6651654,20.265 L2.39461154,34.679 C-0.798203846,36.368 -0.798203846,39.114 2.39461154,40.801 L2.39461154,40.801 L29.6662577,55.217 C32.8601654,56.904 38.0551808,56.904 41.2490885,55.217 L41.2490885,55.217 L68.5196423,40.802 C71.71355,39.115 71.71355,36.368 68.5196423,34.68 L68.5196423,34.68 L41.2479962,20.265 C39.6696115,19.431 37.6007808,19.009 35.5275808,19 L35.5275808,19 L35.3866731,19 Z" id="Clip-18" fill="none"></path>
                    <path d="M35.3866731,19 C33.3123808,19.009 31.2446423,19.431 29.6651654,20.265 L29.6651654,20.265 L2.39461154,34.679 C-0.798203846,36.368 -0.798203846,39.114 2.39461154,40.801 L2.39461154,40.801 L29.6662577,55.217 C32.8601654,56.904 38.0551808,56.904 41.2490885,55.217 L41.2490885,55.217 L68.5196423,40.802 C71.71355,39.115 71.71355,36.368 68.5196423,34.68 L68.5196423,34.68 L41.2479962,20.265 C39.6696115,19.431 37.6007808,19.009 35.5275808,19 L35.5275808,19 L35.3866731,19 Z" id="Fill-17" fill="url(#linearGradient-5)" fill-rule="nonzero"></path>
                    <path d="M68.5206254,40.8025 L41.2489792,55.2165 C38.0550715,56.9045 32.8611485,56.9045 29.6672408,55.2165 L2.39559462,40.8015 C0.967948462,40.0475 0.181486923,39.0815 0.0296561538,38.0935 C-0.158220769,39.3165 0.629333077,40.5735 2.39559462,41.5065 L29.6672408,55.9215 C32.8611485,57.6095 38.0550715,57.6095 41.2489792,55.9215 L68.5206254,41.5065 C70.2857946,40.5735 71.0733485,39.3165 70.8854715,38.0935 C70.7336408,39.0815 69.9471792,40.0475 68.5206254,40.8025" id="Fill-19" fill="#FFFFFF" fill-rule="nonzero"></path>
                    <path d="M36.0461538,42 C39.4317644,42 42.6175106,41.9782387 45.3989055,41.9399163 C51.5383599,41.8553261 55.7076923,41.6900451 55.7076923,41.5 C55.7076923,41.2238576 46.9049217,41 36.0461538,41 C25.187386,41 16.3846154,41.2238576 16.3846154,41.5 C16.3846154,41.7761424 25.187386,42 36.0461538,42 Z" id="椭圆形" fill="#C4D2F8" fill-rule="nonzero"></path>
                    <path d="M38.2212635,11.9650181 L48.4493634,19.5468943 C48.9977402,19.953383 49.8066787,19.8809235 50.2562153,19.3850484 L51.8631237,17.612328 C53.508677,15.7969595 53.2142826,13.1093566 51.2068025,11.6212405 L46.2742509,7.96488374 C45.4348907,7.34265525 44.3757298,7 43.2918753,7 C41.8746393,7 40.5468899,7.56800893 39.6491986,8.55839638 L38.0422902,10.3311168 C37.5927598,10.8269878 37.6729169,11.5585455 38.2212635,11.9650181 Z M53.3318007,38.6780018 L29.8262068,38.6723515 L33.1298956,37.919044 C33.396544,37.8582311 33.6345578,37.721609 33.8088986,37.5292901 L47.3531837,22.587563 C47.8026544,22.0916477 47.7225096,21.3601393 47.1741676,20.953623 L36.9461533,13.3717467 C36.3978067,12.9652742 35.588789,13.0377604 35.1393014,13.5336314 L21.5949735,28.4753198 C21.4206275,28.6676434 21.3191851,28.905513 21.3055863,29.1538964 L20.7553994,39.193494 C20.7489372,39.311647 20.7627604,39.4284067 20.7946007,39.5402515 C20.7674771,39.6352752 20.7538462,39.7330257 20.7538462,39.831164 C20.7538462,40.4723558 21.328311,40.9922986 22.0373998,40.9924921 L53.3311588,41 L53.3315011,41 C54.0403759,41 54.6153846,40.4803668 54.6153846,39.8392911 C54.6153846,39.198138 54.0408895,38.6781566 53.3318007,38.6780018 L53.3318007,38.6780018 Z" id="形状" fill="url(#linearGradient-6)" fill-rule="nonzero"></path>
                </g>
            </g>
        </g>
    </g>
</svg>