<?xml version="1.0" encoding="UTF-8"?>
<svg width="100px" height="55px" viewBox="0 0 100 55" version="1.1" xmlns="http://www.w3.org/2000/svg" xmlns:xlink="http://www.w3.org/1999/xlink">
    <title>2 (1)备份 5</title>
    <defs>
        <rect id="path-1" x="0" y="0" width="100" height="55" rx="8"></rect>
    </defs>
    <g id="界面" stroke="none" stroke-width="1" fill="none" fill-rule="evenodd">
        <g id="2-(1)备份-5">
            <mask id="mask-2" fill="white">
                <use xlink:href="#path-1"></use>
            </mask>
            <use id="蒙版" fill="#E91A23" xlink:href="#path-1"></use>
            <g id="2-(1)" style="mix-blend-mode: soft-light;" mask="url(#mask-2)" fill-rule="nonzero">
                <g transform="translate(50.000000, 24.000000) scale(-1, 1) translate(-50.000000, -24.000000) translate(0.000000, -22.000000)">
                    <rect id="矩形" stroke="none" fill="#CF75FF" x="0" y="0" width="100" height="92"></rect>
                    <polygon id="路径" stroke="none" fill="#BD42FF" points="70.6521739 65 78.6480441 70 83.6956522 67.094431 81.7202019 65.9733656"></polygon>
                    <polygon id="路径" stroke="none" fill="#BD42FF" points="83.6956522 49.4461901 25.6092768 80 16.3043478 74.7894737 75.649228 44 81.1811446 48.0251375"></polygon>
                    <polygon id="路径" stroke="#8D2BF4" stroke-width="1" fill="#FFFFFF" stroke-linecap="round" stroke-linejoin="round" points="27.5702414 73 19.5652174 68.7671718 72.4272679 41 80.4347826 45.2328282"></polygon>
                    <polygon id="路径" stroke="#8D2BF4" stroke-width="1" fill="#D4B2F9" stroke-linecap="round" stroke-linejoin="round" points="26.7397965 24 26.8986649 73.9758359 80.422174 46.4310199 80.4347826 50.4411352 22.9975639 80 22.826087 26.0162967"></polygon>
                    <polygon id="路径" stroke="#8D2BF4" stroke-width="1" fill="#D4B2F9" stroke-linecap="round" stroke-linejoin="round" points="22.826087 80 15.3749884 75.6699119 15.2173913 20 22.6684898 24.3300881"></polygon>
                    <polygon id="路径" stroke="#8D2BF4" stroke-width="1" fill="#FFFFFF" stroke-linecap="round" stroke-linejoin="round" points="23.6350909 24 16.3043478 19.9464738 19.8454502 18 27.173913 22.0535262"></polygon>
                    <path d="M73.9130435,12.8080765 L70.5781791,14.5507691 L70.1438369,14.7727681 L69.8223746,14.9548073 C69.7389417,14.9992071 69.6555087,15.043607 69.5769836,15.0946667 C69.4346568,15.1745864 69.29233,15.256726 69.1500031,15.3433057 L68.5880576,15.6829642 L68.1193607,15.9848829 L67.6408482,16.3001216 C66.9962877,16.7441197 66.3582709,17.2095777 65.726798,17.6964956 C65.5697477,17.8185951 65.4151513,17.9429145 65.2581011,18.069454 C65.1010508,18.1959934 64.985717,18.291453 64.8532058,18.4024526 L64.6961555,18.533432 C64.4188637,18.766531 64.1464796,19.00629 63.8740955,19.2482689 C63.6017114,19.4902479 63.2728874,19.7966066 62.9735104,20.0807654 L62.5882464,20.4537238 C62.3085006,20.7290026 62.0287548,21.0109414 61.7539168,21.2973202 C61.4103693,21.6525186 61.0750016,22.0151171 60.7478135,22.3851155 C60.625118,22.5183149 60.5048764,22.6537343 60.3870887,22.7913738 L60.1686906,23.0444527 C60.1048889,23.1199323 60.0386334,23.195412 59.9772856,23.2664517 C59.8374127,23.426291 59.7024476,23.5905703 59.5699365,23.7548496 C59.3261813,24.0508484 59.087334,24.3468471 58.8533946,24.6428458 C58.7552382,24.7693853 58.6570817,24.8981447 58.5613792,25.0269042 C58.4656767,25.1556636 58.3822438,25.2622232 58.2963569,25.3798827 C58.21047,25.4975422 58.0975901,25.6440615 58.0043415,25.777261 C57.9110929,25.9104604 57.798213,26.0614197 57.6976027,26.2012791 C57.3417857,26.705217 56.9957843,27.2224748 56.6571447,27.7552725 L56.5442648,27.9350917 L48.6917511,40.2160791 C48.6573963,40.2737988 48.6205877,40.3270786 48.5862329,40.3825784 L48.5101617,40.4980179 C48.4291827,40.6245573 48.3457497,40.7510968 48.2647707,40.8754162 L48.0341031,41.2195148 C47.9236771,41.3837941 47.8083433,41.5480734 47.6954634,41.7079127 C47.6756987,41.740293 47.6535641,41.7714423 47.6292078,41.8011523 C47.5457749,41.9210318 47.459888,42.0431312 47.3715472,42.1652307 C47.349462,42.1963106 47.3273768,42.2296104 47.3028377,42.2584703 C47.2022274,42.3983297 47.1016171,42.5359691 46.9960989,42.6736085 L46.6991757,43.0732068 L46.5617567,43.2530261 C46.1666772,43.7614039 45.7642358,44.2586817 45.3495249,44.7404197 L45.2808155,44.8181194 C45.1924747,44.9224589 45.10168,45.0401184 45.0084314,45.131138 C44.9965602,45.1467857 44.9834375,45.1616253 44.9691688,45.1755378 C44.8562889,45.3042973 44.7409551,45.4330567 44.6280753,45.5573762 C44.5151954,45.6816956 44.3949538,45.8148951 44.2747121,45.9436545 L43.8968099,46.3565728 C43.8860625,46.3689554 43.8745948,46.3808121 43.8624552,46.3920926 C43.7152205,46.5474919 43.565532,46.7006713 43.4133895,46.8516306 C43.2538854,47.0159099 43.0870194,47.1757492 42.9226074,47.3333686 C42.8121815,47.4421481 42.6993016,47.5553676 42.5864217,47.6552672 C42.5103505,47.7263069 42.4367332,47.7973466 42.358208,47.8772662 L41.9238659,48.2724245 C41.4216322,48.7164226 40.9120367,49.1456208 40.3950796,49.560019 L40.0932486,49.795338 L40.0024539,49.8663777 C39.8944818,49.9507374 39.7865098,50.030657 39.6785377,50.1105767 L39.2957277,50.3947355 C39.0503366,50.5789947 38.7828604,50.7610339 38.5227459,50.9364131 L38.135028,51.193932 C38.0147864,51.2738517 37.8896369,51.3515514 37.7743032,51.427031 C37.4651104,51.6238702 37.1534638,51.8140494 36.8393632,51.9975686 C36.7534764,52.0464084 36.6700434,52.0974682 36.5939722,52.144088 C36.3215881,52.2994873 36.0467501,52.4482267 35.7719122,52.5880861 L33.0726106,54 L31.5217391,53.1852635 L34.2210407,51.7711296 C34.569496,51.5913103 34.9130435,51.3981712 35.256591,51.200592 L35.5240672,51.0429727 C35.7694583,50.9031133 35.9976719,50.7565939 36.2332473,50.5989746 C36.3543069,50.5234949 36.4745485,50.4457952 36.5939722,50.3658756 C37.1632794,49.9951372 37.7276789,49.5955389 38.2822626,49.1759607 L38.628264,48.9095618 C38.8883785,48.7075427 39.148493,48.5010836 39.4036997,48.2879645 C39.4846788,48.2213648 39.5632039,48.1547651 39.6490908,48.0837254 C39.8944818,47.8772662 40.1398729,47.6619272 40.385264,47.4443681 C40.7517146,47.1187695 41.1124394,46.7820709 41.4674385,46.4342724 C41.5876801,46.3188329 41.7128295,46.2011734 41.8232555,46.0835139 C42.002391,45.9059147 42.1815265,45.7216555 42.3606619,45.5396163 C42.6747625,45.2110577 42.9855911,44.8743591 43.2931479,44.5295206 C43.3962122,44.4163011 43.4992764,44.3075215 43.5974328,44.1854221 L43.6366954,44.1410223 L43.8207387,43.9301232 L43.9974202,43.7081241 C44.1225697,43.5571648 44.2428113,43.4084254 44.3728686,43.264126 C44.5029258,43.1198266 44.6182596,42.9666473 44.7360473,42.8201279 L44.7360473,42.8201279 C44.8342037,42.6980284 44.9274523,42.573709 45.0256088,42.4516095 L45.0992261,42.3539299 C45.2194677,42.2007506 45.3446171,42.0431312 45.457497,41.8832919 C45.5703769,41.7234526 45.7028881,41.5658333 45.8084062,41.405994 C45.9139244,41.2461547 45.9973573,41.1462551 46.088152,41.0152756 C46.2828289,40.7385168 46.4742339,40.458798 46.6623671,40.1761192 C46.7801548,40.0074 46.8930347,39.8364607 47.0034606,39.6633014 L47.047631,39.5922617 C47.0844397,39.538982 47.1187944,39.4834822 47.1531492,39.4302024 L54.9933933,27.1447751 C55.0326559,27.0848354 55.0694645,27.0248956 55.1087271,26.9671759 L55.1553514,26.8961362 C55.2780469,26.705217 55.4007425,26.5165178 55.5258919,26.3322586 C55.7123891,26.0547598 55.8988863,25.7817009 56.0878374,25.5108621 C56.1099226,25.4820022 56.1295539,25.4509224 56.1516391,25.4242825 C56.2007173,25.3510228 56.2522494,25.2822031 56.3013276,25.2022834 C56.3504058,25.1223638 56.401938,25.057984 56.4534701,24.9802844 C56.730762,24.596226 57.0154156,24.2188276 57.3025231,23.8458692 C57.7327754,23.2953116 58.1712074,22.7573339 58.6178192,22.2319361 C58.7675077,22.0543369 58.9196502,21.8811777 59.0742465,21.7080184 C59.1724029,21.5947989 59.2730133,21.4860193 59.3760775,21.3727998 C59.4791418,21.2595803 59.5797521,21.1508008 59.6852702,21.0353613 L60.0509029,20.642423 C60.102435,20.5891432 60.1515132,20.5358634 60.2030454,20.4848036 L60.2030454,20.4848036 C60.239854,20.4448438 60.2766627,20.404884 60.3183792,20.3649242 C60.4386208,20.2383847 60.5637702,20.1162852 60.6840118,19.9919657 C60.8852325,19.7877266 61.0889071,19.5857075 61.2999434,19.3881283 C61.4545397,19.237169 61.61159,19.0884296 61.7710942,18.9441302 L61.8717045,18.8508906 C62.0287548,18.7065913 62.1858051,18.5622919 62.3453093,18.4202125 C62.7403889,18.067234 63.1452841,17.7209155 63.5501793,17.3901369 C63.6851444,17.2769174 63.8201095,17.1681379 63.9575285,17.0615783 C64.0949475,16.9550188 64.1562952,16.901739 64.2593595,16.8240393 C64.3624237,16.7463397 64.4777575,16.6531001 64.5881835,16.5709604 C65.4640084,15.90068 66.3798794,15.2744389 67.3316554,14.6950684 C67.4428994,14.6255087 67.5533254,14.558909 67.6629334,14.4952693 C67.8666079,14.3731698 68.0702825,14.2555103 68.2715032,14.1445108 L68.5954194,13.9624716 L69.0297615,13.7404725 L72.3646259,12 L73.9130435,12.8080765 Z" id="路径" stroke="#8D2BF4" stroke-width="1" fill="#FFFFFF" stroke-linecap="round" stroke-linejoin="round"></path>
                    <path d="M47.958587,42.0060976 C47.871087,42.3353659 47.783587,42.6707317 47.693587,43 C47.783587,42.6646341 47.871087,42.3292683 47.956087,42 L47.958587,42.0060976 Z" id="路径" stroke="#8D2BF4" stroke-width="1" fill="#FFFFFF" stroke-linecap="round" stroke-linejoin="round"></path>
                    <path d="M47.858587,41.95055 C47.838587,41.98505 47.816087,42.01495 47.793587,42.04945 L47.793587,42.04945 C47.8176391,42.0178612 47.8393547,41.98482 47.858587,41.95055 L47.858587,41.95055 Z" id="路径" stroke="#8D2BF4" stroke-width="1" fill="#FFFFFF" stroke-linecap="round" stroke-linejoin="round"></path>
                    <path d="M51.0869565,45.2154665 L51.056233,45.1981327 L51.056233,45.1981327 L51.0029788,45.1721321 L50.9804482,45.1721321 L50.9415317,45.1721321 L50.900567,45.1721321 L50.8698434,45.1721321 L50.779721,45.1721321 L50.7162256,45.1721321 L50.7162256,45.1721321 C50.6855021,45.1721321 50.6568268,45.1894658 50.6220068,45.2010217 L50.5953797,45.2010217 C50.5743242,45.2080314 50.5537588,45.2177003 50.5339326,45.2299112 L50.4929678,45.2530229 C50.4406666,45.2833998 50.3900086,45.3191254 50.3413983,45.3599143 C50.30453,45.3888039 50.2676618,45.4263603 50.2287453,45.4610278 C50.1907525,45.4960481 50.154484,45.5346557 50.1201887,45.5765861 C50.0830284,45.6149736 50.0480977,45.6574797 50.0157286,45.7037002 L49.9747639,45.7585904 C49.9641412,45.7726172 49.9545354,45.7881014 49.9460886,45.8048137 C49.9144867,45.8469512 49.8844078,45.8913046 49.8559662,45.9377057 C49.8231944,45.9897069 49.7945191,46.0417081 49.7658437,46.0937094 C49.7371684,46.1457106 49.7166861,46.183267 49.6921072,46.2323793 C49.6675284,46.2814916 49.6490942,46.319048 49.6286119,46.3652713 C49.6081295,46.4114946 49.5917436,46.4490511 49.5733095,46.4952744 C49.5569236,46.5328308 49.5405377,46.5732762 49.5262,46.6137216 L49.5118624,46.654167 C49.4997171,46.6840907 49.4887759,46.7149551 49.4790906,46.7466136 L49.4360776,46.8795056 C49.4196917,46.9257289 49.4074023,46.9719523 49.3930646,47.0181756 L49.3746305,47.0903995 L49.3561964,47.1655124 C49.3518376,47.182448 49.3484137,47.1998335 49.3459552,47.2175136 C49.3459552,47.2521811 49.3295693,47.2868486 49.3234246,47.321516 C49.3172799,47.3561835 49.3234246,47.321516 49.3234246,47.3417387 C49.3234246,47.39374 49.3049904,47.4428522 49.2988457,47.4919645 L49.2988457,47.4919645 C49.2900354,47.5463271 49.2831991,47.6012889 49.2783634,47.656635 C49.2772551,47.6739335 49.2772551,47.6913378 49.2783634,47.7086363 C49.2773513,47.7326897 49.2773513,47.7568067 49.2783634,47.7808602 C49.275373,47.8568776 49.275373,47.9330704 49.2783634,48.0090878 C49.2518307,48.3968249 49.3745297,48.7749161 49.5999366,49 L48.1477366,47.8097498 C47.92285,47.5844953 47.8015066,47.205757 47.8302599,46.8188375 C47.8302599,46.7552805 47.8302599,46.6888345 47.8302599,46.6223885 C47.8317971,46.5874046 47.8352207,46.5526366 47.8405011,46.518386 C47.8384832,46.4914975 47.8384832,46.4643837 47.8405011,46.4374952 C47.8446645,46.3926966 47.8508213,46.3483117 47.8589352,46.3046032 C47.8579724,46.2853674 47.8579724,46.2660598 47.8589352,46.2468241 C47.8589352,46.2063787 47.8732729,46.1659333 47.8814658,46.1283768 C47.88502,46.1038515 47.8898114,46.0797155 47.8958035,46.0561529 C47.8958035,46.0272633 47.9080929,45.9983738 47.9162858,45.9694842 C47.9202583,45.9416301 47.926442,45.9144955 47.93472,45.8885934 C47.9392617,45.8660144 47.9447329,45.8438281 47.9511059,45.8221474 C47.9633953,45.7759241 47.9756847,45.7297008 47.9900224,45.6834775 C47.9900224,45.6834775 47.9900224,45.6834775 47.9900224,45.6834775 L48.0309871,45.5621413 C48.0376574,45.5394452 48.0451782,45.5172653 48.0535177,45.4956953 L48.0780966,45.4321382 C48.0924342,45.3916928 48.1067719,45.3512474 48.1231578,45.310802 C48.1395437,45.2703566 48.1231578,45.310802 48.1231578,45.310802 C48.1231578,45.310802 48.160026,45.2241333 48.1805084,45.180799 L48.1989425,45.1461315 L48.246052,45.0507959 C48.2688102,45.0027013 48.2934262,44.9564081 48.3197885,44.912126 C48.3341262,44.8803475 48.3525603,44.8485689 48.3709944,44.8139014 L48.4078627,44.7561223 L48.4652133,44.6636757 L48.4652133,44.6636757 C48.4839842,44.6343349 48.5038099,44.6063715 48.5246122,44.5798959 C48.5741454,44.5097148 48.6268254,44.4440966 48.6823264,44.3834469 C48.7130424,44.3472169 48.7451825,44.3134588 48.7785936,44.2823334 C48.8140133,44.244695 48.8509429,44.2099699 48.8891984,44.1783309 C48.9382908,44.136952 48.9896622,44.1012064 49.0428161,44.0714395 C49.0796844,44.0512168 49.1124562,44.0338831 49.1472762,44.0194383 L49.1739033,44.0194383 L49.2251092,44.0021046 L49.2476398,44.0021046 L49.2619775,44.0021046 C49.2755599,43.9992985 49.2893598,43.9992985 49.3029422,44.0021046 L49.4114988,44.0021046 L49.45656,44.0021046 L49.4852353,44.0021046 L49.5262,44.0021046 L49.5487306,44.0021046 C49.5748049,44.0135428 49.6001549,44.0280382 49.6245154,44.0454389 L49.6531907,44.0627727 L51.0869565,45.2154665 Z" id="路径" stroke="#8D2BF4" stroke-width="1" fill="#FFFFFF" stroke-linecap="round" stroke-linejoin="round"></path>
                    <path d="M49.4488958,45.1596853 C50.3640135,44.7887664 51.0839061,45.0855015 51.0869565,45.8273392 C51.024869,46.6450624 50.4208103,47.3924694 49.4610973,47.8390286 C48.5459796,48.2121294 47.826087,47.9132124 47.826087,47.1844659 C47.8807605,46.362237 48.4845415,45.6088986 49.4488958,45.1596853 L49.4488958,45.1596853 Z" id="路径" stroke="#8D2BF4" stroke-width="1" fill="#FFFFFF" stroke-linecap="round" stroke-linejoin="round"></path>
                    <path d="M73.9130435,12 L73.9130435,13.6685169 L70.5464749,15.4488769 C65.6020599,18.0760492 60.9553518,22.584012 57.4697005,28.1396483 L49.5308505,40.7710743 C45.7474923,46.8014733 40.7063226,51.6928983 35.3376753,54.5460393 L32.6086957,56 L32.6086957,54.3314831 L35.3376753,52.8775224 C40.2870521,50.2480676 44.9312793,45.7401048 48.4169306,40.1844685 L56.3433762,27.5530425 C60.1267343,21.5226436 65.1679041,16.6312186 70.5365514,13.78036 L73.9130435,12 Z" id="路径" stroke="#8D2BF4" stroke-width="1" fill="#D4B2F9" stroke-linecap="round" stroke-linejoin="round"></path>
                    <polygon id="路径" stroke="#5C4CD6" stroke-width="1" fill="#FFFFFF" stroke-linecap="round" stroke-linejoin="round" points="33.6956522 58 31.5285969 56.9954504 31.5217391 55 33.6887944 56.0045496"></polygon>
                    <polygon id="路径" stroke="#8D2BF4" stroke-width="1" fill="#FFFFFF" stroke-linecap="round" stroke-linejoin="round" points="76.0869565 68 68.5076794 64.4045843 68.4782609 56 76.057538 59.5932327"></polygon>
                    <polygon id="路径" stroke="#8D2BF4" stroke-width="1" fill="#D4B2F9" stroke-linecap="round" stroke-linejoin="round" points="78.7840075 51 83.6956522 55.4443567 81.0171572 57.1539069 81.0407091 66.269929 76.7671073 69 76.7435553 59.8816101 73.9130435 61.6906077"></polygon>
                    <polygon id="路径" stroke="#8D2BF4" stroke-width="1" fill="#FFFFFF" stroke-linecap="round" stroke-linejoin="round" points="72.4515679 60 65.2173913 56.2574257 71.026693 46 78.2608696 49.7403019"></polygon>
                    <path d="M73.9130435,30.2096885 L73.8846012,30.1923548 L73.8846012,30.1923548 L73.8317798,30.1663542 L73.8094323,30.1663542 L73.770832,30.1663542 L73.7362949,30.1663542 L73.705821,30.1663542 L73.6143994,30.1663542 L73.55142,30.1663542 L73.55142,30.1663542 C73.5205876,30.1735263 73.490065,30.1831716 73.4599983,30.1952438 L73.4335876,30.1952438 C73.4127032,30.2022535 73.392305,30.2119224 73.3726398,30.2241333 L73.332008,30.247245 C73.2794668,30.2775876 73.2285433,30.3133119 73.1796385,30.3541364 C73.141711,30.3847616 73.1050795,30.4185241 73.0699325,30.4552499 C73.0322485,30.4902701 72.9962748,30.5288778 72.9622581,30.5708082 C72.9253998,30.6091957 72.8907529,30.6517018 72.8586469,30.6979223 L72.8159835,30.7528124 C72.8054471,30.7668393 72.7959193,30.7823235 72.7875412,30.7990358 C72.756196,30.8411732 72.7263616,30.8855267 72.6981511,30.9319278 C72.6676772,30.98104 72.6392349,31.0359302 72.6107926,31.0879314 C72.5823503,31.1399327 72.5620344,31.1774891 72.5376553,31.2266014 C72.5132762,31.2757136 72.4949918,31.3132701 72.4746759,31.3594934 L72.4177913,31.4894965 C72.4005962,31.5276421 72.3849938,31.5671928 72.3710647,31.6079437 C72.3710647,31.6223885 72.3609067,31.6339443 72.3568435,31.6483891 C72.344797,31.6783128 72.3339446,31.7091772 72.324338,31.7408357 L72.2816746,31.8737277 L72.2410427,32.0123977 L72.2227584,32.0846216 L72.2044741,32.1568455 C72.2003879,32.1748656 72.1969968,32.1931896 72.1943161,32.2117357 C72.1943161,32.2464032 72.1780634,32.2810706 72.1719686,32.3157381 C72.1658738,32.3504056 72.1719686,32.3157381 72.1719686,32.3359608 C72.1618106,32.387962 72.1536843,32.4370743 72.1475895,32.4861866 L72.1475895,32.4861866 C72.1388508,32.5405492 72.13207,32.595511 72.1272736,32.6508571 C72.1262932,32.6671982 72.1262932,32.6836283 72.1272736,32.6999694 C72.1262688,32.7249866 72.1262688,32.750065 72.1272736,32.7750823 C72.1209181,32.850832 72.1175269,32.9270252 72.1171156,33.0033099 C72.084654,33.3862014 72.1966257,33.7650484 72.4116965,34 L70.9733289,32.8097498 C70.7488117,32.585996 70.6274436,32.2065251 70.6564005,31.8188375 C70.6564005,31.7552805 70.6564005,31.6888345 70.6564005,31.6223885 C70.6577908,31.5873857 70.6611881,31.5526027 70.6665584,31.518386 C70.6645569,31.4914975 70.6645569,31.4643837 70.6665584,31.4374952 C70.670688,31.3926966 70.6767948,31.3483117 70.6848428,31.3046032 C70.6838878,31.2853674 70.6838878,31.2660598 70.6848428,31.2468241 C70.6848428,31.2063787 70.6990639,31.1659333 70.7071903,31.1283768 C70.7107156,31.1038515 70.7154681,31.0797155 70.7214114,31.0561529 C70.7214114,31.0272633 70.733601,30.9954848 70.7417274,30.9665953 C70.7459829,30.9397947 70.7521081,30.9136647 70.7600117,30.8885934 C70.7643165,30.8655312 70.7704506,30.8432395 70.778296,30.8221474 C70.7904856,30.7759241 70.8026752,30.7297008 70.8168963,30.6834775 C70.8168963,30.6834775 70.8168963,30.6834775 70.8168963,30.6834775 L70.8575282,30.5621413 C70.8641442,30.5394452 70.8716039,30.5172653 70.8798757,30.4956953 C70.8888316,30.4741824 70.8969697,30.4520018 70.9042548,30.4292493 L70.9489498,30.310802 C70.9489498,30.310802 70.9489498,30.310802 70.9489498,30.310802 C70.9489498,30.310802 70.9855185,30.2241333 71.0058344,30.180799 L71.0220872,30.1461315 L71.0688138,30.0507959 C71.0913871,30.0027013 71.1158031,29.9564081 71.1419511,29.912126 C71.1582638,29.878017 71.1758982,29.8452248 71.1947725,29.8139014 L71.2313412,29.7561223 L71.2882258,29.6636757 C71.2882258,29.6636757 71.2882258,29.6636757 71.2882258,29.6636757 C71.3068442,29.6343349 71.3265087,29.6063715 71.347142,29.5798959 C71.3955799,29.5097525 71.4471544,29.4441328 71.501543,29.3834469 C71.5320169,29.3458904 71.5645224,29.3141119 71.5990595,29.2794444 C71.6335965,29.2447769 71.6721968,29.2101095 71.7087655,29.1783309 C71.7569807,29.137542 71.8072271,29.1018164 71.8591033,29.0714395 C71.895672,29.0512168 71.9281775,29.0338831 71.9627145,29.0194383 L71.9911568,29.0194383 L72.0419467,29.0021046 L72.0642942,29.0021046 L72.0866417,29.0021046 C72.1001138,28.9992985 72.1138015,28.9992985 72.1272736,29.0021046 L72.1475895,29.0021046 C72.1536413,29.0006499 72.159822,29.0006499 72.1658738,29.0021046 L72.234948,29.0021046 L72.2776114,29.0021046 L72.3060537,29.0021046 L72.3466856,29.0021046 L72.3690331,29.0021046 C72.3956755,29.013032 72.4215257,29.0275423 72.4462336,29.0454389 L72.4746759,29.0627727 L73.9130435,30.2096885 Z" id="路径" stroke="#8D2BF4" stroke-width="1" fill="#D4B2F9" stroke-linecap="round" stroke-linejoin="round"></path>
                    <path d="M75.5389027,31.1596853 C76.4387685,30.7887664 77.1708627,31.0855015 77.173913,31.8273392 C77.114768,32.6456871 76.5099921,33.3939815 75.5480538,33.8390286 C74.6481881,34.2121294 73.9160939,33.9132124 73.9130435,33.1844659 C73.9688993,32.3619335 74.5737607,31.6086631 75.5389027,31.1596853 Z" id="路径" stroke="#8D2BF4" stroke-width="1" fill="#FFFFFF" stroke-linecap="round" stroke-linejoin="round"></path>
                    <path d="M63.0434783,31.2183554 L63.0147506,31.2010217 L63.0147506,31.2010217 L62.9613993,31.1750211 L62.9388276,31.1750211 L62.8998401,31.1750211 L62.8649565,31.1750211 L62.8341769,31.1750211 L62.7418381,31.1750211 L62.6782269,31.1750211 L62.6782269,31.1750211 C62.6470851,31.1821932 62.6162563,31.1918385 62.585888,31.2039106 L62.5592124,31.2039106 C62.5381185,31.2109204 62.5175156,31.2205892 62.4976531,31.2328002 L62.4566137,31.2559119 C62.4035454,31.2862545 62.352111,31.3219788 62.3027156,31.3628033 C62.2657801,31.3916928 62.2288445,31.4263603 62.191909,31.4610278 C62.1538469,31.4960481 62.1175123,31.5346557 62.0831544,31.5765861 C62.045677,31.6156735 62.010035,31.6581335 61.9764517,31.7037002 L61.9354122,31.7614793 C61.9247702,31.7755062 61.9151468,31.7909904 61.9066846,31.8077026 C61.875025,31.8498401 61.8448913,31.8941935 61.8163977,31.9405946 C61.7856181,31.9897069 61.7568905,32.0417081 61.7281628,32.0937094 C61.6994352,32.1457106 61.6789155,32.183267 61.6542918,32.2323793 L61.5906806,32.3681603 C61.5722128,32.4086057 61.5516931,32.45194 61.5332253,32.4981633 C61.5168095,32.5357198 61.5003937,32.5732762 61.4860299,32.6137216 L61.4716661,32.654167 C61.4594987,32.6840907 61.4485374,32.7149551 61.4388345,32.7466136 C61.4244707,32.789948 61.4101069,32.8332823 61.395743,32.8823946 L61.3547035,33.0210645 L61.3362358,33.0932884 L61.317768,33.1655124 C61.316851,33.1828221 61.316851,33.2002039 61.317768,33.2175136 C61.317768,33.2521811 61.3013522,33.2868486 61.2951963,33.321516 C61.2890404,33.3561835 61.2951963,33.3359608 61.2951963,33.3417387 C61.2850231,33.3921108 61.276803,33.4432245 61.2705726,33.4948535 L61.2705726,33.4948535 C61.2617462,33.5492161 61.2548974,33.6041778 61.2500529,33.659524 C61.2490627,33.6758651 61.2490627,33.6922952 61.2500529,33.7086363 C61.249039,33.7326897 61.249039,33.7568067 61.2500529,33.7808602 C61.2436337,33.8566099 61.2402085,33.9328031 61.239793,34.0090878 C61.2127575,34.3962649 61.3348582,34.7742346 61.559901,35 L60.1071033,33.8097498 C59.8799817,33.5864079 59.7572961,33.2066278 59.7869953,32.8188375 C59.7869953,32.7552805 59.7869953,32.6888345 59.7869953,32.6223885 C59.7884,32.5883392 59.791832,32.554516 59.7972552,32.521275 C59.7952336,32.4943865 59.7952336,32.4672727 59.7972552,32.4403842 C59.8014262,32.3955856 59.8075943,32.3512006 59.8157229,32.3074922 C59.8145609,32.2873026 59.8145609,32.2670137 59.8157229,32.2468241 C59.8157229,32.2063787 59.8300868,32.1659333 59.8382947,32.1283768 C59.8418553,32.1038515 59.8466555,32.0797155 59.8526585,32.0561529 C59.8526585,32.0272633 59.8649703,31.9983738 59.8731782,31.9694842 C59.8774765,31.9426837 59.883663,31.9165537 59.891646,31.8914824 C59.896196,31.8689033 59.9016772,31.846717 59.9080618,31.8250364 C59.9203736,31.7788131 59.9347374,31.7325897 59.9491013,31.6834775 C59.9491013,31.6834775 59.9491013,31.6834775 59.9491013,31.6834775 L59.9901408,31.5621413 C59.9968232,31.5394452 60.0043577,31.5172653 60.0127125,31.4956953 L60.0373362,31.4321382 L60.0824796,31.313691 C60.0824796,31.313691 60.0824796,31.313691 60.0824796,31.313691 C60.0824796,31.313691 60.1194151,31.2270223 60.1399349,31.1836879 L60.1563507,31.1461315 L60.2035461,31.0507959 C60.2263458,31.0027013 60.2510068,30.9564081 60.2774171,30.912126 C60.2932001,30.8789846 60.3103283,30.8471532 60.3287165,30.8167904 L60.367704,30.7590113 L60.4251593,30.6665646 L60.4251593,30.6665646 C60.4439644,30.6372238 60.4638263,30.6092605 60.4846665,30.5827849 C60.5330463,30.5109565 60.5851751,30.4443245 60.6406166,30.3834469 C60.6713886,30.3472169 60.7035873,30.3134588 60.7370593,30.2823334 L60.8499179,30.1812199 C60.8986169,30.140431 60.9493673,30.1047054 61.001764,30.0743285 L61.1064147,30.0223273 L61.1330903,30.0223273 L61.1864417,30.0021046 L61.2090134,30.0021046 L61.2315851,30.0021046 C61.2451923,29.9992985 61.2590174,29.9992985 61.2726246,30.0021046 L61.2931443,30.0021046 C61.2992569,30.0006499 61.3054995,30.0006499 61.3116121,30.0021046 L61.3690674,30.0021046 L61.4121588,30.0021046 L61.4408865,30.0021046 L61.4819259,30.0021046 C61.4887769,30.0087782 61.4964215,30.0136704 61.5044977,30.0165493 C61.5312855,30.027975 61.5573642,30.0424682 61.5824727,30.0598837 L61.6112003,30.0772174 L63.0434783,31.2183554 Z" id="路径" stroke="#8D2BF4" stroke-width="1" fill="#FFFFFF" stroke-linecap="round" stroke-linejoin="round"></path>
                    <path d="M62.4954244,31.1592851 C63.3952902,30.7883795 64.1273844,31.0872858 64.1304348,31.8269153 C64.0693005,32.645394 63.4651284,33.3937254 62.5045756,33.8407149 C61.5894578,34.2116205 60.8726156,33.9127142 60.8695652,33.1730847 C60.9306995,32.354606 61.5348716,31.6062746 62.4954244,31.1592851 Z" id="路径" stroke="#8D2BF4" stroke-width="1" fill="#FFFFFF" stroke-linecap="round" stroke-linejoin="round"></path>
                    <path d="M66.3043478,25.2198348 L66.2759419,25.202521 L66.2759419,25.202521 L66.2231881,25.1765504 L66.2008692,25.1765504 C66.1881033,25.1735884 66.1750843,25.1735884 66.1623184,25.1765504 L66.1278255,25.1765504 L66.0973906,25.1765504 L66.006086,25.1765504 L65.9431873,25.1765504 L65.9431873,25.1765504 C65.912365,25.1847341 65.8818837,25.1953308 65.8518826,25.2082923 L65.8255057,25.2082923 C65.8046481,25.2152939 65.784276,25.2249516 65.764636,25.2371485 L65.7240561,25.2602335 C65.6715822,25.2905411 65.6207239,25.3262241 65.5718817,25.3670015 C65.5353599,25.3958577 65.498838,25.4304852 65.4623162,25.4651126 C65.4246803,25.5000925 65.3887527,25.5386556 65.3547796,25.5805375 C65.3179685,25.6188808 65.2833659,25.6613378 65.251301,25.7075049 C65.23564,25.7244404 65.2213495,25.7437965 65.2086922,25.7652174 C65.1981693,25.779228 65.1886537,25.7946944 65.1802863,25.8113873 C65.1489813,25.8534762 65.1191851,25.8977784 65.0910106,25.944126 C65.0605758,25.9931815 65.0321699,26.0451227 65.003764,26.0970639 C64.9753581,26.1490051 64.9550682,26.1865182 64.9307203,26.2355738 C64.9063724,26.2846294 64.8881114,26.3221425 64.8678215,26.3711981 L64.8110098,26.5010511 C64.7947778,26.5385642 64.7785459,26.5760772 64.7643429,26.616476 C64.75014,26.6568747 64.754198,26.6424466 64.75014,26.6568747 C64.7381088,26.6867638 64.7272704,26.7175926 64.7176761,26.7492146 L64.6750673,26.8819532 C64.6608643,26.9310088 64.6486904,26.9771787 64.6344875,27.0233487 L64.6162265,27.0954893 L64.5979656,27.1676298 C64.5936478,27.1845459 64.590256,27.2019113 64.5878206,27.219571 C64.5878206,27.2541985 64.5715887,27.288826 64.5655017,27.3234534 C64.5594147,27.3580809 64.5655017,27.3234534 64.5655017,27.3436528 C64.5554424,27.3939667 64.5473144,27.4450214 64.5411538,27.4965908 C64.5411538,27.4965908 64.5411538,27.4965908 64.5411538,27.4965908 C64.5324263,27.5508907 64.5256542,27.605789 64.5208639,27.6610712 C64.5198848,27.6773935 64.5198848,27.6938046 64.5208639,27.7101268 C64.5198613,27.7341525 64.5198613,27.7582417 64.5208639,27.7822674 C64.5145166,27.8579296 64.5111298,27.9340349 64.5107189,28.0102315 C64.4839862,28.3969618 64.6047194,28.7744952 64.8272417,29 L63.3643385,27.8168948 C63.1397607,27.5938108 63.0184492,27.2144691 63.0478157,26.8271264 C63.0478157,26.7636427 63.0478157,26.6972734 63.0478157,26.6309041 C63.0492047,26.5968941 63.0525983,26.56311 63.0579607,26.5299073 C63.0559618,26.5030498 63.0559618,26.4759673 63.0579607,26.4491099 C63.0622728,26.4034547 63.0683692,26.3581766 63.0762216,26.3134856 C63.0752679,26.294272 63.0752679,26.2749867 63.0762216,26.2557732 C63.0762216,26.2153745 63.0904246,26.1749757 63.0985405,26.1374627 C63.1020613,26.1129656 63.1068077,26.0888574 63.1127435,26.0653221 C63.1127435,26.0364659 63.1249174,26.0076096 63.1330334,25.9787534 C63.1372835,25.9519838 63.1434008,25.925884 63.1512943,25.9008416 C63.1557934,25.8782886 63.1612132,25.8561279 63.1675263,25.8344723 C63.1797002,25.7883023 63.1939032,25.7392468 63.2081061,25.6930768 C63.2081061,25.6930768 63.2081061,25.6930768 63.2081061,25.6930768 L63.2486859,25.5718807 C63.2552935,25.5492108 63.2627437,25.5270565 63.2710049,25.5055114 L63.2953528,25.4420277 L63.3399906,25.3237172 C63.3399906,25.3237172 63.3399906,25.3237172 63.3399906,25.3237172 C63.3399906,25.3237172 63.3765124,25.2371485 63.3968024,25.1938641 L63.4130343,25.1563511 L63.4597011,25.0611255 C63.4822455,25.0130864 63.5066302,24.9668467 63.5327448,24.9226157 C63.5484196,24.888825 63.5660665,24.8569707 63.5854986,24.8273901 L63.6220205,24.7696777 L63.6788322,24.6773378 C63.6788322,24.6773378 63.6788322,24.6773378 63.6788322,24.6773378 L63.737673,24.5907691 C63.786049,24.5207066 63.8375574,24.4551627 63.8918764,24.3945468 C63.9226276,24.3576617 63.9551725,24.3239121 63.989268,24.29355 C64.0257899,24.2560369 64.0623117,24.224295 64.0988336,24.1925532 C64.1469871,24.1518114 64.1971691,24.116127 64.248979,24.0857852 L64.3524576,24.033844 L64.3788345,24.0194159 L64.4315883,24.0021021 L64.4539072,24.0021021 L64.4762261,24.0021021 C64.4896809,23.9992993 64.5033511,23.9992993 64.5168059,24.0021021 L64.5370958,24.0021021 C64.5431399,24.0006492 64.5493127,24.0006492 64.5553568,24.0021021 L64.6243425,24.0021021 L64.6669513,24.0021021 L64.6953572,24.0021021 L64.735937,24.0021021 L64.758256,24.0021021 C64.7847938,24.0144952 64.8105793,24.029936 64.8353577,24.0482721 L64.8637635,24.0655858 L66.3043478,25.2198348 Z" id="路径" stroke="#8D2BF4" stroke-width="1" fill="#FFFFFF" stroke-linecap="round" stroke-linejoin="round"></path>
                    <path d="M66.8432505,24.1592851 C67.7431163,23.7883795 68.4752105,24.0872858 68.4782609,24.8269153 C68.4181053,25.6456016 67.8136951,26.3942279 66.8524017,26.8407149 C65.9525359,27.2116205 65.2204417,26.9127142 65.2173913,26.1730847 C65.2785256,25.354606 65.8826977,24.6062746 66.8432505,24.1592851 Z" id="路径" stroke="#8D2BF4" stroke-width="1" fill="#FFFFFF" stroke-linecap="round" stroke-linejoin="round"></path>
                    <path d="M52.173913,25.224193 L52.1455767,25.2068992 L52.1455767,25.2068992 L52.092952,25.1809585 L52.0706877,25.1809585 L52.0322312,25.1809585 L51.9978227,25.1809585 L51.9674623,25.1809585 L51.8763811,25.1809585 L51.8136363,25.1809585 L51.8136363,25.1809585 C51.7829187,25.1881141 51.7525098,25.1977372 51.7225551,25.2097815 L51.6962428,25.2097815 C51.6754362,25.2167751 51.6551139,25.2264216 51.635522,25.2386044 L51.5950414,25.2616628 C51.5425158,25.2913611 51.4917516,25.3270242 51.4432395,25.3683077 C51.4054532,25.3988624 51.368958,25.432547 51.333942,25.4691881 C51.2963983,25.5041276 51.2605586,25.5426463 51.2266686,25.5844799 C51.1897017,25.6234772 51.1545451,25.6658393 51.1214192,25.7113009 L51.0809387,25.7660645 C51.0704416,25.780059 51.0609493,25.7955075 51.0526023,25.8121812 C51.0213739,25.8542216 50.9916506,25.8984727 50.9635452,25.9447668 C50.9331848,25.9937659 50.9048484,26.0485295 50.876512,26.1004108 C50.8481756,26.1522921 50.8279354,26.1897619 50.8036471,26.238761 C50.7793587,26.28776 50.7611425,26.3252298 50.7409022,26.3713466 C50.7203886,26.4130996 50.7014702,26.4563968 50.6842295,26.5010499 C50.6670985,26.5391075 50.6515541,26.578567 50.6376769,26.619224 C50.6376769,26.619224 50.6376769,26.6451646 50.6235087,26.6595761 C50.611507,26.6894308 50.6006951,26.720224 50.5911243,26.7518096 L50.5486197,26.8843951 L50.5081392,27.0227453 L50.4899229,27.0948027 L50.4717067,27.1668601 C50.4676357,27.1848387 50.4642573,27.2031204 50.4615866,27.2216237 C50.4615866,27.2562113 50.4453944,27.2907988 50.4393223,27.3253863 C50.4332502,27.3599739 50.4393223,27.3253863 50.4393223,27.3455624 C50.4393223,27.3974437 50.421106,27.4464428 50.415034,27.4954418 C50.415034,27.4954418 50.415034,27.4954418 50.415034,27.4954418 C50.4063278,27.5496791 50.3995723,27.6045141 50.3947937,27.6597326 C50.393817,27.676036 50.393817,27.6924282 50.3947937,27.7087316 C50.3937927,27.7336912 50.3937927,27.7587118 50.3947937,27.7836713 C50.3918387,27.8595134 50.3918387,27.9355305 50.3947937,28.0113727 C50.368978,28.3974548 50.4892308,28.773974 50.7105418,29 L49.2330025,27.8182589 C49.0093214,27.595021 48.8884053,27.2164251 48.9172543,26.8296315 C48.9172543,26.766221 48.9172543,26.6999282 48.9172543,26.6336354 C48.9184951,26.5986936 48.9218814,26.5639736 48.9273744,26.5298728 C48.9253804,26.5030463 48.9253804,26.475995 48.9273744,26.4491685 C48.9314886,26.4044732 48.9375727,26.3601906 48.9455907,26.3165829 C48.9446393,26.2973915 48.9446393,26.2781285 48.9455907,26.258937 C48.9455907,26.2185849 48.9597589,26.1782328 48.967855,26.1407629 C48.9713672,26.1162941 48.9761019,26.0922138 48.9820232,26.0687055 C48.9820232,26.0398826 48.9941673,26.0081773 49.0022634,25.9793544 C49.0065031,25.9526156 49.0126054,25.9265459 49.0204797,25.9015324 C49.0249677,25.8790054 49.0303743,25.8568703 49.0366719,25.8352396 C49.0484327,25.7881331 49.0619454,25.7419511 49.0771524,25.6968894 C49.0771524,25.6968894 49.0771524,25.6968894 49.0771524,25.6968894 L49.1176329,25.575833 C49.1242243,25.5531893 49.1316562,25.5310605 49.1398972,25.5095402 C49.1488198,25.4880769 49.1569276,25.4659475 49.1641855,25.4432474 L49.2087141,25.3250733 C49.2087141,25.3250733 49.2087141,25.3250733 49.2087141,25.3250733 C49.2087141,25.3250733 49.2451466,25.2386044 49.2653869,25.19537 L49.2815791,25.1607825 L49.3281317,25.0656667 C49.350621,25.017683 49.374946,24.9714966 49.4009967,24.9273165 C49.4160422,24.8928205 49.4329608,24.8600545 49.4515973,24.8293185 L49.4900538,24.7716726 L49.5467266,24.6794391 L49.5467266,24.6794391 C49.5652756,24.650166 49.5848669,24.6222671 49.6054233,24.5958526 C49.6536809,24.5258709 49.7050633,24.4604025 49.7592494,24.3998565 C49.7896098,24.3623866 49.8219942,24.3306814 49.8543786,24.2960938 L49.9657001,24.1952135 C50.0243942,24.1462071 50.0860324,24.1047309 50.1498865,24.0712748 C50.186319,24.0510987 50.2187034,24.033805 50.2531118,24.0193935 L50.2794242,24.0193935 L50.3320489,24.0020997 L50.3543132,24.0020997 L50.3765775,24.0020997 C50.3899994,23.9993001 50.4036361,23.9993001 50.417058,24.0020997 L50.4372983,24.0020997 C50.4433276,24.0006484 50.4494852,24.0006484 50.4555145,24.0020997 L50.5243314,24.0020997 L50.566836,24.0020997 L50.5951723,24.0020997 L50.6356529,24.0020997 L50.6579172,24.0020997 C50.6842149,24.0140057 50.7099121,24.0284506 50.7348302,24.0453341 L50.7631665,24.0626279 L52.173913,25.224193 Z" id="路径" stroke="#8D2BF4" stroke-width="1" fill="#FFFFFF" stroke-linecap="round" stroke-linejoin="round"></path>
                    <path d="M51.6258592,26.1614894 C52.5409769,25.787188 53.2578192,26.0870669 53.2608696,26.8181585 C53.201205,27.639613 52.5966752,28.3908238 51.6350104,28.8385106 C50.7351446,29.212812 50.0030504,28.9129331 50,28.1818415 C50.0606455,27.3605955 50.6649364,26.6096815 51.6258592,26.1614894 L51.6258592,26.1614894 Z" id="路径" stroke="#8D2BF4" stroke-width="1" fill="#FFFFFF" stroke-linecap="round" stroke-linejoin="round"></path>
                    <path d="M42.3913043,30.2154665 L42.3606193,30.1981327 L42.3606193,30.1981327 L42.307432,30.1721321 L42.2849297,30.1721321 L42.246062,30.1721321 L42.2112857,30.1721321 L42.1806006,30.1721321 L42.0905913,30.1721321 L42.0271756,30.1721321 L42.0271756,30.1721321 C41.9954541,30.1792936 41.9640388,30.1889383 41.9330749,30.2010217 L41.9064813,30.2010217 C41.8854522,30.2080314 41.8649127,30.2177003 41.8451113,30.2299112 L41.8041979,30.2530229 C41.7519623,30.2833998 41.7013678,30.3191254 41.6528186,30.3599143 C41.6159966,30.3888039 41.5791746,30.4234714 41.5403069,30.4610278 C41.5023617,30.4960481 41.4661388,30.5346557 41.4318865,30.5765861 C41.3947729,30.6149736 41.359886,30.6574797 41.3275575,30.7037002 L41.2866442,30.7585904 C41.2760348,30.7726172 41.266441,30.7881014 41.2580048,30.8048137 C41.2264426,30.8469512 41.1964015,30.8913046 41.1679955,30.9377057 C41.1352648,30.9868179 41.1066255,31.0417081 41.0779861,31.0937094 C41.0493468,31.1457106 41.0288901,31.183267 41.0043421,31.2323793 C40.9797941,31.2814916 40.9613831,31.319048 40.9409264,31.3652713 L40.8856934,31.4952744 C40.8683793,31.53342 40.8526687,31.5729707 40.8386431,31.6137216 C40.8386431,31.6281664 40.8386431,31.6397222 40.8243234,31.654167 C40.8121934,31.6840907 40.8012659,31.7149551 40.7915928,31.7466136 L40.7465881,31.8795056 L40.7056747,32.0181756 L40.6872637,32.0903995 L40.6688527,32.1626234 C40.6647382,32.1806435 40.6613237,32.1989675 40.6586244,32.2175136 C40.6586244,32.2521811 40.6422591,32.2868486 40.6361221,32.321516 C40.6299851,32.3561835 40.6361221,32.321516 40.6361221,32.3417387 C40.6258937,32.39374 40.6177111,32.4428522 40.6115741,32.4919645 L40.6115741,32.4919645 C40.6027748,32.5463271 40.595947,32.6012889 40.5911174,32.656635 C40.5901303,32.6729761 40.5901303,32.6894062 40.5911174,32.7057473 C40.5901057,32.7307646 40.5901057,32.7558429 40.5911174,32.7808602 C40.584718,32.8566099 40.5813033,32.9328031 40.5808891,33.0090878 C40.5543897,33.3968249 40.6769348,33.7749161 40.9020588,34 L39.4516809,32.8097498 C39.2270764,32.5844953 39.1058853,32.205757 39.1346025,31.8188375 C39.1346025,31.7552805 39.1346025,31.6888345 39.1346025,31.6223885 C39.1360024,31.5873857 39.1394233,31.5526027 39.1448308,31.518386 C39.1428154,31.4914975 39.1428154,31.4643837 39.1448308,31.4374952 C39.148989,31.3926966 39.1551381,31.3483117 39.1632418,31.3046032 C39.1622802,31.2853674 39.1622802,31.2660598 39.1632418,31.2468241 C39.1632418,31.2063787 39.1775615,31.1659333 39.1857442,31.1283768 C39.1892939,31.1038515 39.1940793,31.0797155 39.2000638,31.0561529 C39.2000638,31.0272633 39.2123378,30.9954848 39.2205205,30.9665953 C39.2248056,30.9397947 39.2309731,30.9136647 39.2389315,30.8885934 C39.2434675,30.8660144 39.2489319,30.8438281 39.2552968,30.8221474 C39.2675708,30.7759241 39.2798448,30.7297008 39.2941645,30.6834775 C39.3084842,30.6372542 39.2941645,30.6834775 39.2941645,30.6834775 L39.3350779,30.5621413 C39.3417397,30.5394452 39.3492511,30.5172653 39.3575802,30.4956953 C39.3665982,30.4741824 39.3747926,30.4520018 39.3821282,30.4292493 L39.4271329,30.310802 C39.4271329,30.310802 39.4271329,30.310802 39.4271329,30.310802 C39.4271329,30.310802 39.4639549,30.2241333 39.4844115,30.180799 L39.5007769,30.1461315 L39.5498729,30.0507959 C39.5726026,30.0027013 39.5971877,29.9564081 39.6235169,29.912126 C39.6392233,29.8780335 39.6562985,29.8452383 39.6746586,29.8139014 L39.7114806,29.7561223 L39.7687593,29.6636757 L39.7687593,29.6636757 C39.7875066,29.6343349 39.8073074,29.6063715 39.8280836,29.5798959 C39.8775547,29.5097148 39.9301686,29.4440966 39.9856,29.3834469 C40.016285,29.3458904 40.0490156,29.3141119 40.0817463,29.2794444 C40.114477,29.2447769 40.1553903,29.2101095 40.1922123,29.1783309 C40.2412432,29.136952 40.2925501,29.1012064 40.3456374,29.0714395 C40.3824594,29.0512168 40.41519,29.0338831 40.4499664,29.0194383 L40.47656,29.0194383 L40.5277017,29.0021046 L40.5502041,29.0021046 L40.5727064,29.0021046 C40.5862718,28.9992985 40.6000543,28.9992985 40.6136197,29.0021046 L40.7220401,29.0021046 L40.7670448,29.0021046 L40.7956841,29.0021046 L40.8365974,29.0021046 L40.8590998,29.0021046 C40.8851413,29.0135428 40.9104595,29.0280382 40.9347894,29.0454389 L40.9634288,29.0627727 L42.3913043,30.2154665 Z" id="路径" stroke="#8D2BF4" stroke-width="1" fill="#FFFFFF" stroke-linecap="round" stroke-linejoin="round"></path>
                    <path d="M42.930207,31.1596998 C43.8300728,30.7887471 44.5652174,31.0855093 44.5652174,31.8274147 C44.505775,32.6452216 43.9024396,33.393205 42.9424086,33.8392875 C42.0425428,34.2124223 41.3073982,33.9134781 41.3043478,33.1737547 C41.3664567,32.3553794 41.9703921,31.6072463 42.930207,31.1596998 Z" id="路径" stroke="#8D2BF4" stroke-width="1" fill="#FFFFFF" stroke-linecap="round" stroke-linejoin="round"></path>
                    <path d="M36.9565217,46.2161691 L36.9278842,46.1988254 L36.9278842,46.1988254 L36.8747002,46.1728097 L36.8521993,46.1728097 L36.8133341,46.1728097 L36.7785599,46.1728097 L36.7458313,46.1728097 L36.6558276,46.1728097 L36.592416,46.1728097 L36.592416,46.1728097 C36.5613719,46.179986 36.5306398,46.1896369 36.5003667,46.201716 L36.4737747,46.201716 C36.452747,46.2087298 36.4322087,46.2184043 36.4124086,46.2306223 L36.3714978,46.2537473 C36.3184139,46.2835314 36.2671102,46.3192977 36.2180825,46.3607005 C36.1812628,46.3896068 36.1444431,46.4242943 36.1076234,46.4589818 C36.0696807,46.4940223 36.03346,46.5326523 35.9992099,46.5746069 C35.9609361,46.6131392 35.925322,46.6566919 35.8928419,46.7046851 L35.8519311,46.759607 C35.8413225,46.773642 35.8317293,46.7891351 35.8232936,46.8058571 C35.7917333,46.8480189 35.7616941,46.892398 35.7332899,46.9388259 C35.7026069,46.9879666 35.6739693,47.0399979 35.6453318,47.0920292 L35.5716924,47.2307793 C35.551237,47.2770293 35.5266906,47.3203887 35.5062352,47.3666387 C35.4857798,47.4128888 35.4694155,47.4504669 35.4510057,47.4967169 C35.4346414,47.5342951 35.4182771,47.5718733 35.4039583,47.612342 C35.3896395,47.6528108 35.3937306,47.6383577 35.3896395,47.6528108 C35.3775103,47.6827518 35.3665834,47.713634 35.3569109,47.7453109 L35.3139546,47.8811703 L35.2730439,48.0199204 L35.254634,48.0921861 L35.2362242,48.1644518 C35.2318712,48.1813972 35.2284517,48.1987928 35.2259965,48.2164831 C35.2259965,48.2511706 35.2096322,48.2858581 35.2034956,48.3205457 C35.1973589,48.3552332 35.2034956,48.3205457 35.2034956,48.3407801 C35.1932679,48.3928113 35.1850857,48.4448426 35.1789491,48.4939833 C35.1789491,48.4939833 35.1789491,48.4939833 35.1789491,48.4939833 C35.1701504,48.5483774 35.1633231,48.6033709 35.1584937,48.658749 C35.1575067,48.6750996 35.1575067,48.6915392 35.1584937,48.7078897 C35.157483,48.7319571 35.157483,48.756088 35.1584937,48.7801554 C35.1520315,48.8569084 35.1486169,48.9341127 35.148266,49.0114055 C35.1220738,49.3978197 35.2437061,49.7746404 35.46737,50 L34.019129,48.8090616 C33.7927198,48.5855907 33.670419,48.205591 33.700025,47.8175766 C33.700025,47.7539828 33.700025,47.6874983 33.700025,47.6210139 C33.6980423,47.5873481 33.6980423,47.5535078 33.700025,47.519842 C33.6980098,47.4929379 33.6980098,47.4658084 33.700025,47.4389044 C33.7041829,47.3940799 33.7103317,47.3496693 33.7184349,47.3059356 C33.7174733,47.2866887 33.7174733,47.2673699 33.7184349,47.248123 C33.72447,47.2071401 33.7319801,47.1666187 33.7409358,47.1267167 C33.7444853,47.1021772 33.7492704,47.0780272 33.7552546,47.054451 C33.7552546,47.0255447 33.7675278,46.9966385 33.7757099,46.9677322 C33.7799947,46.9409162 33.7861619,46.9147711 33.7941198,46.8896853 C33.7986555,46.8670932 33.8041196,46.844894 33.8104841,46.8232008 C33.8227573,46.7769508 33.8350305,46.7307008 33.8493493,46.6844507 C33.8493493,46.6844507 33.8493493,46.6844507 33.8493493,46.6844507 C33.8493493,46.6844507 33.8759413,46.6006226 33.8923056,46.5601538 C33.8989671,46.5374446 33.906478,46.5152518 33.9148065,46.4936693 L33.939353,46.4300756 L33.9843548,46.3115598 L33.9843548,46.3115598 C34.0027647,46.2682004 34.0211745,46.224841 34.0416299,46.1814816 L34.0579942,46.1467941 L34.1050416,46.0485128 C34.1277699,46.0003904 34.1523534,45.9540704 34.178681,45.9097627 C34.1944144,45.8766021 34.2114889,45.8447523 34.2298194,45.814372 L34.2666391,45.7565594 L34.3259597,45.6640594 C34.3259597,45.6640594 34.3259597,45.6640594 34.3259597,45.6640594 L34.3852803,45.5802312 C34.4335083,45.5083613 34.4854736,45.4416908 34.5407412,45.3807779 C34.5714167,45.344527 34.6035145,45.3107494 34.6368815,45.279606 C34.6737012,45.2420278 34.7125664,45.2102309 34.7493861,45.178434 C34.7979323,45.1376215 34.8485236,45.1018753 34.9007559,45.0714808 L35.0050784,45.0194495 L35.0316704,45.0194495 L35.0828088,45.0021058 L35.1073553,45.0021058 L35.1298562,45.0021058 C35.1434207,44.9992981 35.1572024,44.9992981 35.1707669,45.0021058 L35.1912223,45.0021058 C35.1973157,45.0006503 35.2035388,45.0006503 35.2096322,45.0021058 L35.2791805,45.0021058 L35.3221368,45.0021058 L35.3507743,45.0021058 L35.3916851,45.0021058 L35.414186,45.0021058 C35.4402259,45.0135506 35.4655425,45.0280544 35.4898709,45.0454652 L35.520554,45.0628089 L36.9565217,46.2161691 Z" id="路径" stroke="#8D2BF4" stroke-width="1" fill="#D4B2F9" stroke-linecap="round" stroke-linejoin="round"></path>
                    <path d="M37.4954244,46.1592851 C38.3952902,45.7883795 39.1273844,46.0872858 39.1304348,46.8269153 C39.0693005,47.645394 38.4651284,48.3937254 37.5045756,48.8407149 C36.6047098,49.2116205 35.8726156,48.9127142 35.8695652,48.1730847 C35.9306995,47.354606 36.5348716,46.6062746 37.4954244,46.1592851 Z" id="路径" stroke="#8D2BF4" stroke-width="1" fill="#FFFFFF" stroke-linecap="round" stroke-linejoin="round"></path>
                </g>
            </g>
        </g>
    </g>
</svg>