<?xml version="1.0" encoding="UTF-8"?>
<svg width="101px" height="55px" viewBox="0 0 101 55" version="1.1" xmlns="http://www.w3.org/2000/svg" xmlns:xlink="http://www.w3.org/1999/xlink">
    <title>2 (1)备份 6</title>
    <defs>
        <rect id="path-1" x="0" y="0" width="101" height="55" rx="8"></rect>
        <linearGradient x1="-22.8322989%" y1="49.9998762%" x2="99.9996313%" y2="49.9998762%" id="linearGradient-3">
            <stop stop-color="#8199CF" offset="0%"></stop>
            <stop stop-color="#F9FAFE" offset="100%"></stop>
        </linearGradient>
        <linearGradient x1="10.7852033%" y1="38.4441334%" x2="100%" y2="46.5969611%" id="linearGradient-4">
            <stop stop-color="#D8E3FC" offset="0%"></stop>
            <stop stop-color="#D4E0FE" offset="48.1463044%"></stop>
            <stop stop-color="#C3D1F8" offset="100%"></stop>
        </linearGradient>
        <linearGradient x1="0.000385075995%" y1="49.9998762%" x2="99.9996313%" y2="49.9998762%" id="linearGradient-5">
            <stop stop-color="#F4F4FC" offset="0%"></stop>
            <stop stop-color="#F4F4FC" offset="100%"></stop>
        </linearGradient>
        <linearGradient x1="18.9105844%" y1="100%" x2="86.2939243%" y2="0%" id="linearGradient-6">
            <stop stop-color="#4983F9" offset="0%"></stop>
            <stop stop-color="#8EB3FF" offset="100%"></stop>
        </linearGradient>
    </defs>
    <g id="界面" stroke="none" stroke-width="1" fill="none" fill-rule="evenodd">
        <g id="2-(1)备份-6">
            <mask id="mask-2" fill="white">
                <use xlink:href="#path-1"></use>
            </mask>
            <use id="蒙版" fill="#9726D8" xlink:href="#path-1"></use>
            <g id="zs_icon_cbsc" opacity="0.430687314" style="mix-blend-mode: soft-light;" mask="url(#mask-2)">
                <g transform="translate(35.000000, 0.000000)">
                    <rect id="矩形" fill="none" x="0" y="0" width="71" height="65"></rect>
                    <path d="M35.3866731,27 C33.3123808,27.009 31.2446423,27.431 29.6651654,28.265 L2.39461154,42.679 C-0.798203846,44.368 -0.798203846,47.114 2.39461154,48.801 L29.6662577,63.217 C32.8601654,64.904 38.0551808,64.904 41.2490885,63.217 L68.5196423,48.802 C71.71355,47.115 71.71355,44.368 68.5196423,42.68 L41.2479962,28.265 C39.6696115,27.431 37.6007808,27.009 35.5275808,27 L35.3866731,27 Z" id="Fill-17" fill="url(#linearGradient-3)" fill-rule="nonzero"></path>
                    <path d="M1.08821154,37.407 L0.000273076923,37.687 L0.000273076923,43.488 C0.000273076923,44.597 0.79875,45.704 2.39461154,46.549 L2.39461154,46.549 L29.6662577,60.964 C32.8601654,62.651 38.0551808,62.651 41.2490885,60.964 L41.2490885,60.964 L68.5207346,46.55 C70.0903808,45.72 70.8888577,44.633 70.9150731,43.543 L70.9150731,43.543 C70.9150731,43.494 70.9139808,43.445 70.9117962,43.396 L70.9117962,43.396 L70.9150731,43.398 L70.9150731,37.741 L69.2056115,36.871 C68.7228115,39.54 65.2907808,41.3 62.4212885,41.666 L62.4212885,41.666 L42.8799038,52.127 L34.3522577,54.946 L7.13085769,42.086 L7.76002692,41.754 C5.43341154,40.758 4.18053462,38.482 2.92110385,36.406 L2.92110385,36.406 L1.08821154,37.407 Z" id="Clip-14" fill="none"></path>
                    <path d="M1.08821154,37.407 L0.000273076923,37.687 L0.000273076923,43.488 C0.000273076923,44.597 0.79875,45.704 2.39461154,46.549 L29.6662577,60.964 C32.8601654,62.651 38.0551808,62.651 41.2490885,60.964 L68.5207346,46.55 C70.0903808,45.72 70.8888577,44.633 70.9150731,43.543 C70.9150731,43.494 70.9139808,43.445 70.9117962,43.396 L70.9150731,37.741 L69.2056115,36.871 C68.7228115,39.54 65.2907808,41.3 62.4212885,41.666 L42.8799038,52.127 L34.3522577,54.946 L7.13085769,42.086 L7.76002692,41.754 C5.43341154,40.758 4.18053462,38.482 2.92110385,36.406 L1.08821154,37.407 Z" id="Fill-13" fill="url(#linearGradient-4)" fill-rule="nonzero"></path>
                    <path d="M35.3866731,19 C33.3123808,19.009 31.2446423,19.431 29.6651654,20.265 L29.6651654,20.265 L2.39461154,34.679 C-0.798203846,36.368 -0.798203846,39.114 2.39461154,40.801 L2.39461154,40.801 L29.6662577,55.217 C32.8601654,56.904 38.0551808,56.904 41.2490885,55.217 L41.2490885,55.217 L68.5196423,40.802 C71.71355,39.115 71.71355,36.368 68.5196423,34.68 L68.5196423,34.68 L41.2479962,20.265 C39.6696115,19.431 37.6007808,19.009 35.5275808,19 L35.5275808,19 L35.3866731,19 Z" id="Clip-18" fill="none"></path>
                    <path d="M35.3866731,19 C33.3123808,19.009 31.2446423,19.431 29.6651654,20.265 L29.6651654,20.265 L2.39461154,34.679 C-0.798203846,36.368 -0.798203846,39.114 2.39461154,40.801 L2.39461154,40.801 L29.6662577,55.217 C32.8601654,56.904 38.0551808,56.904 41.2490885,55.217 L41.2490885,55.217 L68.5196423,40.802 C71.71355,39.115 71.71355,36.368 68.5196423,34.68 L68.5196423,34.68 L41.2479962,20.265 C39.6696115,19.431 37.6007808,19.009 35.5275808,19 L35.5275808,19 L35.3866731,19 Z" id="Fill-17" fill="url(#linearGradient-5)" fill-rule="nonzero"></path>
                    <path d="M68.5206254,40.8025 L41.2489792,55.2165 C38.0550715,56.9045 32.8611485,56.9045 29.6672408,55.2165 L2.39559462,40.8015 C0.967948462,40.0475 0.181486923,39.0815 0.0296561538,38.0935 C-0.158220769,39.3165 0.629333077,40.5735 2.39559462,41.5065 L29.6672408,55.9215 C32.8611485,57.6095 38.0550715,57.6095 41.2489792,55.9215 L68.5206254,41.5065 C70.2857946,40.5735 71.0733485,39.3165 70.8854715,38.0935 C70.7336408,39.0815 69.9471792,40.0475 68.5206254,40.8025" id="Fill-19" fill="#FFFFFF" fill-rule="nonzero"></path>
                    <path d="M36.0461538,42 C39.4317644,42 42.6175106,41.9782387 45.3989055,41.9399163 C51.5383599,41.8553261 55.7076923,41.6900451 55.7076923,41.5 C55.7076923,41.2238576 46.9049217,41 36.0461538,41 C25.187386,41 16.3846154,41.2238576 16.3846154,41.5 C16.3846154,41.7761424 25.187386,42 36.0461538,42 Z" id="椭圆形" fill="#C4D2F8" fill-rule="nonzero"></path>
                    <path d="M49.345,37.9 L47.1057692,37.9 L47.1057692,32.05 C47.1057692,28.075 43.4738462,25.5 40.825,23.575 C40.0876923,23.05 39.1865385,22.4 38.7769231,21.975 L38.5857692,21.775 L38.8042308,21.575 C39.2411538,21.175 40.1423077,20.575 40.8796154,20.075 C43.5284615,18.325 47.1876923,15.925 47.1876923,12.1 L47.1876923,6.55 L49.345,6.55 C50.1096154,6.55 50.7376923,5.975 50.7376923,5.275 C50.7376923,4.575 50.1096154,4 49.345,4 L21.0542308,4 C20.2896154,4 19.6615385,4.575 19.6615385,5.275 C19.6615385,5.975 20.2896154,6.55 21.0542308,6.55 L23.2115385,6.55 L23.2115385,12.15 C23.2115385,15.975 26.8434615,18.375 29.5196154,20.125 C30.2569231,20.6 31.1580769,21.2 31.595,21.625 L31.8134615,21.825 L31.6223077,22.025 C31.2126923,22.45 30.3115385,23.1 29.5742308,23.625 C26.9253846,25.525 23.2934615,28.125 23.2934615,32.075 L23.2934615,37.925 L21.0542308,37.925 C20.2896154,37.925 19.6615385,38.5 19.6615385,39.2 C19.6615385,39.9 20.2896154,40.475 21.0542308,40.475 L49.345,40.475 C49.7273077,40.475 50.055,40.35 50.3280769,40.1 C50.6011538,39.85 50.7376923,39.55 50.7376923,39.2 C50.7376923,38.475 50.1096154,37.9 49.345,37.9 Z M40.3880769,34.3 L30.0111538,34.3 C29.3011538,34.3 28.7276923,33.775 28.7276923,33.125 C28.7276923,32.475 29.3011538,31.95 30.0111538,31.95 L40.3880769,31.95 C41.0980769,31.95 41.6715385,32.475 41.6715385,33.125 C41.6715385,33.775 41.0980769,34.3 40.3880769,34.3 Z" id="形状" fill="url(#linearGradient-6)" fill-rule="nonzero"></path>
                </g>
            </g>
        </g>
    </g>
</svg>