<?xml version="1.0" encoding="UTF-8"?>
<svg width="100px" height="55px" viewBox="0 0 100 55" version="1.1" xmlns="http://www.w3.org/2000/svg" xmlns:xlink="http://www.w3.org/1999/xlink">
    <title>2 (1)备份 8</title>
    <defs>
        <rect id="path-1" x="0" y="0" width="100" height="55" rx="8"></rect>
    </defs>
    <g id="界面" stroke="none" stroke-width="1" fill="none" fill-rule="evenodd">
        <g id="2-(1)备份-8">
            <mask id="mask-2" fill="white">
                <use xlink:href="#path-1"></use>
            </mask>
            <use id="蒙版" fill="#3B26D8" xlink:href="#path-1"></use>
            <g id="编辑" opacity="0.495489211" style="mix-blend-mode: soft-light;" mask="url(#mask-2)" fill="#FFFFFF" fill-rule="nonzero">
                <g transform="translate(40.000000, 2.000000)">
                    <rect id="矩形" opacity="0" x="0" y="0" width="62" height="57"></rect>
                    <path d="M19.7427844,36.4836853 L22.2624965,38.8066141 L28.3311956,36.7716771 L21.9515507,30.9130695 L19.7427844,36.4836853 Z M30.9999696,4 C16.2804515,4 4.35087719,14.9688276 4.35087719,28.5000838 C4.35087719,42.0299433 16.2805123,53 30.9999696,53 C45.7166925,53 57.6491228,42.0299433 57.6491228,28.5000838 C57.6491228,14.9688276 45.7166925,4 30.9999696,4 Z M29.6669195,37.9995667 L29.6527,37.9843152 C29.5790501,38.0410756 29.4983513,38.0934225 29.4034329,38.1239814 L17.128397,42.2419566 C16.8080323,42.3466505 16.4474398,42.2768173 16.2102654,42.0499435 C15.9684119,41.8318407 15.8899614,41.5002731 16.008579,41.2081472 L20.4829897,29.9271934 C20.5163509,29.8422205 20.5684892,29.7701527 20.6324771,29.7003196 L20.6228758,29.6894815 L31.6455604,19.5581485 C32.8413374,20.6551988 33.8257661,21.5581131 33.8257661,21.5581131 L25.1900173,29.4844514 C25.0500704,29.6088103 24.988331,29.7723315 24.988331,29.9380874 C24.988331,30.1016645 25.0500704,30.2653533 25.1900173,30.3918351 C25.3253459,30.5139033 25.5032722,30.5815577 25.6882476,30.5815577 C25.873223,30.5815577 26.048901,30.5139033 26.1839864,30.3918351 L34.8151777,22.4699102 L37.5267926,24.9586508 L28.9337632,32.8500167 C28.6632883,33.1007455 28.6632883,33.5086268 28.9337632,33.7594115 C29.0666003,33.8794686 29.2470181,33.9470112 29.4320542,33.9470112 C29.6195211,33.9470112 29.794956,33.8794686 29.9278538,33.7615903 C29.9278538,33.7594115 38.5185742,25.8702803 38.5185742,25.8702803 C38.5185742,25.8702803 39.7807697,27.0306832 40.6870518,27.8681779 L29.6669195,37.9995667 Z M45.1211739,23.7982478 L41.6810817,26.9587272 C39.9136676,25.3359731 35.8069592,21.5581131 32.6397118,18.6518263 L36.0844223,15.4870452 C37.318118,14.3539051 39.3347385,14.3517263 40.5661251,15.4870452 L45.1212346,19.6770324 C46.3548696,20.8101166 46.3525605,22.6596887 45.1211739,23.7982478 Z" id="形状"></path>
                </g>
            </g>
        </g>
    </g>
</svg>