<?xml version="1.0" encoding="UTF-8"?>
<svg width="100px" height="55px" viewBox="0 0 100 55" version="1.1" xmlns="http://www.w3.org/2000/svg" xmlns:xlink="http://www.w3.org/1999/xlink">
    <title>2 (1)备份 9</title>
    <defs>
        <rect id="path-1" x="0" y="0" width="100" height="55" rx="8"></rect>
    </defs>
    <g id="界面" stroke="none" stroke-width="1" fill="none" fill-rule="evenodd">
        <g id="2-(1)备份-9">
            <mask id="mask-2" fill="white">
                <use xlink:href="#path-1"></use>
            </mask>
            <use id="蒙版" fill="#D826C0" xlink:href="#path-1"></use>
            <g id="Excel" opacity="0.673642113" style="mix-blend-mode: soft-light;" mask="url(#mask-2)" fill="#FFFFFF" fill-rule="nonzero">
                <g transform="translate(40.000000, 4.000000)">
                    <rect id="矩形" opacity="0" x="0" y="0" width="60" height="55"></rect>
                    <path d="M54.4439746,34.9496021 C55.159408,34.9496021 55.6363636,34.5145889 55.6363636,33.862069 L55.6363636,15.9177719 L46.0972516,7 L19.5069767,7 C16.8837209,7 14.7374207,8.95755968 14.7374207,11.3501326 L14.7374207,14.938992 L6.74841438,14.938992 C5.43678647,14.938992 4.36363636,15.9177719 4.36363636,17.1140584 L4.36363636,38.6472149 C4.36363636,39.8435013 5.43678647,40.8222812 6.74841438,40.8222812 L14.7374207,40.8222812 L14.7374207,43.6498674 C14.7374207,46.0424403 16.8837209,48 19.5069767,48 L50.8668076,48 C53.4900634,48 55.6363636,46.0424403 55.6363636,43.6498674 L55.6363636,40.3872679 C55.6363636,39.734748 55.159408,39.2997347 54.4439746,39.2997347 C53.7285412,39.2997347 53.2515856,39.734748 53.2515856,40.3872679 L53.2515856,43.6498674 C53.2515856,44.8461538 52.1784355,45.8249337 50.8668076,45.8249337 L19.5069767,45.8249337 C18.1953488,45.8249337 17.1221987,44.8461538 17.1221987,43.6498674 L17.1221987,40.8222812 L30.2384778,40.8222812 C31.5501057,40.8222812 32.6232558,39.8435013 32.6232558,38.6472149 L32.6232558,17.1140584 C32.6232558,15.9177719 31.5501057,14.938992 30.2384778,14.938992 L17.1221987,14.938992 L17.1221987,11.3501326 C17.1221987,10.1538462 18.1953488,9.17506631 19.5069767,9.17506631 L43.7124736,9.17506631 L43.7124736,14.8302387 C43.7124736,16.5702918 45.2625793,18.0928382 47.2896406,18.0928382 L53.2515856,18.0928382 L53.2515856,33.862069 C53.2515856,34.5145889 53.7285412,34.9496021 54.4439746,34.9496021 Z M18.4338266,26.1405836 L21.0570825,22.6604775 L24.6342495,22.6604775 L20.4608879,28.0981432 L25.4689218,34.4058355 L21.7725159,34.4058355 L18.5530655,30.2732095 L15.3336152,34.4058355 L11.6372093,34.4058355 L16.6452431,28.0981432 L12.3526427,22.6604775 L16.0490486,22.6604775 L18.4338266,26.1405836 L18.4338266,26.1405836 Z M47.2896406,15.9177719 C46.5742072,15.9177719 46.0972516,15.4827586 46.0972516,14.8302387 L46.0972516,10.0450928 L52.2976744,15.9177719 L47.2896406,15.9177719 Z M44.9048626,32.7745358 L38.9429175,32.7745358 C38.2274841,32.7745358 37.7505285,33.2095491 37.7505285,33.862069 C37.7505285,34.5145889 38.2274841,34.9496021 38.9429175,34.9496021 L44.9048626,34.9496021 C45.620296,34.9496021 46.0972516,34.5145889 46.0972516,33.862069 C46.0972516,33.2095491 45.620296,32.7745358 44.9048626,32.7745358 Z M44.9048626,27.33687 L38.9429175,27.33687 C38.2274841,27.33687 37.7505285,27.7718833 37.7505285,28.4244032 C37.7505285,29.0769231 38.2274841,29.5119363 38.9429175,29.5119363 L44.9048626,29.5119363 C45.620296,29.5119363 46.0972516,29.0769231 46.0972516,28.4244032 C46.0972516,27.7718833 45.620296,27.33687 44.9048626,27.33687 Z M44.9048626,21.8992042 L38.9429175,21.8992042 C38.2274841,21.8992042 37.7505285,22.3342175 37.7505285,22.9867374 C37.7505285,23.6392573 38.2274841,24.0742706 38.9429175,24.0742706 L44.9048626,24.0742706 C45.620296,24.0742706 46.0972516,23.6392573 46.0972516,22.9867374 C46.0972516,22.3342175 45.620296,21.8992042 44.9048626,21.8992042 Z" id="形状"></path>
                </g>
            </g>
        </g>
    </g>
</svg>