<?xml version="1.0" encoding="UTF-8"?>
<svg width="101px" height="55px" viewBox="0 0 101 55" version="1.1" xmlns="http://www.w3.org/2000/svg" xmlns:xlink="http://www.w3.org/1999/xlink">
    <title>2 (1)备份 7</title>
    <defs>
        <rect id="path-1" x="0" y="0" width="101" height="55" rx="8"></rect>
    </defs>
    <g id="界面" stroke="none" stroke-width="1" fill="none" fill-rule="evenodd">
        <g id="2-(1)备份-7">
            <mask id="mask-2" fill="white">
                <use xlink:href="#path-1"></use>
            </mask>
            <use id="蒙版" fill="#D85426" xlink:href="#path-1"></use>
            <g id="状态" opacity="0.588704427" style="mix-blend-mode: soft-light;" mask="url(#mask-2)" fill="#414141" fill-rule="nonzero">
                <g transform="translate(31.000000, 0.000000)">
                    <rect id="矩形" opacity="0" x="0" y="0" width="83" height="83"></rect>
                    <path d="M15.0545966,46.8009123 C16.2758196,52.6914747 19.2860421,57.9909198 23.7568608,62.1233823 C24.3536059,62.6759033 25.1752157,62.9298434 25.9868108,62.8126069 C26.7989734,62.6961024 27.512269,62.2214373 27.9232137,61.5240206 L31.4147022,55.5885267 C31.9977459,54.5963995 31.8620121,53.3483396 31.0787398,52.4993822 C29.2534679,50.5166601 27.9227508,48.1445863 27.1916557,45.5704484 C26.8691868,44.4287092 25.8105274,43.638257 24.6034859,43.6379809 L17.6856016,43.6379809 C16.8793251,43.6376463 16.1157217,43.9935656 15.6064147,44.6071003 C15.0953154,45.219502 14.8926079,46.0253872 15.0545966,46.8009123 L15.0545966,46.8009123 Z M50.581773,59.0024972 C49.9985276,58.0067503 48.8250411,57.4969599 47.6819982,57.742766 C44.7895934,58.3647747 41.7829409,58.2475362 38.9499173,57.4022758 C37.754451,57.0456949 36.466261,57.544373 35.8405859,58.6059457 L32.4129302,64.4367368 C32.0178095,65.1095548 31.9449805,65.9191399 32.2138726,66.6495107 C32.4819379,67.3804947 33.0659241,67.9574948 33.8088537,68.2254114 C37.0559296,69.4026994 40.4856851,70 43.9990111,70 C46.9038254,70 49.7716838,69.5881965 52.5206956,68.7744827 C53.305491,68.5413248 53.9392965,67.9698773 54.2425025,67.2220784 C54.544693,66.4730819 54.4812657,65.6295517 54.0703219,64.9322201 L50.581773,59.0024972 L50.581773,59.0024972 Z M62.9233492,18.733557 C62.4410683,18.3379562 61.8325721,18.1210045 61.204062,18.1210045 C61.0482594,18.1210045 60.8895172,18.1370809 60.7337147,18.1634627 C59.9540684,18.3002383 59.2757036,18.7678836 58.8800426,19.4413314 L55.4448277,25.2766569 C54.8213649,26.3394112 55.0252224,27.6836089 55.9370125,28.5220312 C58.2739528,30.6641998 59.9594618,33.4008862 60.8059466,36.427504 C61.1268402,37.5721667 62.1871431,38.3654381 63.3966361,38.3657423 L70.3153603,38.3657423 C71.120064,38.3651624 71.8821387,38.0105835 72.3920275,37.3995086 C72.9035163,36.7880897 73.107,35.9829422 72.9459454,35.2077577 C71.6256134,28.785437 68.0665125,22.9344473 62.9233492,18.733557 L62.9233492,18.733557 Z M54.2425025,14.7808206 C53.9400797,14.0324054 53.3059876,13.4605476 52.5206956,13.228004 C49.7565994,12.4118143 46.8854678,11.9980789 43.9990111,12.0000067 C40.4856851,12.0000067 37.0559296,12.5969018 33.8088537,13.7741899 C33.0665045,14.0441494 32.4830692,14.6214895 32.2140598,15.3523227 C31.9450504,16.0831559 32.0178046,16.893212 32.4129302,17.5665744 L35.8405859,23.3965411 C36.466261,24.4581138 37.754451,24.9567919 38.9499173,24.600211 C40.5866682,24.1107045 42.2883939,23.8624546 43.9994311,23.8635815 C45.2286332,23.8635815 46.4687542,23.9954905 47.6819982,24.2572475 C48.8242539,24.5024822 49.996908,23.9942203 50.581773,23.0004018 L54.0707418,17.0698544 C54.4815847,16.3727686 54.5448629,15.5294688 54.2425025,14.7808206 L54.2425025,14.7808206 Z M70.3153603,43.6375684 L63.3966361,43.6375684 C62.1869214,43.6368315 61.126115,44.4303107 60.8059466,45.575395 C59.9591452,48.6019976 58.2736912,51.3387374 55.9370125,53.48128 C55.0250399,54.3182406 54.821077,55.661767 55.4448277,56.7233565 L58.8800426,62.5611554 C59.2753066,63.2350345 59.9538319,63.7029413 60.7337147,63.8394363 C60.8895172,63.8658181 61.0482594,63.8790114 61.204062,63.8790114 C61.832237,63.8798389 62.440751,63.6640571 62.9233492,63.2693419 C68.0665125,59.0655662 71.6256134,53.2170497 72.9459454,46.7955535 C73.1071235,46.0203665 72.9036267,45.2151671 72.3920275,44.6038025 C71.8828175,43.9918761 71.1203059,43.637094 70.3153603,43.6375684 L70.3153603,43.6375684 Z M15.6059947,37.3962109 C16.1154157,38.0096031 16.8789457,38.3653301 17.6851816,38.3653301 L24.6039058,38.3653301 C25.8108989,38.3649134 26.8694814,37.5745186 27.1920756,36.4328628 C27.9228688,33.8578689 29.2535987,31.4849255 31.0791598,29.5014557 C31.8625147,28.6535122 31.9982938,27.4060345 31.4151221,26.4147845 L27.9236336,20.4792905 C27.512092,19.7819893 26.7992913,19.3067431 25.9872307,19.1882309 C25.8580123,19.1701324 25.7276206,19.161315 25.5970945,19.1618263 C24.9192905,19.1618263 24.2574447,19.4153618 23.7572808,19.8799289 C19.2860421,24.0119791 16.2758196,29.311012 15.0545966,35.2019867 C14.8927909,35.9775728 15.0953041,36.7834503 15.6059947,37.3962109 L15.6059947,37.3962109 Z" id="形状"></path>
                </g>
            </g>
        </g>
    </g>
</svg>