<?xml version="1.0" encoding="UTF-8"?>
<svg width="355px" height="355px" viewBox="0 0 355 355" version="1.1" xmlns="http://www.w3.org/2000/svg" xmlns:xlink="http://www.w3.org/1999/xlink">
    <title>编组 11</title>
    <g id="界面" stroke="none" stroke-width="1" fill="none" fill-rule="evenodd">
        <g id="编组-10" transform="translate(0.000000, 0.500000)">
            <g id="空" transform="translate(103.000000, 86.500000)" fill="#BEBEBE" fill-rule="nonzero">
                <rect id="矩形" opacity="0" x="0" y="0" width="147" height="147"></rect>
                <path d="M120.380406,53.1331932 L28.6339724,53.1331932 L10,86.4359648 L10,128 L139,128 L139,86.4359648 L120.380406,53.1331932 Z M90.8909942,86.8082228 C90.8909942,95.8140024 83.558181,103.115986 74.5,103.115986 C65.441819,103.115986 58.1090058,95.8140024 58.1090058,86.8082228 L17.6922648,86.8082228 L32.6166964,58.4593459 L116.368926,58.4593459 L131.293357,86.8082228 L90.8909942,86.8082228 Z M73.0046812,19 L78.6265047,19 L78.6265047,39.1305661 L73.0046812,39.1305661 L73.0046812,19 Z M34.8532044,28.9939813 L38.8283081,25.0355904 L53.1228366,39.2698765 L49.1475892,43.2284106 L34.8532044,28.9939813 Z M96.7783805,39.2790398 L111.072765,25.0446105 L115.048013,29.0031446 L100.753628,43.2374307 L96.7783805,39.2790398 Z" id="形状"></path>
            </g>
            <text id="一颗空的星球" font-family="AlibabaPuHuiTi-Medium, Alibaba PuHuiTi" font-size="22" font-weight="400" fill="#BEBEBE">
                <tspan x="112.056" y="246.5">一颗空的星球</tspan>
            </text>
            <rect id="矩形" x="0" y="0" width="355" height="354"></rect>
        </g>
    </g>
</svg>