<?xml version="1.0" encoding="UTF-8"?>
<svg width="86px" height="86px" viewBox="0 0 86 86" version="1.1" xmlns="http://www.w3.org/2000/svg" xmlns:xlink="http://www.w3.org/1999/xlink">
    <title>下载备份</title>
    <g id="界面" stroke="none" stroke-width="1" fill="none" fill-rule="evenodd">
        <g id="下载备份" fill="#414141" fill-rule="nonzero">
            <rect id="矩形" opacity="0" x="0" y="0" width="86" height="86"></rect>
            <path d="M68.8005375,33.7137356 C68.8005375,19.5121263 57.2490959,8 43.000126,8 C28.751156,8 17.2002184,19.5121263 17.2002184,33.7137356 C7.70104503,33.7137356 0,41.3887655 0,50.8568678 C0,60.3249701 7.70104503,68 17.2002184,68 L25.8003275,68 L25.8003275,61.1426969 L17.2002184,61.1426969 C11.5097848,61.1426969 6.88008734,56.5288061 6.88008734,50.8568678 C6.88008734,45.1848458 11.5097848,40.570955 17.2002184,40.570955 L24.0803057,40.570955 L24.0803057,33.7137356 C24.0803057,23.3157401 32.5674545,14.8563823 43.000126,14.8563823 C53.4328815,14.8563823 61.9204502,23.3157401 61.9204502,33.7137356 L61.9204502,40.570955 L68.8005375,40.570955 C74.491391,40.570955 79.1199127,45.1848458 79.1199127,50.8568678 C79.1199127,56.5288061 74.491391,61.1426969 68.8005375,61.1426969 L60.2004283,61.1426969 L60.2004283,68 L68.8005375,68 C78.2984511,68 86,60.3249701 86,50.8568678 C86,41.3887655 78.2984511,33.7137356 68.8005375,33.7137356 Z" id="路径"></path>
            <polygon id="路径" points="43.002361 78 62 58.1388649 56.4675464 53.1322768 46.9558919 63.0803674 46.9558919 35 39.0436788 35 39.0436788 63.0761118 29.531595 53.1322768 24 58.1388649"></polygon>
        </g>
    </g>
</svg>