<?xml version="1.0" encoding="UTF-8"?>
<svg width="22px" height="21px" viewBox="0 0 22 21" version="1.1" xmlns="http://www.w3.org/2000/svg" xmlns:xlink="http://www.w3.org/1999/xlink">
    <title>形状</title>
    <g id="界面" stroke="none" stroke-width="1" fill="none" fill-rule="evenodd">
        <path d="M11.0008915,1.59434299e-07 C12.0427342,-0.000297803491 13.040619,0.417057281 13.7685264,1.1575353 C14.4964338,1.89801333 14.8927702,2.89895685 14.8677659,3.93365374 C18.2572376,5.53167412 20.29835,9.04588614 19.9947259,12.760813 L20.0782504,12.8069105 C21.2792491,13.5013997 22.0127734,14.7826858 21.9998315,16.1631367 C21.9865437,17.5435877 21.2288067,18.8108917 20.0148271,19.4827382 C18.8008476,20.1545847 17.3173342,20.1276444 16.1288826,19.4121702 C14.6227868,20.4490592 12.8333016,21.0031455 11.0008915,20.9999866 C9.16821964,21.0027647 7.37851731,20.4487226 5.8718692,19.4121702 L5.79040703,19.4613409 C4.58416225,20.1484746 3.09942839,20.1393213 1.90186102,19.437368 C0.704293646,18.7354147 -0.0216907069,17.4487572 0.000494283189,16.0675877 C0.0226792733,14.6864181 0.789617282,13.4234264 2.00911942,12.7597886 C1.70577996,9.04544617 3.74693623,5.53197427 7.13607934,3.93467814 L7.13401702,3.84145874 C7.13401702,1.71987984 8.86527568,1.59434299e-07 11.0008915,1.59434299e-07 Z M14.8883892,18.2064645 L14.8213634,18.0989036 C14.552336,17.6503503 14.3786249,17.1518169 14.310936,16.6340275 L14.3057802,16.5930519 C14.2620588,16.2366872 14.2690012,15.875985 14.3264035,15.5215411 L14.3439333,15.426273 C14.3521826,15.3781267 14.3624943,15.3299804 14.3738372,15.2818341 L14.3831177,15.2439317 C14.3965228,15.1845172 14.4119903,15.126127 14.4295202,15.0667125 L14.4418942,15.0277857 C14.4601163,14.9664636 14.4800599,14.9056595 14.5017018,14.8454444 L14.5120135,14.8188103 C14.5638744,14.6757915 14.6248362,14.536193 14.6945299,14.4008596 L14.6048185,14.5883228 C14.7518804,14.2569799 14.9448583,13.947693 15.1781471,13.669446 L15.2193937,13.6223241 C15.2492975,13.5864705 15.2802325,13.5526656 15.3121987,13.5188608 L15.3658194,13.4635438 C15.400879,13.4266658 15.4369698,13.3908122 15.4740918,13.355983 L15.499871,13.3313976 C15.5390553,13.2934952 15.580302,13.2576416 15.6215486,13.221788 L15.6803251,13.1736417 L15.7741613,13.0978369 L15.8442806,13.0466175 C15.8874469,13.0140711 15.9314582,12.9826459 15.9762699,12.9523737 L15.9968933,12.9390567 L16.1577552,12.8376422 L16.1794097,12.8253495 C16.2227187,12.7997398 16.2680901,12.7741301 16.3134614,12.7505691 L16.379456,12.7167643 C16.4887597,12.6604229 16.6011568,12.6102278 16.7156163,12.5641303 L16.756863,12.5487645 C16.9001205,12.4932683 17.046855,12.4470736 17.1961399,12.410472 C17.5206604,12.3289064 17.8544244,12.2893107 18.1891533,12.2926673 L18.2551479,12.2926673 L18.3974489,12.299838 L18.4376644,12.3029112 L18.4696306,12.3059843 L18.476849,12.03657 C18.4775957,9.28631361 16.948579,6.76074553 14.502733,5.4722859 C14.3941229,5.70243766 14.2628698,5.92135615 14.1108897,6.12584602 L14.0624249,6.18730935 C13.6907697,6.66642485 13.2106707,7.05176987 12.6610696,7.31208838 L12.6146671,7.33257615 C12.5678174,7.35437333 12.5203653,7.37486906 12.4723661,7.39403949 L12.4290571,7.41145411 C12.3858539,7.42932096 12.3421862,7.4460584 12.298099,7.46164915 L12.2259173,7.48521011 C12.1748166,7.50298838 12.1232392,7.51938465 12.0712423,7.53438078 L12.0475255,7.53950272 C11.9908113,7.55589295 11.9340972,7.57023439 11.8753207,7.58457582 L11.8392299,7.59174655 C11.7655854,7.6089973 11.6912834,7.62334995 11.6164979,7.63477089 C11.3098318,7.68481219 10.9980999,7.69685541 10.688448,7.67062449 C10.6502433,7.66780474 10.6120854,7.66438969 10.5739885,7.66038062 L10.5389289,7.65525866 C10.4816927,7.6487412 10.424619,7.64088537 10.3677552,7.63169772 L10.3058852,7.62145382 C10.1932676,7.60197702 10.0817499,7.57667435 9.97178729,7.54564905 L9.8851693,7.52003932 C9.84988602,7.50983365 9.81481887,7.4989045 9.77999032,7.48725888 L9.68924766,7.45652722 C9.65459923,7.44428553 9.6202191,7.43130696 9.586131,7.41760045 L9.51910518,7.38994195 C9.46695725,7.36912374 9.4153804,7.34692067 9.3644302,7.32335665 C9.35927438,7.31925909 9.35308738,7.31721032 9.3458692,7.31311278 C9.17450124,7.23330715 9.00939581,7.14085316 8.85194045,7.03652777 L8.80656911,7.00272294 C8.76818334,6.97655364 8.73036526,6.94957189 8.6931408,6.9217962 C8.6776733,6.91155231 8.6622058,6.89925964 8.64776948,6.88799137 C8.32550757,6.64359237 8.04458851,6.34964967 7.8156181,6.01726079 L7.7537481,5.92506579 L7.70425211,5.84823662 C7.66898193,5.79288991 7.63595812,5.73616156 7.60526013,5.67818807 C7.56757945,5.61038968 7.53215686,5.54137675 7.49904997,5.47126151 L7.57844978,5.62696861 C7.55748806,5.58805174 7.53720542,5.54877763 7.51761096,5.5091639 L7.49904997,5.47126151 L7.26188167,5.60238328 C4.94862612,6.92989558 3.52408097,9.38264334 3.52493382,12.03657 L3.5311212,12.3049599 L3.60020934,12.299838 L3.72394932,12.2936917 L3.78375699,12.2926673 C3.94697569,12.2895318 4.11022983,12.296717 4.27252992,12.3141794 L4.29934024,12.3172526 C4.52770963,12.3419564 4.75318321,12.388264 4.972692,12.4555451 C5.1072992,12.4968923 5.23979047,12.5447543 5.36969109,12.5989596 C5.41712476,12.6194473 5.46558958,12.6399351 5.51199207,12.6624717 L5.56664391,12.6880814 C5.82649788,12.8151056 6.07397784,12.9718371 6.30186563,13.1562271 L6.3492993,13.1972027 C6.39363947,13.2330563 6.43694847,13.2709587 6.47922628,13.3098855 L6.51016128,13.3395927 C6.55347027,13.3795439 6.59574809,13.4205195 6.63699476,13.4625194 L6.67308558,13.5014462 C6.71123875,13.540373 6.74732957,13.5803241 6.78342039,13.6223241 L6.82466706,13.669446 C6.92421954,13.785954 7.01552466,13.9091759 7.0979262,14.038226 L6.97006154,13.8548604 C7.14439694,14.090352 7.29141003,14.3446452 7.4083073,14.6129081 L7.42480598,14.6518349 C7.4485228,14.7081763 7.47120847,14.7665665 7.49286297,14.8239323 L7.51142396,14.8782249 C7.52998496,14.9294443 7.54751478,14.9816882 7.56298228,15.033932 L7.58154328,15.0984685 C7.59701078,15.1517367 7.61041595,15.2050049 7.62278995,15.2582732 L7.63207045,15.2972 C7.64444445,15.352517 7.65578727,15.407834 7.66506777,15.463151 L7.67537944,15.5205167 C7.72178193,15.8073456 7.73518711,16.0962233 7.71662611,16.3820278 L7.71043911,16.4568082 C7.70151868,16.5764422 7.68568132,16.6954678 7.66300544,16.8132955 L7.65784962,16.8419784 C7.62448752,17.0195323 7.57830954,17.1944714 7.51967329,17.3654412 C7.41127343,17.6849057 7.26079158,17.9887136 7.07214703,18.2689522 L7.16082734,18.1316841 C7.14135232,18.163385 7.12141433,18.1948029 7.1010197,18.2259279 L7.07214703,18.2689522 L7.04739903,18.3068546 L7.03090036,18.3304155 L7.12783002,18.3908545 C8.20252509,19.0388347 9.42512302,19.4053886 10.6812298,19.4562189 L11.0008915,19.4634033 C12.3665599,19.4659929 13.7065729,19.0949141 14.8739529,18.3908545 L14.9708826,18.3283667 L14.9296359,18.2689522 L14.8883892,18.2074889 L14.8883892,18.2064645 Z M4.00133313,13.8333482 C3.81652397,13.8215737 3.63096014,13.8318915 3.44862786,13.8640799 L3.49399921,13.8569091 C3.44454592,13.8648739 3.39536747,13.87444 3.34654238,13.885592 L3.44862786,13.8651043 C3.3950072,13.8743238 3.34138655,13.885592 3.28776589,13.8989091 L3.34654238,13.885592 C2.38636157,14.1014388 1.66783772,14.8957593 1.55403564,15.8671892 C1.44023355,16.8386192 1.95593321,17.7756333 2.84055537,18.2047654 C3.72517753,18.6338974 4.78609904,18.4617054 5.48724408,17.7751967 L5.38412744,17.8694405 C5.42949876,17.8305137 5.47280775,17.7895382 5.51405442,17.7475382 L5.48724408,17.7751967 C5.59552298,17.6689323 5.6929291,17.5522642 5.77803303,17.4269045 L5.73678639,17.4873434 C5.76875256,17.4422703 5.79968756,17.3961728 5.82959138,17.3490509 L5.77803303,17.4269045 C5.81515503,17.3726119 5.8502147,17.3162705 5.88218087,17.2589047 L5.82959138,17.3490509 C5.8564017,17.3050022 5.88218087,17.2609535 5.90692887,17.214856 L5.88218087,17.2589047 C5.90692887,17.2158804 5.92858336,17.172856 5.95023786,17.1288073 L5.90692887,17.214856 C5.93580154,17.1615878 5.96158068,17.1062708 5.98632868,17.0509538 L5.95023786,17.1288073 C5.97498586,17.0765635 5.99870268,17.0222709 6.02035717,16.9679783 L5.98632868,17.0509538 C6.0038585,17.0099782 6.02138835,16.9669539 6.03685585,16.9249539 L6.02035717,16.9679783 C6.037887,16.9208564 6.05541684,16.8737345 6.06985317,16.8245638 L6.03685585,16.9249539 C6.06057267,16.8604174 6.08119602,16.7948565 6.09872584,16.7282713 L6.06985317,16.8255882 C6.08532067,16.7774419 6.09872584,16.7292956 6.11109984,16.6811494 L6.09872584,16.7282713 C6.16799865,16.469982 6.19172228,16.2017261 6.16884515,15.9353942 L6.17400098,16.0193941 C6.17111819,15.9604874 6.16595855,15.9017124 6.15853348,15.8431992 L6.16884515,15.9353942 C6.16475716,15.8891413 6.15925506,15.8430225 6.15234648,15.7971017 L6.15853348,15.8431992 C6.15178535,15.7903328 6.14318709,15.7377156 6.13275433,15.6854433 L6.15337766,15.7971017 C6.14483341,15.7407256 6.13417057,15.6846866 6.12141149,15.629102 L6.13275433,15.6854433 C6.12048346,15.6240877 6.10569104,15.5632564 6.08841417,15.5031021 L6.12141149,15.629102 C6.10872717,15.5732532 6.09393671,15.5178972 6.07707134,15.463151 L6.08841417,15.5041265 C6.07427807,15.4544397 6.05845784,15.405241 6.0409805,15.3566145 L6.07707134,15.463151 C6.05940923,15.405367 6.0394578,15.3482983 6.01726368,15.292078 L6.0409805,15.3566145 C5.94502007,15.0903295 5.80067078,14.8438056 5.61510873,14.6292984 L5.6811034,14.7092007 C5.59410455,14.5988674 5.49711325,14.4966843 5.39134559,14.4039328 L5.44702858,14.4551523 C5.41032104,14.4208093 5.37249133,14.3876696 5.33360027,14.3557865 L5.39134559,14.4039328 C5.35193843,14.3694427 5.3113555,14.3363014 5.26966796,14.3045671 L5.33360027,14.3557865 C5.28855377,14.3188845 5.24211807,14.2836886 5.19439279,14.2502745 L5.26966796,14.3045671 C5.23268895,14.276461 5.19486219,14.249473 5.15623962,14.2236404 L5.19439279,14.2502745 C5.14744876,14.2174384 5.09929453,14.1863439 5.05002949,14.1570551 L5.15623962,14.2236404 C5.11053694,14.193312 5.06376106,14.1646109 5.01600099,14.1375917 L5.04899831,14.1570551 C5.0024911,14.1294667 4.95502853,14.1034997 4.90669733,14.0792015 L5.01600099,14.1375917 C4.96748159,14.1095236 4.91795301,14.0832137 4.86751301,14.0587138 L4.90669733,14.0792015 C4.865029,14.0581373 4.82273203,14.0383234 4.77986385,14.019787 L4.86751301,14.0587138 C4.81511611,14.033864 4.7618019,14.01097 4.70768219,13.9900797 L4.77986385,14.019787 C4.72571118,13.9962061 4.67067591,13.9746784 4.6148772,13.9552505 L4.70768219,13.9900797 C4.66013898,13.9714399 4.61199188,13.9543575 4.56331888,13.9388603 L4.6148772,13.9552505 C4.56724731,13.9390234 4.51910098,13.9243328 4.47051389,13.9112018 L4.56331888,13.9388603 C4.51126452,13.9223476 4.45864261,13.9076556 4.4055504,13.8948115 L4.47051389,13.9112018 C4.42074402,13.8975975 4.37053288,13.8856396 4.31996359,13.8753481 L4.4055504,13.8948115 C4.35098233,13.8815742 4.29595093,13.8702986 4.24056375,13.8610067 L4.31996359,13.8753481 C4.273481,13.8657326 4.22671285,13.8575336 4.17972494,13.8507628 L4.24159493,13.8610067 C4.18993935,13.8524413 4.13800781,13.8456082 4.08588877,13.8405189 L4.00133313,13.8333482 Z M18.2087455,13.8292506 C18.1107846,13.8272019 18.0128238,13.830275 17.9169253,13.8394945 L18.001481,13.8333482 C17.9437357,13.8374458 17.8880527,13.8435921 17.8313385,13.8507628 L17.9169253,13.8405189 C17.8637708,13.8455325 17.8108061,13.8523658 17.7581257,13.8610067 L17.8303073,13.8507628 C17.7826405,13.857157 17.7351841,13.8650144 17.6880064,13.8743238 L17.7581257,13.8610067 C17.7034739,13.8712506 17.6498532,13.8814945 17.5972637,13.8948115 L17.6880064,13.8743238 C17.6354169,13.8845677 17.5838585,13.8968603 17.5323002,13.9112018 L17.5972637,13.8948115 C17.5441706,13.9076524 17.4915486,13.9223444 17.4394952,13.9388603 L17.5323002,13.9112018 C17.4844186,13.924038 17.4369608,13.9383867 17.3899992,13.9542261 L17.4394952,13.9388603 C17.3844782,13.9563131 17.3301326,13.97579 17.2765709,13.9972504 L17.3899992,13.9542261 C17.339873,13.9713245 17.2903483,13.9901158 17.2415113,14.0105675 L17.2765709,13.9972504 C17.2298672,14.0159089 17.1837842,14.0360658 17.1383946,14.0576894 L17.2415113,14.0105675 C17.1920153,14.0310552 17.1425193,14.0546162 17.0940544,14.0792015 L17.1383946,14.0576894 C17.0868363,14.0822747 17.0352779,14.1089088 16.9857819,14.1375917 L17.0940544,14.0792015 C17.0485653,14.1023138 17.003857,14.1269126 16.9600028,14.1529575 L16.9857819,14.1375917 C16.9401635,14.1637315 16.8954537,14.191406 16.8517303,14.2205672 L16.9589716,14.1529575 C16.9046525,14.1849352 16.8516749,14.2191102 16.800172,14.2553964 L16.8517303,14.2205672 C16.8104836,14.2472013 16.7712993,14.2758842 16.732115,14.3055915 L16.800172,14.254372 C16.7589253,14.2851037 16.7176787,14.3158354 16.676432,14.3486158 L16.732115,14.3055915 C16.6831148,14.3429537 16.635643,14.3822535 16.589814,14.4233962 L16.6774632,14.3486158 C16.6362165,14.3824206 16.5949699,14.4172499 16.5568167,14.4541279 L16.589814,14.4233962 C16.4949164,14.5085633 16.4073094,14.6014194 16.3278977,14.7010056 L16.3877054,14.6292984 C16.3495509,14.6733245 16.3130902,14.7187717 16.2784017,14.7655421 L16.3278977,14.7010056 C16.1383232,14.9389148 15.9974954,15.2114107 15.9133688,15.5031021 L15.9257428,15.463151 C15.908213,15.518468 15.8937766,15.573785 15.8814026,15.629102 L15.9123376,15.5031021 C15.8968701,15.5584191 15.8834649,15.6157849 15.871091,15.6711019 L15.8814026,15.6301263 C15.8691691,15.6833535 15.8588509,15.7369973 15.8504676,15.7909554 L15.871091,15.6711019 C15.8607793,15.7284677 15.8504676,15.7858335 15.8432495,15.8431992 L15.8504676,15.7909554 C15.8434595,15.838577 15.8379573,15.8864054 15.833969,15.9343698 L15.8432495,15.8421748 C15.8357898,15.9010271 15.8306301,15.9601446 15.827782,16.0193941 L15.833969,15.9353942 C15.8104944,16.2073887 15.8356296,16.4813641 15.908213,16.7446615 L15.8875896,16.6657835 C15.8989324,16.7159786 15.9123376,16.7641249 15.9278051,16.8132955 L15.9071818,16.7446615 C15.9226493,16.7958809 15.9381168,16.8481248 15.9566778,16.8993442 L15.9278051,16.8132955 C15.9453349,16.8716857 15.9659583,16.9300759 15.9896751,16.9874417 L15.9566778,16.8993442 C15.9773011,16.9546612 15.9979244,17.0099782 16.0226724,17.0642708 L15.9896751,16.9874417 C16.0082361,17.0335392 16.0278283,17.0796367 16.0494828,17.1236854 L16.0226724,17.0642708 C16.0443269,17.1154903 16.0690749,17.1656853 16.0948541,17.214856 L16.0494828,17.1236854 C16.0701061,17.1697829 16.0938229,17.214856 16.1196021,17.2589047 L16.0958853,17.214856 C16.1983539,17.4072633 16.3278602,17.5842072 16.4805104,17.7403675 L16.4145157,17.6696847 C17.0717222,18.4003642 18.122127,18.6383716 19.0332636,18.2630571 C19.9444002,17.8877426 20.5170677,16.9811611 20.460972,16.0028726 C20.4048762,15.0245842 19.7322815,14.1884713 18.7841364,13.9183725 L18.8955024,13.9532017 C18.8398121,13.9339861 18.7834002,13.9169004 18.7263911,13.9019823 L18.7841364,13.9183725 C18.7232593,13.9008363 18.6616808,13.8857992 18.5995576,13.8732994 L18.7263911,13.9019823 C18.6742282,13.8885412 18.6216063,13.8769243 18.5686226,13.867153 L18.5995576,13.8732994 C18.5557904,13.8645174 18.5117753,13.8570021 18.4675682,13.8507628 L18.5686226,13.867153 C18.4589868,13.8469034 18.3480173,13.8345784 18.2365869,13.830275 L18.2087455,13.8292506 Z M11.0008915,1.53658339 C10.1910654,1.53617331 9.43962442,1.95527095 9.01830383,2.64232299 C8.59698324,3.32937503 8.56675812,4.18494873 8.93855844,4.89965249 L8.89421827,4.80745749 C8.97191563,4.97483557 9.06954263,5.13235074 9.18500723,5.2766276 L9.15097873,5.2315545 C9.18088255,5.27150567 9.21284872,5.31043244 9.24481489,5.34833484 L9.18500723,5.2766276 C9.22109805,5.32170071 9.25822004,5.36472504 9.29740439,5.406725 L9.24584604,5.34833484 C9.27884336,5.38726161 9.31493421,5.425164 9.35102503,5.46204201 L9.29740439,5.406725 C9.32937056,5.44155423 9.36339905,5.47535907 9.39742752,5.50813951 L9.35102503,5.46204201 C9.38814702,5.4999444 9.42733134,5.53579801 9.46651569,5.57062724 L9.39742752,5.50813951 C9.54525637,5.64824097 9.71097372,5.76844017 9.89032513,5.86565124 L9.84289146,5.83901712 C9.89444978,5.86872439 9.94807044,5.89638289 10.0016911,5.92096825 L9.89032513,5.86565124 C9.93363412,5.88921218 9.97694312,5.91072435 10.0212833,5.93121212 L10.0016911,5.92096825 C10.0460313,5.94248041 10.0903714,5.96194381 10.1357428,5.98038279 L10.0223144,5.93121212 C10.0790286,5.95784622 10.1378051,5.98243156 10.1976128,6.00394375 L10.1357428,5.98038279 C10.1862699,6.00087056 10.2367971,6.01828518 10.2883554,6.03467541 L10.1976128,6.00394375 C10.2450464,6.02135835 10.2945424,6.03774858 10.3440384,6.05209002 L10.2883554,6.03467541 C10.3471319,6.05413881 10.4079707,6.07052902 10.4698407,6.08589485 L10.3440384,6.05209002 C10.3925032,6.06643146 10.4419992,6.07974852 10.4914952,6.09101679 L10.4698407,6.08487046 C10.5234614,6.09818752 10.5781132,6.10843139 10.6348273,6.11765092 L10.4914952,6.09101679 C10.5471782,6.10330946 10.6038924,6.11355335 10.6606065,6.12174846 L10.6337962,6.11765092 C10.6832922,6.12482165 10.7327882,6.13199235 10.7833153,6.13608992 L10.6595753,6.12174846 C10.7183518,6.12994356 10.7771283,6.13608989 10.8359048,6.14018746 L11.0008915,6.14633379 C11.0792601,6.14633379 11.1565976,6.14223623 11.2329039,6.13506552 L11.1627846,6.14121185 C11.2246546,6.13608992 11.2865246,6.12994358 11.3483946,6.12072408 L11.2329039,6.13506552 C11.2801728,6.13035742 11.3272849,6.12420819 11.3741737,6.11662652 L11.3473634,6.12072408 C11.4020152,6.11252898 11.4566671,6.10228508 11.5102877,6.08999242 L11.3741737,6.11662652 C11.4360437,6.10638262 11.4979137,6.09408996 11.5597837,6.07872412 L11.5102877,6.08999242 C11.5608149,6.07974852 11.6103109,6.06643148 11.6587757,6.05209002 L11.5597837,6.07872412 C11.6164979,6.06540706 11.673212,6.04901685 11.7278639,6.03160225 L11.6587757,6.05209002 C11.7186763,6.03466324 11.7778447,6.01484226 11.8361364,5.99267545 L11.7278639,6.03160225 C11.7763287,6.01521202 11.8247935,5.99779741 11.8722272,5.97833402 L11.8361364,5.99267545 C11.8846012,5.97423645 11.9320348,5.95374868 11.9784373,5.93223652 L11.871196,5.97833402 C11.9248167,5.95784625 11.9774062,5.93428529 12.0279333,5.90867558 L11.9784373,5.93223652 C12.0245375,5.91117802 12.069933,5.88862945 12.1145513,5.86462685 L12.0279333,5.90867558 C12.170185,5.83955162 12.3049392,5.75614125 12.4300883,5.65974907 L12.4001844,5.68023684 C13.195683,5.08295963 13.5180539,4.04753073 13.2009072,3.10838086 C12.8837605,2.16923099 11.9980345,1.53642564 11.0008915,1.53658339 L11.0008915,1.53658339 Z" id="形状" fill="#424242" fill-rule="nonzero"></path>
    </g>
</svg>