<?xml version="1.0" encoding="UTF-8"?>
<svg width="22px" height="22px" viewBox="0 0 22 22" version="1.1" xmlns="http://www.w3.org/2000/svg" xmlns:xlink="http://www.w3.org/1999/xlink">
    <title>减</title>
    <g id="控件" stroke="none" stroke-width="1" fill="none" fill-rule="evenodd">
        <g id="减" fill="#1D65FF" fill-rule="nonzero">
            <rect id="矩形" opacity="0" x="0" y="0" width="22" height="22"></rect>
            <path d="M11,0 C4.92486775,0 0,4.92486775 0,11 C0,17.0751322 4.92486775,22 11,22 C17.0751322,22 22,17.0751322 22,11 C22,8.08261861 20.8410748,5.28472557 18.7781746,3.22182541 C16.7152744,1.15892524 13.9173814,0 11,0 Z M11,19.5555556 C6.27489714,19.5555556 2.44444445,15.7251029 2.44444445,11 C2.44444445,6.27489714 6.27489714,2.44444445 11,2.44444445 C15.7251029,2.44444445 19.5555556,6.27489714 19.5555556,11 C19.5555556,13.2690744 18.6541693,15.4452134 17.0496913,17.0496913 C15.4452134,18.6541693 13.2690744,19.5555556 11,19.5555556 Z M7.33333333,9.77777778 L14.6666667,9.77777778 L14.6666667,12.2222222 L7.33333333,12.2222222 L7.33333333,9.77777778 Z" id="形状"></path>
        </g>
    </g>
</svg>