<?xml version="1.0" encoding="UTF-8"?>
<svg width="23px" height="23px" viewBox="0 0 23 23" version="1.1" xmlns="http://www.w3.org/2000/svg" xmlns:xlink="http://www.w3.org/1999/xlink">
    <title>形状备份</title>
    <g id="界面" stroke="none" stroke-width="1" fill="none" fill-rule="evenodd">
        <path d="M11.5,0 C5.15885155,0 0,5.15820484 0,11.4985584 C0,17.8417952 5.15885155,23 11.5,23 C17.8411484,23 23,17.8417952 23,11.4985584 C23,5.16108813 17.8411484,0 11.5,0 Z M15.9091023,12.6980068 L11.1770311,17.4294848 C10.516675,18.0897581 9.44107322,18.0897581 8.78071715,17.4294848 C8.44909729,17.0979065 8.28472919,16.6654131 8.28472919,16.2329196 C8.28472919,15.8004262 8.44909729,15.3650495 8.78071715,15.0363545 L12.3160732,11.5014416 L8.78071715,7.96652877 C8.12036108,7.30625548 8.12036108,6.23078852 8.78071715,5.57051523 C9.44107322,4.91024195 10.516675,4.91024195 11.1770311,5.57051523 L15.9091023,10.3019932 C16.572342,10.9651498 16.572342,12.0377335 15.9091023,12.6980068 Z" id="形状备份" fill="#F72332" fill-rule="nonzero"></path>
    </g>
</svg>