<?xml version="1.0" encoding="UTF-8"?>
<svg width="898px" height="512px" viewBox="0 0 898 512" version="1.1" xmlns="http://www.w3.org/2000/svg" xmlns:xlink="http://www.w3.org/1999/xlink" style="background: #FFFFFF;">
    <title>画板</title>
    <g id="页面-1" stroke="none" stroke-width="1" fill="none" fill-rule="evenodd">
        <g id="画板">
            <text id="高能君需要如下信息" font-family="AlibabaPuHuiTi-Bold, Alibaba PuHuiTi" font-size="65" font-weight="bold" letter-spacing="2.4375" fill="#414650">
                <tspan x="300" y="173">高能君需要如下信息</tspan>
            </text>
            <text id="1.你的头像" font-family="AlibabaPuHuiTi-Regular, Alibaba PuHuiTi" font-size="40" font-weight="normal" letter-spacing="1.5" fill="#9A9A9A">
                <tspan x="300" y="250">1.你的头像</tspan>
            </text>
            <text id="2.你的昵称" font-family="AlibabaPuHuiTi-Regular, Alibaba PuHuiTi" font-size="40" font-weight="normal" letter-spacing="1.5" fill="#9A9A9A">
                <tspan x="300" y="322">2.你的昵称</tspan>
            </text>
            <text id="3.此小程序标示你的唯一ID" font-family="AlibabaPuHuiTi-Regular, Alibaba PuHuiTi" font-size="40" font-weight="normal" letter-spacing="1.5" fill="#9A9A9A">
                <tspan x="300" y="394">3.此小程序标示你的唯一ID</tspan>
            </text>
            <g id="信息" transform="translate(138.500000, 255.500000) scale(-1, 1) translate(-138.500000, -255.500000) translate(0.000000, 117.000000)" fill="#414750" fill-rule="nonzero">
                <rect id="矩形" opacity="0" x="0" y="0" width="277" height="277"></rect>
                <path d="M35.3543866,277 C33.1733557,276.995323 31.0715991,276.181789 29.4558689,274.71684 C26.2508112,271.814203 25.520707,267.061845 27.7066765,263.331084 C39.9977588,242.301982 46.8643409,228.155739 48.8672332,222.104031 C17.7489636,198.070772 0,163.285967 0,126.017726 C-0.00333799702,56.5349039 62.1263799,0 138.503338,0 C214.880297,0 277,56.5349039 277,126.017726 C277,156.670145 264.648831,186.261096 242.243143,209.343038 C239.079016,212.399991 234.059393,212.393205 230.903544,209.327708 C227.747695,206.262211 227.595446,201.245195 230.559605,197.993999 C250.001012,177.966283 260.70981,152.40758 260.70981,126.021064 C260.703134,65.5173344 205.883972,16.3058985 138.503338,16.3058988 C71.1227044,16.305899 16.2901905,65.5173344 16.2901905,126.017726 C16.2901905,159.333831 32.8774765,190.466916 61.802579,211.439272 C66.8098096,215.060951 69.1465174,219.630608 57.5430949,242.8928 C84.1014463,224.53406 87.5497593,225.82251 91.1583034,227.204423 C125.758267,240.282521 166.904351,238.056107 199.895324,220.772188 C202.474595,219.408407 205.586361,219.528315 208.053022,221.086536 C210.519683,222.644757 211.964421,225.40325 211.840498,228.318105 C211.716574,231.23296 210.04292,233.858892 207.452904,235.202157 C171.110424,254.251853 126.001952,257.069085 87.633213,243.266651 C82.228742,245.736736 66.1188118,256.217907 40.6587131,275.217533 C39.1287138,276.367389 37.2683273,276.992553 35.3543866,277 Z M124.286141,220.5886 C119.563285,220.586627 114.857218,220.026415 110.265895,218.919624 C82.4223548,212.243719 70.5184985,188.414075 68.4021091,183.707562 C66.6444216,179.615014 68.4988898,174.869548 72.5658126,173.05291 C76.6327355,171.236272 81.4048337,173.021743 83.2802603,177.061698 C84.2349724,179.197988 93.2045916,198.0908 114.058038,203.097728 C129.89424,206.902995 146.865414,201.558932 158.331972,189.1551 C160.307526,187.018077 163.273171,186.097267 166.111776,186.739533 C168.950382,187.381798 171.230697,189.489562 172.093748,192.268851 C172.956799,195.04814 172.271469,198.076714 170.295915,200.213738 C158.178417,213.341905 141.390841,220.5886 124.286141,220.5886 L124.286141,220.5886 Z" id="形状"></path>
            </g>
        </g>
    </g>
</svg>