<?xml version="1.0" encoding="UTF-8"?>
<svg width="355px" height="155px" viewBox="0 0 355 155" version="1.1" xmlns="http://www.w3.org/2000/svg" xmlns:xlink="http://www.w3.org/1999/xlink">
    <title>编组 12</title>
    <g id="界面" stroke="none" stroke-width="1" fill="none" fill-rule="evenodd">
        <g id="编组-12">
            <rect id="矩形备份" fill="#FFFFFF" x="0" y="0" width="355" height="155" rx="7"></rect>
            <g id="undraw_my_files_swob备份" transform="translate(7.000000, 17.000000)" fill-rule="nonzero">
                <path d="M229.511561,88.1792454 C228.307262,95.8562157 224.575737,103.307655 218.417838,108.023042 C212.357607,112.667208 204.593017,114.317148 197.0976,115.735622 C188.107899,117.438978 179.09349,118.995936 170.054374,120.406496 C168.773061,120.611255 167.490786,120.80909 166.207548,121 L113.559314,121 C113.506,120.92878 113.449795,120.854592 113.396623,120.780404 C113.310809,120.655768 113.224971,120.531132 113.142037,120.406496 C113.094789,120.335276 113.047396,120.261088 113,120.1869 L146.023556,120.1869 C147.974646,120.185182 149.556356,118.600324 149.559736,116.643683 L149.559736,72.4395273 C149.772711,71.7688681 149.970947,71.0952414 150.151555,70.412727 C150.993693,67.234535 151.541457,63.9851623 151.787874,60.705974 C151.965446,58.4209847 152.018763,56.1359955 151.980185,53.8480387 C151.870808,47.559867 151.051132,41.2716953 150.16037,35.0280364 C150.09535,34.568071 150.027297,34.1051381 149.962131,33.6451728 C149.33477,29.3066607 148.763756,24.5853388 150.944501,20.7839476 C153.43907,16.4335655 158.975529,14.6204116 163.961637,15.0655394 C172.930678,15.8697369 180.485191,22.7573474 184.411918,30.8853805 C188.335755,39.0104462 189.214533,48.2512988 189.572566,57.2725551 C189.761987,62.0561949 189.741326,67.053496 189.075529,71.8519734 C191.324327,66.6944263 193.575195,61.5368791 195.828136,56.379332 C197.029547,53.6284423 198.293087,50.7885271 200.518334,48.7765496 C205.169955,44.5656408 212.863607,45.4143511 217.831943,49.248385 C222.797387,53.0853864 225.519677,59.1480267 227.330671,65.1631867 C229.57369,72.6027259 230.718896,80.502278 229.511561,88.1792454 Z" id="路径" fill="#F2F2F2"></path>
                <path d="M209.422861,46.6600489 C212.664056,52.4643562 214.151061,59.1200036 214.115474,65.761841 C214.065315,72.3469736 212.624587,78.845309 209.889719,84.8219022 C207.416021,90.2184049 203.969607,95.1016664 199.72689,99.2217262 C195.539659,103.332542 190.571154,106.541699 185.121988,108.655032 C178.798957,111.051195 171.960394,111.708243 165.304189,110.559122 C164.379493,110.398445 163.46163,110.203678 162.550602,109.974821 C161.997912,109.83708 161.762116,110.699403 162.315445,110.837297 C169.241793,112.573182 176.505635,112.361944 183.321865,110.226417 C188.999065,108.379644 194.237501,105.366374 198.708466,101.375688 C203.235,97.3741492 206.97831,92.5489031 209.743884,87.1506822 C212.770018,81.2405205 214.535497,74.7538856 214.926122,68.1103609 C215.312448,61.3688965 214.194724,54.507308 211.311383,48.3919586 C210.961991,47.650924 210.587089,46.9231438 210.186676,46.208618 C210.059299,46.0046954 209.795016,45.9395115 209.589081,46.0612242 C209.383145,46.1829369 209.309637,46.4477631 209.422864,46.6600489 L209.422861,46.6600489 Z" id="路径" fill="#FFFFFF"></path>
                <path d="M162.012124,14.6739348 C165.697539,21.3830825 168.569536,28.4977656 170.568702,35.8707982 C174.570675,50.6378797 175.173266,66.1026046 172.332238,81.1297435 C170.914087,88.6376724 168.601081,95.953442 165.44149,102.924379 C162.290981,109.836586 157.755194,117.119602 150.007529,119.539798 C149.133137,119.811638 148.236906,120.009493 147.328537,120.131222 C146.752761,120.209264 146.997873,121.072587 147.569689,120.995083 C155.584142,119.908783 161.153005,113.333247 164.64555,106.630406 C168.259299,99.6949452 170.83248,92.163528 172.543748,84.5596653 C175.935129,69.3875384 175.81315,53.6549124 172.186913,38.5358515 C170.385461,31.0040357 167.692994,23.7076826 164.165031,16.7972458 C163.721892,15.9318437 163.265349,15.0733556 162.795403,14.2217816 C162.516388,13.7151541 161.732851,14.1668355 162.012124,14.6739408 L162.012124,14.6739348 Z" id="路径" fill="#FFFFFF"></path>
                <path d="M125.883639,13 L72.1163673,13 C69.8441769,13.0029017 68.0029341,14.8237926 68,17.0708677 L68,43.7135864 L76.2746886,43.7135864 C77.5051372,43.7102776 78.6498861,44.3362422 79.3012994,45.3685792 L82.1693087,49.8835415 L84.9116056,54.1971632 L85.4264419,55.0083761 L88.5638623,59.943748 L88.5998228,60 L130,60 L130,17.0708499 C129.997056,14.823784 128.15582,13.0029049 125.883639,13 L125.883639,13 Z" id="路径" fill="#CCCCCC"></path>
                <path d="M104.334338,22 L77.6656617,22 C76.1934574,22 75,23.3431458 75,25 C75,26.6568542 76.1934574,28 77.6656617,28 L104.334338,28 C105.806543,28 107,26.6568542 107,25 C107,23.3431458 105.806543,22 104.334338,22 Z" id="路径" fill="#FFFFFF"></path>
                <path d="M119.154122,35 L78.8458783,35 C77.2741431,35 76,36.3431458 76,38 C76,39.6568542 77.2741431,41 78.8458783,41 L119.154122,41 C120.725857,41 122,39.6568542 122,38 C122,36.3431458 120.725857,35 119.154122,35 L119.154122,35 Z" id="路径" fill="#FFFFFF"></path>
                <path d="M121.726229,46.7279752 C121.251432,45.6744775 120.2331,45.0010543 119.113232,45 L78.1845439,45 C78.1220482,45 78.0624838,45.0030912 78,45.0061824 C78.5340116,45.3092418 78.9839425,45.7499625 79.306497,46.2859351 L82.1575164,51 L119.113232,51 C120.100982,51.0002893 121.020263,50.4758372 121.549948,49.6098467 C122.079634,48.7438561 122.146138,47.6566354 121.726229,46.7279752 Z" id="路径" fill="#FFFFFF"></path>
                <path d="M121.973344,57.5965968 C121.779235,56.1103184 120.561835,55.0015725 119.122288,55 L85,55 L85.510181,55.8469852 L88.619232,61 L119.122288,61 C119.721703,61.0013147 120.306234,60.805517 120.792623,60.4404886 C121.550446,59.8778581 122,58.9680262 122,57.9984511 C122,57.8640132 121.991289,57.7297282 121.973344,57.5965968 L121.973344,57.5965968 Z" id="路径" fill="#FFFFFF"></path>
                <path d="M155.390478,36.619016 L151.215537,34.998827 L130.400534,26.9304633 L105.496939,17.277454 C103.386422,16.4639525 101.011087,17.4998632 100.185801,19.5937023 L99.3150511,21.8122062 L97.2425779,27.081523 L94.2306267,34.7500228 L91.9701708,40.5021382 L90.2762871,44.8147437 L88.0158312,50.5638972 L86.319034,54.8794469 L86.2714188,55.0038638 L86,55.6910372 L89.1252411,60.6286151 L89.1610621,60.6848923 L147.046564,60.6848923 C148.122887,60.683914 149.141655,61.1675276 149.816935,62 L150.061417,61.3839135 L153.049481,53.7835386 L157.719495,41.8972157 C158.540343,39.8009567 157.498669,37.4402336 155.390478,36.619016 L155.390478,36.619016 Z" id="路径" fill="#F50004"></path>
                <path d="M131.316043,36.8586926 L129.087349,35.985137 L106.615698,27.1807737 C105.251623,26.6507437 103.717208,27.3255105 103.180211,28.6915462 C102.651512,30.0619977 103.325398,31.6037695 104.687872,32.1408941 L112.109948,35.0487572 L121.289922,38.644695 L129.087349,41.7021395 L129.388214,41.818813 C130.751626,42.3502948 132.286175,41.6729164 132.817876,40.3048967 C133.349577,38.936877 132.677602,37.3949263 131.316037,36.8586926 L131.316043,36.8586926 Z" id="路径" fill="#FFFFFF"></path>
                <path d="M141.155661,53.3277378 L129.953519,48.8927888 L121.957524,45.7284254 L117.686547,44.0373363 L106.562024,39.6326393 L102.947249,38.2017178 C101.549538,37.6481595 99.9664751,38.2691898 99.2996991,39.6326393 C99.2640199,39.7082694 99.2281946,39.7869247 99.1983401,39.8686052 C98.9190415,40.593919 98.9352843,41.402074 99.2434943,42.1152388 C99.5517044,42.8284035 100.126627,43.3881423 100.841754,43.6712866 L101.7662,44.0373363 L116.595059,49.9092573 L129.953502,55.1973139 L139.050007,58.8003319 C139.38456,58.9328944 139.740661,59.0006202 140.099834,59 C141.493394,59.0024955 142.690925,57.9974875 142.949463,56.6084919 C143.208,55.2194964 142.454155,53.8407886 141.155625,53.3277378 L141.155661,53.3277378 Z" id="路径" fill="#FFFFFF"></path>
                <path d="M129.202055,59.6963112 L128.492377,59.4270174 L121.552187,56.7913767 L115.212547,54.3849222 L104.217739,50.2108866 L98.8999106,48.1911837 C97.9480496,47.828867 96.8697837,47.9886182 96.0719111,48.610168 C95.2740384,49.2317177 94.8779976,50.2204641 95.0332034,51.2033821 C95.1884091,52.1863002 95.8712385,53.0137868 96.8240801,53.3736555 L99.4859298,54.3849394 L112.765618,59.4270346 L114.131916,59.9455683 L114.273253,60 L130,60 L129.202055,59.6963112 Z" id="路径" fill="#FFFFFF"></path>
                <path d="M101.857317,59.9443237 L100.505462,59.4139336 L94.8563557,57.1956724 C94.0569109,56.8807225 93.158439,56.948628 92.4147653,57.380205 C91.6710917,57.811782 91.1629704,58.5601663 91.0339498,59.4139336 C91.0059437,59.589239 90.9952228,59.7668983 91.0019432,59.9443237 C91.0013675,59.9629341 91.0023666,59.9815599 91.0049295,60 L102,60 L101.857317,59.9443237 Z" id="路径" fill="#FFFFFF"></path>
                <path d="M113.4287,60.8754876 L112.064043,60.3379193 L90.7242241,60.3379193 C90.6959527,60.5155973 90.6851303,60.695661 90.6919144,60.8754876 L87.7744759,60.8754876 L87.809803,60.9319175 L113.569864,60.9319175 L113.4287,60.8754876 Z M113.4287,60.8754876 L87.77447,60.8754876 L87.8097971,60.9319175 L113.569858,60.9319175 L113.4287,60.8754876 Z M113.4287,60.8754876 L87.77447,60.8754876 L87.8097971,60.9319175 L113.569858,60.9319175 L113.4287,60.8754876 Z M113.569867,60.9319175 L113.4287,60.8754876 L87.77447,60.8754876 L87.8097971,60.9319175 L113.569867,60.9319175 Z M62.0997212,120.405983 C60.1615825,120.402993 58.5911511,118.817066 58.5882003,116.859814 L58.5882003,48.1431371 C58.589874,46.1848684 60.1605782,44.5973375 62.0997212,44.5939982 L67.5728568,44.5939982 L67.5728568,44 L62.0997182,44 C59.8361143,44.0042917 58.0026168,45.8572072 58,48.1431371 L58,116.859814 C58.0018962,118.481878 58.940917,119.953643 60.4027628,120.625762 L112.216981,120.625762 C112.170022,120.554482 112.122919,120.480233 112.075813,120.405983 L62.0997212,120.405983 Z M147.870563,61.6328353 C147.098662,60.8056494 146.022771,60.3370828 144.897263,60.3379193 L88.1362143,60.3379193 L84.9600072,55.2354751 L84.883468,55.1107207 L82.189621,50.7834619 L79.1720918,45.936437 C78.4204234,44.732977 77.1107457,44.0021755 75.701786,44.000003 L62.0997212,44.000003 C59.8361172,44.0042947 58.0026198,45.8572101 58.0000029,48.1431401 L58.0000029,116.859817 C58.0018991,118.481881 58.9409199,119.953646 60.4027658,120.625765 C60.9348956,120.873164 61.5139012,121.000849 62.0997153,120.999988 L144.89726,120.999988 C145.484045,121.000833 146.064032,120.873159 146.597233,120.625765 C148.059038,119.953599 148.99804,118.481863 149.000003,116.859817 L149.000003,64.4810594 C149.000003,63.4202024 148.596163,62.3999559 147.87056,61.6328294 L147.870563,61.6328353 Z M148.411802,116.859814 C148.408443,118.818085 146.836413,120.404264 144.897263,120.405983 L62.0997182,120.405983 C60.1615795,120.402993 58.5911482,118.817066 58.5881974,116.859814 L58.5881974,48.1431371 C58.589871,46.1848684 60.1605753,44.5973375 62.0997182,44.5939851 L75.7017831,44.5939851 C76.9105571,44.5906789 78.0351412,45.2186224 78.6750798,46.254223 L81.4925688,50.783459 L84.18656,55.1107177 L84.6923274,55.9244952 L87.7744817,60.8754698 L87.8098089,60.9318997 L144.89726,60.9318997 C146.837574,60.9335781 148.410104,62.5215894 148.411802,64.4810386 L148.411802,116.859814 Z M113.428702,60.8754876 L87.7744729,60.8754876 L87.8098001,60.9319175 L113.569861,60.9319175 L113.428702,60.8754876 Z M113.428702,60.8754876 L87.7744729,60.8754876 L87.8098001,60.9319175 L113.569861,60.9319175 L113.428702,60.8754876 Z M113.428702,60.8754876 L87.7744729,60.8754876 L87.8098001,60.9319175 L113.569861,60.9319175 L113.428702,60.8754876 Z M113.428702,60.8754876 L112.064046,60.3379193 L88.1362114,60.3379193 L84.9600043,55.2354751 L84.6923274,55.924513 L87.7744817,60.8754876 L87.8098089,60.9319175 L113.56987,60.9319175 L113.428702,60.8754876 Z" id="形状" fill="#3F3D56"></path>
                <polygon id="路径" fill="#FFB8B8" points="46 85.4847809 44.2180254 89 29 84.1880008 31.6297191 79"></polygon>
                <path d="M43.521403,88.3243601 L51.4767925,88.3185282 L51.4732893,93.0917417 L39.1044864,93.100809 L39.1047542,92.7358067 C39.1065411,90.3012246 41.0839397,88.3261551 43.521403,88.3243601 Z" id="路径" fill="#2F2E41" transform="translate(45.290639, 90.709669) rotate(-64.438400) translate(-45.290639, -90.709669) "></path>
                <polygon id="路径" fill="#FFB8B8" points="49.5558413 116 46.1437665 115.870997 46 101 50 101.26434"></polygon>
                <path d="M42.7247029,115.754192 L50.6679164,115.754697 L50.6682199,120.535225 L38.3183246,120.534439 L38.3183246,120.168878 C38.3181698,117.730565 40.2909702,115.754045 42.7247029,115.754192 Z" id="路径" fill="#2F2E41" transform="translate(44.493272, 118.144708) rotate(1.933090) translate(-44.493272, -118.144708) "></path>
                <path d="M55.6303299,53.0166615 C55.6303299,53.0166615 43.6338786,49.9497787 38.1954962,54.4693969 L35.1563981,63.3472244 L23,80.7800403 L40.5947953,91.4334273 L43.793849,83.3626751 L36.116126,79.488714 L45.3933758,71.4179617 L43.793849,114.03151 L49.8720481,115 C49.8720481,115 63.3080558,62.3787282 55.6303299,53.0166615 Z" id="路径" fill="#2F2E41"></path>
                <path d="M38,55 L38.147593,54.7387712 C39.7035422,51.9848969 39.451417,47.5003912 38.9659799,44.2234358 C38.5593872,41.4786593 38.5716063,36.6415668 38.653445,33.0669587 C38.6950991,30.5817303 40.4620883,28.4574859 42.9068709,27.9535625 C46.5909661,27.1902896 51.1137886,27.028593 53.4819153,27 L53.4838867,27.1607752 L53.4819153,27 C54.8203153,26.9947 55.9172029,28.0560318 55.950014,29.388115 C56.0220762,33.2374531 55.9996839,40.2569873 55.0401669,44.0231181 C53.6161051,49.612815 55.8429437,53.4112988 55.8656521,53.4489638 L56,53.6725128 L38,55 Z" id="路径" fill="#F50004"></path>
                <path d="M32.2190345,70.6982496 C32.9980422,70.3184973 33.571794,69.6070152 33.7859054,68.7552482 C34.0000168,67.9034811 33.8324938,66.9989245 33.3284134,66.2849754 L40,37 L34.9561465,37 L29.0681207,65.7077736 C27.920808,66.6704162 27.6621361,68.3544169 28.466012,69.6276105 C29.2698879,70.900804 30.8822235,71.3607612 32.2190345,70.6982496 Z" id="路径" fill="#FFB8B8"></path>
                <path d="M73,42.5420924 L61.7896516,32 L58.759825,36.2168352 L66.3343856,42.8432947 L56.4007637,50.6854129 C56.3290122,50.6805957 56.2575568,50.6745663 56.1844744,50.6745663 C54.4820733,50.6729155 53.080069,52.0038805 53.0032907,53.6945602 C52.9265123,55.3852399 54.2021736,56.8363806 55.897799,56.9872358 C57.5934243,57.1380909 59.1080071,55.9351907 59.3344263,54.2578241 L59.3657921,54.2890057 L73,42.5420924 Z" id="路径" fill="#FFB8B8"></path>
                <path d="M42,30.100682 C42,30.100682 34.6632793,28.9709531 33.9979676,34.280094 C33.3326559,39.5892349 33,39.5892349 33,39.5892349 C33,39.5892349 38.3224907,38.6523301 39.6531172,39.9015375 C40.9837437,41.1507449 42,30.100682 42,30.100682 Z" id="路径" fill="#F50004"></path>
                <path d="M53,29.1754274 C53,29.1754274 58.6842104,28.2203207 61.2105245,30.7672767 C63.7368386,33.3142327 65,33.9509754 65,33.9509754 C65,33.9509754 59.3157896,37.1346741 61.5263141,40 C61.5263141,40 55.5263141,37.1346741 54.5789481,38.0897837 C53.6315822,39.0448933 53,29.1754274 53,29.1754274 Z" id="路径" fill="#F50004"></path>
                <path d="M46.8380007,10.1926968 C44.9748885,8.64511761 44.4853458,5.65829602 45.5663145,3.4478801 C46.6472832,1.23746419 49.09123,-0.094245068 51.473665,0.00520659634 C53.8560999,0.104658261 56.1010379,1.5272807 57.4812683,3.54945299 C59.4201201,6.39005829 59.8269835,10.3381094 62.4050785,12.5619744 C64.7336505,14.5705904 68.0694335,14.5130652 71.0907298,14.3532706 C72.1091715,14.2994047 73.1605571,14.2369658 74.0744276,13.7663283 C74.988298,13.2956909 75.734943,12.3031032 75.6171469,11.2495768 C76.376156,12.4992675 75.9358094,14.2514392 74.9174919,15.2825588 C73.8991744,16.3136784 72.4492016,16.7456673 71.0376578,16.9176756 C65.971142,17.471541 60.9997798,15.2029061 57.9609015,10.9502195 C56.9096826,9.44190658 56.0983954,7.68552078 54.6559078,6.58120481 C53.2134202,5.47688884 50.808263,5.40002049 49.922715,7.01931787 C49.4847351,7.82021376 49.5277219,8.82480385 49.1249587,9.64544319 C48.7221956,10.4660825 47.4142775,10.9085767 47.0264484,10.08019" id="路径" fill="#2F2E41"></path>
                <circle id="椭圆形" fill="#2F2E41" cx="47" cy="16" r="9"></circle>
                <circle id="椭圆形" fill="#FFB8B8" cx="47" cy="18" r="7"></circle>
                <path d="M41,13.3174956 C41.9885527,13.5485782 41.6650697,15.3208299 42.4462277,16.0082637 C43.1508809,16.6283717 44.1656519,15.9906536 45.0525299,15.7597894 C46.1722213,15.4683218 47.3441656,15.8952987 48.3779258,16.4396304 C49.4116859,16.983962 50.4084864,17.6594859 51.5362213,17.913078 C52.6639561,18.1666701 54.0009307,17.8808489 54.6331187,16.8510955 C55.2375899,15.8664877 55.0150738,14.5387153 54.5421647,13.475068 C53.3426515,10.7771591 50.812819,9.04214649 48.0181442,9.00075669 C45.2234693,8.95936688 42.6496208,10.6187927 41.3806135,13.2801423" id="路径" fill="#2F2E41"></path>
                <path d="M212,120.5 C212,120.775793 211.867229,120.999157 211.703911,121 L0.296089385,121 C0.132563733,121 0,120.776142 0,120.5 C0,120.223858 0.132563733,120 0.296089385,120 L211.703911,120 C211.867229,120.000843 212,120.224207 212,120.5 Z" id="路径" fill="#3F3D56"></path>
            </g>
            <path d="M279.4,78.44 L279.4,75.64 L262,75.64 L262,78.44 L279.4,78.44 Z M283.86,86.78 C284.1,86.2733333 284.313333,85.7933333 284.5,85.34 C284.686667,84.8866667 284.853333,84.4266667 285,83.96 C285.28,84.4 285.606667,84.77 285.98,85.07 C286.353333,85.37 286.78,85.6133333 287.26,85.8 C287.74,85.9866667 288.273333,86.1233333 288.86,86.21 C289.446667,86.2966667 290.1,86.3533333 290.82,86.38 C292.326667,86.4333333 293.823333,86.4566667 295.31,86.45 C296.796667,86.4433333 298.293333,86.4066667 299.8,86.34 L299.8,86.34 L300.3,83.98 C298.766667,84.06 297.236667,84.1066667 295.71,84.12 C294.183333,84.1333333 292.653333,84.1133333 291.12,84.06 C290.266667,84.0466667 289.52,83.9666667 288.88,83.82 L288.88,83.82 L288.88,81.56 L291.06,81.56 L291.06,79.26 L288.88,79.26 L288.88,77.26 L291.04,77.26 L291.04,74.94 L288.5,74.94 L288.5,73.26 L290.84,73.26 L290.84,70.94 L288.5,70.94 L288.5,69.1 L286.16,69 L286.16,70.94 L283.56,70.94 L283.56,73.26 L286.16,73.26 L286.16,74.94 L282.88,74.94 L282.88,77.26 L286.52,77.26 L286.52,82.56 C286.333333,82.3466667 286.166667,82.1033333 286.02,81.83 C285.873333,81.5566667 285.74,81.2466667 285.62,80.9 C285.673333,80.4866667 285.71,80.0533333 285.73,79.6 C285.75,79.1466667 285.76,78.66 285.76,78.14 L285.76,78.14 L283.58,78.04 C283.58,78.9866667 283.546667,79.81 283.48,80.51 C283.413333,81.21 283.31,81.8566667 283.17,82.45 C283.03,83.0433333 282.85,83.6166667 282.63,84.17 C282.41,84.7233333 282.14,85.3333333 281.82,86 L281.82,86 L283.86,86.78 Z M294.06,83.26 C294.94,83.3 295.806667,83.3 296.66,83.26 C297.193333,83.2333333 297.633333,83.1833333 297.98,83.11 C298.326667,83.0366667 298.61,82.9066667 298.83,82.72 C299.05,82.5333333 299.22,82.2833333 299.34,81.97 C299.46,81.6566667 299.56,81.2466667 299.64,80.74 C299.68,80.4733333 299.71,80.2 299.73,79.92 C299.75,79.64 299.766667,79.4066667 299.78,79.22 L299.78,79.22 L297.6,78.46 C297.6,78.7133333 297.59,78.97 297.57,79.23 C297.55,79.49 297.52,79.7333333 297.48,79.96 C297.453333,80.1466667 297.416667,80.2933333 297.37,80.4 C297.323333,80.5066667 297.25,80.5933333 297.15,80.66 C297.05,80.7266667 296.91,80.7766667 296.73,80.81 C296.55,80.8433333 296.32,80.8733333 296.04,80.9 C295.613333,80.94 295.186667,80.94 294.76,80.9 C294.533333,80.8866667 294.36,80.8666667 294.24,80.84 C294.12,80.8133333 294.026667,80.7633333 293.96,80.69 C293.893333,80.6166667 293.853333,80.51 293.84,80.37 C293.826667,80.23 293.82,80.04 293.82,79.8 L293.82,79.8 L293.82,76.74 L298.82,76.74 L298.82,69.66 L291.66,69.66 L291.66,72.02 L296.52,72.02 L296.52,74.4 L291.5,74.4 L291.5,80.32 C291.5,80.8666667 291.543333,81.3233333 291.63,81.69 C291.716667,82.0566667 291.86,82.3533333 292.06,82.58 C292.26,82.8066667 292.523333,82.9733333 292.85,83.08 C293.176667,83.1866667 293.58,83.2466667 294.06,83.26 Z M320.08,86.44 L320.08,69.3 L304.18,69.3 L304.18,86.44 L320.08,86.44 Z M317.58,84.26 L306.74,84.26 L306.74,71.56 L317.58,71.56 L317.58,84.26 Z M311.32,83.76 L312.76,83.64 C313.346667,83.5866667 313.816667,83.5066667 314.17,83.4 C314.523333,83.2933333 314.793333,83.1266667 314.98,82.9 C315.166667,82.6733333 315.29,82.3766667 315.35,82.01 C315.41,81.6433333 315.44,81.1733333 315.44,80.6 L315.44,80.6 L315.44,75.84 L317.06,75.84 L317.06,73.68 L315.44,73.68 L315.44,72.1 L313.08,72.02 L313.08,73.68 L307.34,73.68 L307.34,75.84 L311.8,75.84 C311.466667,76.24 311.096667,76.6433333 310.69,77.05 C310.283333,77.4566667 309.863333,77.85 309.43,78.23 C308.996667,78.61 308.553333,78.9666667 308.1,79.3 C307.646667,79.6333333 307.213333,79.9266667 306.8,80.18 L306.8,80.18 L308.14,82.28 C308.686667,81.88 309.19,81.49 309.65,81.11 C310.11,80.73 310.54,80.35 310.94,79.97 C311.34,79.59 311.716667,79.2 312.07,78.8 C312.423333,78.4 312.76,77.98 313.08,77.54 L313.08,77.54 L313.08,80.14 C313.08,80.4333333 313.07,80.6633333 313.05,80.83 C313.03,80.9966667 312.983333,81.1266667 312.91,81.22 C312.836667,81.3133333 312.726667,81.3766667 312.58,81.41 C312.433333,81.4433333 312.233333,81.4666667 311.98,81.48 L311.98,81.48 L310.66,81.58 L311.32,83.76 Z" id="一起团" fill="#2F2E41" fill-rule="nonzero"></path>
        </g>
    </g>
</svg>