<?xml version="1.0" encoding="UTF-8"?>
<svg width="13px" height="13px" viewBox="0 0 13 13" version="1.1" xmlns="http://www.w3.org/2000/svg" xmlns:xlink="http://www.w3.org/1999/xlink">
    <title>号码检索备份 3</title>
    <g id="界面" stroke="none" stroke-width="1" fill="none" fill-rule="evenodd">
        <g id="号码检索备份-3" fill="#BEC1BE" fill-rule="nonzero">
            <rect id="矩形" opacity="0" x="0" y="0" width="13" height="13"></rect>
            <path d="M9.75,13 L9.75,11.9166667 L11.9166667,11.9166667 L11.9166667,9.75 L13,9.75 L13,13 L9.75,13 Z M11.9166667,1.08333333 L9.75,1.08333333 L9.75,0 L13,0 L13,3.25 L11.9166667,3.25 L11.9166667,1.08333333 Z M8.98083333,8.2225 L10.41625,9.65520833 L9.64708333,10.421125 L8.21708333,8.98841667 C6.60237698,10.2056158 4.32133642,9.96697953 2.99351549,8.44194122 C1.66569456,6.91690291 1.74320373,4.62472368 3.17101099,3.1928659 C4.59881825,1.76100812 6.89076871,1.67700583 8.41956243,3.00050121 C9.94835615,4.32399659 10.1934533,6.60435198 8.98083333,8.2225 Z M5.95833333,3.24566618 C4.46031006,3.24626492 3.24635129,4.46103194 3.24674999,5.95905528 C3.24714888,7.45707861 4.46175426,8.67119911 5.95977763,8.67099977 C7.45780101,8.67080043 8.67208338,7.45635672 8.67208338,5.95833333 C8.67222719,5.23865757 8.38632666,4.54843239 7.87733746,4.03964638 C7.36834825,3.53086036 6.67800897,3.24523545 5.95833333,3.24566618 Z M1.08333333,3.25 L0,3.25 L0,0 L3.25,0 L3.25,1.08333333 L1.08333333,1.08333333 L1.08333333,3.25 Z M1.08333333,11.9166667 L3.25,11.9166667 L3.25,13 L0,13 L0,9.75 L1.08333333,9.75 L1.08333333,11.9166667 Z" id="形状"></path>
        </g>
    </g>
</svg>