<?xml version="1.0" encoding="UTF-8"?>
<svg width="173px" height="173px" viewBox="0 0 173 173" version="1.1" xmlns="http://www.w3.org/2000/svg" xmlns:xlink="http://www.w3.org/1999/xlink">
    <title>编组 9</title>
    <g id="界面" stroke="none" stroke-width="1" fill="none" fill-rule="evenodd" opacity="0.5">
        <g id="编组-9">
            <circle id="椭圆形" fill="#FFFFFF" cx="86.5" cy="86.5" r="86.5"></circle>
            <g id="编组-8" transform="translate(8.000000, 8.000000)">
                <circle id="椭圆形" stroke="#DD131C" stroke-width="5" cx="78.5" cy="78.5" r="76"></circle>
                <circle id="椭圆形" stroke="#DD131C" stroke-width="5" cx="78.5" cy="78.5" r="62"></circle>
                <text id="已标记付款" font-family="AlibabaPuHuiTi-Medium, Alibaba PuHuiTi" font-size="22" font-weight="400" fill="#DD131C">
                    <tspan x="24.38" y="86">已标记付款</tspan>
                </text>
                <g id="星星" transform="translate(65.000000, 30.000000)" fill-rule="nonzero">
                    <rect id="矩形" fill="#000000" opacity="0" x="0" y="0" width="25.3686067" height="26.0689655"></rect>
                    <path d="M14.234828,2.49821937 L16.3556605,6.79534044 C16.6077162,7.30477981 17.0940056,7.65884016 17.6566754,7.74035046 L22.3948139,8.42809361 C23.8129456,8.63441656 24.3781615,10.3766992 23.3521164,11.3777476 L19.922631,14.722217 C19.5152682,15.1195797 19.3294089,15.692699 19.4261576,16.2530823 L20.2357911,20.9755853 C20.4776627,22.3892795 18.9958806,23.4667438 17.7279639,22.7993782 L13.4888449,20.570581 C12.9851634,20.3056714 12.3834433,20.3056714 11.8797618,20.570581 L7.64064278,22.7993782 C6.3727261,23.4667438 4.89094393,22.3892795 5.13281561,20.9755853 L5.94244914,16.2530823 C6.0391978,15.692699 5.85333853,15.1195797 5.44597574,14.722217 L2.01649026,11.3802948 C0.990445232,10.3792464 1.5556611,8.63696375 2.97379281,8.43064083 L7.71193129,7.74289767 C8.27460115,7.66138737 8.76089046,7.30732702 9.0129462,6.79788763 L11.1363248,2.49821937 C11.7702831,1.21188496 13.6008696,1.21188496 14.234828,2.49821937 Z" id="路径" fill="#DD131C"></path>
                </g>
                <g id="星星" transform="translate(98.000000, 45.000000)" fill-rule="nonzero">
                    <rect id="矩形" fill="#000000" opacity="0" x="0" y="0" width="13.7413286" height="15.2068966"></rect>
                    <path d="M8.48016021,2.06738178 L9.63745401,4.50241705 C9.77499553,4.79109936 10.0403534,4.99173356 10.3473905,5.03792273 L12.9328933,5.42764385 C13.706738,5.54456019 14.0151644,6.53185368 13.4552732,7.09911443 L11.5838749,8.99431379 C11.3615856,9.219486 11.2601661,9.54425359 11.3129598,9.86180412 L11.7547598,12.5378891 C11.8867441,13.3389825 11.0781667,13.9495456 10.3862912,13.5713718 L8.07309289,12.3083867 C7.79824448,12.1582713 7.46989846,12.1582713 7.19505005,12.3083867 L4.88185174,13.5713718 C4.18997622,13.9495456 3.38139879,13.3389825 3.51338309,12.5378891 L3.95518312,9.86180412 C4.00797683,9.54425359 3.90655732,9.21948598 3.684268,8.99431379 L1.81286975,7.10055784 C1.25297851,6.5332971 1.56140495,5.54600359 2.33524966,5.42908727 L4.92075238,5.03936615 C5.22778952,4.99317698 5.49314739,4.79254278 5.63068892,4.50386046 L6.78937203,2.06738178 C7.13530979,1.33845895 8.13422245,1.33845895 8.48016021,2.06738178 Z" id="路径" fill="#DD131C"></path>
                </g>
                <g id="星星" transform="translate(45.000000, 45.000000)" fill-rule="nonzero">
                    <rect id="矩形" fill="#000000" opacity="0" x="0" y="0" width="14.7983539" height="15.2068966"></rect>
                    <path d="M9.0616568,2.06738178 L10.3235522,4.50241705 C10.4735253,4.79109936 10.7628675,4.99173356 11.097656,5.03792273 L13.9168484,5.42764385 C14.7606368,5.54456019 15.0969402,6.53185368 14.4864434,7.09911443 L12.4458996,8.99431379 C12.2035187,9.219486 12.0929325,9.54425359 12.1504979,9.86180412 L12.6322299,12.5378891 C12.7761435,13.3389825 11.8944831,13.9495456 11.1400727,13.5713718 L8.61779686,12.3083867 C8.31810638,12.1582713 7.96008293,12.1582713 7.66039246,12.3083867 L5.13811661,13.5713718 C4.38370619,13.9495456 3.5020458,13.3389825 3.64595945,12.5378891 L4.1276914,9.86180412 C4.18525685,9.54425359 4.07467058,9.21948598 3.83228972,8.99431379 L1.79174586,7.10055784 C1.18124907,6.5332971 1.51755251,5.54600359 2.36134088,5.42908727 L5.18053327,5.03936615 C5.51532184,4.99317698 5.80466398,4.79254278 5.95463714,4.50386046 L7.21804739,2.06738178 C7.5952526,1.33845895 8.68445159,1.33845895 9.0616568,2.06738178 Z" id="路径" fill="#DD131C"></path>
                </g>
                <g id="对勾" transform="translate(60.000000, 93.000000)" fill="#DD131C" fill-rule="nonzero">
                    <rect id="矩形" opacity="0" x="0" y="0" width="37" height="37"></rect>
                    <path d="M12.9685,21.9586823 L3.9775,14.9580202 L0,18.1367985 L15.5215,33.8285714 C18.1855,27.0300281 26.6585,13.7453071 37,4.30084423 L36.0565,2.11428571 C24.8085,8.96795233 16.65,17.6223142 12.9685,21.9586823 Z" id="路径"></path>
                </g>
            </g>
        </g>
    </g>
</svg>