<?xml version="1.0" encoding="UTF-8"?>
<svg width="16px" height="16px" viewBox="0 0 16 16" version="1.1" xmlns="http://www.w3.org/2000/svg" xmlns:xlink="http://www.w3.org/1999/xlink">
    <title>状态备份 3</title>
    <g id="界面" stroke="none" stroke-width="1" fill="none" fill-rule="evenodd">
        <g id="状态备份-3" fill="#BEC1BE" fill-rule="nonzero">
            <rect id="矩形" opacity="0" x="0" y="0" width="16" height="16"></rect>
            <path d="M8,1 C11.866,1 15,4.134 15,8 C15,11.866 11.866,15 8,15 C4.134,15 1,11.866 1,8 C1,4.134 4.134,1 8,1 Z M8,2 C4.68629688,2 2,4.68629688 2,8 C2,11.3137031 4.68629688,14 8,14 C11.3137031,14 14,11.3137031 14,8 C14,4.68629688 11.3137031,2 8,2 Z" id="形状"></path>
            <path d="M8.5,5 C8.77614063,5 9,5.19898611 9,5.44444444 L9,9 L8,9 L8,5.44444444 C8,5.19898611 8.22385937,5 8.5,5 Z" id="路径"></path>
            <path d="M10.8744754,10.7564513 C10.6611876,11.0203874 10.2502985,11.0789045 9.95673004,10.8871456 L7,8.95578562 L7.77237784,8 L10.7291079,9.93136 C11.0226763,10.1231189 11.0877632,10.4925336 10.8744754,10.7564513 L10.8744754,10.7564513 Z" id="路径"></path>
        </g>
    </g>
</svg>