<?xml version="1.0" encoding="UTF-8"?>
<svg width="26px" height="22px" viewBox="0 0 26 22" version="1.1" xmlns="http://www.w3.org/2000/svg" xmlns:xlink="http://www.w3.org/1999/xlink">
    <title>形状备份</title>
    <g id="界面" stroke="none" stroke-width="1" fill="none" fill-rule="evenodd">
        <path d="M22.0924351,0 L3.90756491,0 C1.7515667,0 0,1.78859377 0,3.9835513 L0,18.0164487 C0,20.1342861 1.62936437,21.8665229 3.67770815,21.9881354 C3.75335721,21.9940677 3.82900627,22 3.90756491,22 L22.0924351,22 C22.8576544,22 23.5705013,21.7716058 24.1756938,21.3800728 C24.3357207,21.2762572 24.4899284,21.1605771 24.6324978,21.0359984 C25.467547,20.3033572 26,19.2236753 26,18.0164487 L26,3.98651746 C26,1.78859377 24.2484333,0 22.0924351,0 Z M5.72314235,3.35472563 C7.0179051,3.35472563 8.06826321,4.42550897 8.06826321,5.74544964 C8.06826321,7.06539032 7.0179051,8.13617366 5.72314235,8.13617366 C4.42837959,8.13617366 3.37802149,7.06539032 3.37802149,5.74544964 C3.37802149,4.42550897 4.42837959,3.35472563 5.72314235,3.35472563 Z M22.0924351,19.348254 L3.90756491,19.348254 C3.50313339,19.348254 3.25,18.9062963 3.44785139,18.5473911 L6.31378693,13.3239854 C6.73276634,12.5824457 7.78312444,12.5824457 8.20501343,13.3239854 L10.171889,16.8003236 C10.5705013,17.5033032 11.568487,17.5033032 11.9670994,16.8003236 L16.0055953,9.67264393 C16.4245748,8.93110422 17.4749329,8.93110422 17.8968218,9.67264393 L22.6656222,18.357557 C22.9071173,18.7995146 22.5928827,19.348254 22.0924351,19.348254 Z" id="形状备份" fill="#FFFFFF" fill-rule="nonzero"></path>
    </g>
</svg>