<?xml version="1.0" encoding="UTF-8"?>
<svg width="539px" height="539px" viewBox="0 0 539 539" version="1.1" xmlns="http://www.w3.org/2000/svg" xmlns:xlink="http://www.w3.org/1999/xlink" style="background: #FFFFFF;">
    <title>正方形备份 3</title>
    <g id="页面-1" stroke="none" stroke-width="1" fill="none" fill-rule="evenodd">
        <g id="正方形备份-3" fill="#CFCFCF">
            <path d="M343.017857,147 L196.982143,147 C189.291964,147 183,153.315789 183,161.035088 L183,282.964912 C183,290.684211 189.291964,297 196.982143,297 L343.017857,297 C350.708036,297 357,290.684211 357,282.964912 L357,161.035088 C357,153.315789 350.708036,147 343.017857,147 Z M343,282.980631 L342.980583,283 L197.019417,283 L197,282.980631 L197,241.762851 L233.038835,205 L275.23301,257.277626 C277.563107,259.911845 281.485437,260.415446 284.398058,258.439781 L315.563107,237.424137 L343,250.304693 L343,282.980631 Z M343,233.253561 L320.071011,223.772555 C317.682979,221.942545 314.401862,221.845204 311.916755,223.538936 L281.668351,244 L238.547872,190.423552 C237.266489,188.963438 235.422074,188.106838 233.480585,188.048433 C231.539096,187.990028 229.655851,188.768756 228.296809,190.150997 L197,222.254036 L197,162.019468 L197.019415,162 L342.96117,162 L342.980585,162.019468 L343,233.253561 Z M306,175 C294.970297,175 286,183.970297 286,195 C286,206.029703 294.970297,215 306,215 C317.029703,215 326,206.029703 326,195 C326,183.970297 317.029703,175 306,175 Z M307,200 C303.689655,200 301,197.310345 301,194 C301,190.689655 303.689655,188 307,188 C310.310345,188 313,190.689655 313,194 C313,197.310345 310.310345,200 307,200 Z" id="形状" fill-rule="nonzero"></path>
            <text id="图片加载中…" font-family="AlibabaPuHuiTi-Medium, Alibaba PuHuiTi" font-size="32" font-weight="400" letter-spacing="1.2">
                <tspan x="172" y="359">图片加载中…</tspan>
            </text>
        </g>
    </g>
</svg>